%TF.GenerationSoftware,KiCad,Pcbnew,7.0.5-0*%
%TF.CreationDate,2024-02-18T02:25:47-06:00*%
%TF.ProjectId,STM32_BluePill,53544d33-325f-4426-9c75-6550696c6c2e,1*%
%TF.SameCoordinates,Original*%
%TF.FileFunction,Copper,L1,Top*%
%TF.FilePolarity,Positive*%
%FSLAX46Y46*%
G04 Gerber Fmt 4.6, Leading zero omitted, Abs format (unit mm)*
G04 Created by KiCad (PCBNEW 7.0.5-0) date 2024-02-18 02:25:47*
%MOMM*%
%LPD*%
G01*
G04 APERTURE LIST*
G04 Aperture macros list*
%AMRoundRect*
0 Rectangle with rounded corners*
0 $1 Rounding radius*
0 $2 $3 $4 $5 $6 $7 $8 $9 X,Y pos of 4 corners*
0 Add a 4 corners polygon primitive as box body*
4,1,4,$2,$3,$4,$5,$6,$7,$8,$9,$2,$3,0*
0 Add four circle primitives for the rounded corners*
1,1,$1+$1,$2,$3*
1,1,$1+$1,$4,$5*
1,1,$1+$1,$6,$7*
1,1,$1+$1,$8,$9*
0 Add four rect primitives between the rounded corners*
20,1,$1+$1,$2,$3,$4,$5,0*
20,1,$1+$1,$4,$5,$6,$7,0*
20,1,$1+$1,$6,$7,$8,$9,0*
20,1,$1+$1,$8,$9,$2,$3,0*%
G04 Aperture macros list end*
%TA.AperFunction,SMDPad,CuDef*%
%ADD10RoundRect,0.140000X0.140000X0.170000X-0.140000X0.170000X-0.140000X-0.170000X0.140000X-0.170000X0*%
%TD*%
%TA.AperFunction,SMDPad,CuDef*%
%ADD11RoundRect,0.135000X0.135000X0.185000X-0.135000X0.185000X-0.135000X-0.185000X0.135000X-0.185000X0*%
%TD*%
%TA.AperFunction,SMDPad,CuDef*%
%ADD12RoundRect,0.135000X0.185000X-0.135000X0.185000X0.135000X-0.185000X0.135000X-0.185000X-0.135000X0*%
%TD*%
%TA.AperFunction,SMDPad,CuDef*%
%ADD13RoundRect,0.140000X-0.140000X-0.170000X0.140000X-0.170000X0.140000X0.170000X-0.140000X0.170000X0*%
%TD*%
%TA.AperFunction,ComponentPad*%
%ADD14C,3.800000*%
%TD*%
%TA.AperFunction,SMDPad,CuDef*%
%ADD15RoundRect,0.135000X-0.135000X-0.185000X0.135000X-0.185000X0.135000X0.185000X-0.135000X0.185000X0*%
%TD*%
%TA.AperFunction,SMDPad,CuDef*%
%ADD16R,1.000000X0.800000*%
%TD*%
%TA.AperFunction,SMDPad,CuDef*%
%ADD17R,0.700000X1.500000*%
%TD*%
%TA.AperFunction,SMDPad,CuDef*%
%ADD18R,2.310000X1.910000*%
%TD*%
%TA.AperFunction,SMDPad,CuDef*%
%ADD19RoundRect,0.140000X-0.170000X0.140000X-0.170000X-0.140000X0.170000X-0.140000X0.170000X0.140000X0*%
%TD*%
%TA.AperFunction,SMDPad,CuDef*%
%ADD20R,1.450000X0.600000*%
%TD*%
%TA.AperFunction,SMDPad,CuDef*%
%ADD21R,1.450000X0.300000*%
%TD*%
%TA.AperFunction,ComponentPad*%
%ADD22O,2.100000X1.000000*%
%TD*%
%TA.AperFunction,ComponentPad*%
%ADD23O,1.600000X1.000000*%
%TD*%
%TA.AperFunction,ComponentPad*%
%ADD24R,1.700000X1.700000*%
%TD*%
%TA.AperFunction,ComponentPad*%
%ADD25O,1.700000X1.700000*%
%TD*%
%TA.AperFunction,SMDPad,CuDef*%
%ADD26RoundRect,0.135000X-0.185000X0.135000X-0.185000X-0.135000X0.185000X-0.135000X0.185000X0.135000X0*%
%TD*%
%TA.AperFunction,SMDPad,CuDef*%
%ADD27RoundRect,0.150000X0.512500X0.150000X-0.512500X0.150000X-0.512500X-0.150000X0.512500X-0.150000X0*%
%TD*%
%TA.AperFunction,SMDPad,CuDef*%
%ADD28RoundRect,0.218750X0.218750X0.256250X-0.218750X0.256250X-0.218750X-0.256250X0.218750X-0.256250X0*%
%TD*%
%TA.AperFunction,ComponentPad*%
%ADD29C,1.600000*%
%TD*%
%TA.AperFunction,ComponentPad*%
%ADD30O,1.600000X1.600000*%
%TD*%
%TA.AperFunction,SMDPad,CuDef*%
%ADD31R,1.200000X1.400000*%
%TD*%
%TA.AperFunction,SMDPad,CuDef*%
%ADD32R,2.000000X1.500000*%
%TD*%
%TA.AperFunction,SMDPad,CuDef*%
%ADD33R,2.000000X3.800000*%
%TD*%
%TA.AperFunction,SMDPad,CuDef*%
%ADD34RoundRect,0.075000X-0.662500X-0.075000X0.662500X-0.075000X0.662500X0.075000X-0.662500X0.075000X0*%
%TD*%
%TA.AperFunction,SMDPad,CuDef*%
%ADD35RoundRect,0.075000X-0.075000X-0.662500X0.075000X-0.662500X0.075000X0.662500X-0.075000X0.662500X0*%
%TD*%
%TA.AperFunction,SMDPad,CuDef*%
%ADD36RoundRect,0.150000X-0.587500X-0.150000X0.587500X-0.150000X0.587500X0.150000X-0.587500X0.150000X0*%
%TD*%
%TA.AperFunction,SMDPad,CuDef*%
%ADD37C,1.000000*%
%TD*%
%TA.AperFunction,SMDPad,CuDef*%
%ADD38RoundRect,0.250000X-0.475000X0.250000X-0.475000X-0.250000X0.475000X-0.250000X0.475000X0.250000X0*%
%TD*%
%TA.AperFunction,SMDPad,CuDef*%
%ADD39RoundRect,0.225000X-0.250000X0.225000X-0.250000X-0.225000X0.250000X-0.225000X0.250000X0.225000X0*%
%TD*%
%TA.AperFunction,SMDPad,CuDef*%
%ADD40RoundRect,0.140000X0.170000X-0.140000X0.170000X0.140000X-0.170000X0.140000X-0.170000X-0.140000X0*%
%TD*%
%TA.AperFunction,SMDPad,CuDef*%
%ADD41RoundRect,0.150000X0.150000X0.200000X-0.150000X0.200000X-0.150000X-0.200000X0.150000X-0.200000X0*%
%TD*%
%TA.AperFunction,SMDPad,CuDef*%
%ADD42R,0.740000X2.790000*%
%TD*%
%TA.AperFunction,SMDPad,CuDef*%
%ADD43RoundRect,0.250000X-0.250000X-0.475000X0.250000X-0.475000X0.250000X0.475000X-0.250000X0.475000X0*%
%TD*%
%TA.AperFunction,SMDPad,CuDef*%
%ADD44R,1.168400X0.355600*%
%TD*%
%TA.AperFunction,SMDPad,CuDef*%
%ADD45RoundRect,0.125000X0.537500X0.125000X-0.537500X0.125000X-0.537500X-0.125000X0.537500X-0.125000X0*%
%TD*%
%TA.AperFunction,ComponentPad*%
%ADD46R,1.650000X1.650000*%
%TD*%
%TA.AperFunction,ComponentPad*%
%ADD47C,1.650000*%
%TD*%
%TA.AperFunction,SMDPad,CuDef*%
%ADD48RoundRect,0.218750X-0.256250X0.218750X-0.256250X-0.218750X0.256250X-0.218750X0.256250X0.218750X0*%
%TD*%
%TA.AperFunction,ComponentPad*%
%ADD49C,2.000000*%
%TD*%
%TA.AperFunction,ViaPad*%
%ADD50C,0.800000*%
%TD*%
%TA.AperFunction,ViaPad*%
%ADD51C,0.700000*%
%TD*%
%TA.AperFunction,Conductor*%
%ADD52C,0.300000*%
%TD*%
%TA.AperFunction,Conductor*%
%ADD53C,0.500000*%
%TD*%
%TA.AperFunction,Conductor*%
%ADD54C,0.200000*%
%TD*%
%TA.AperFunction,Conductor*%
%ADD55C,0.250000*%
%TD*%
%TA.AperFunction,Conductor*%
%ADD56C,0.770000*%
%TD*%
G04 APERTURE END LIST*
D10*
%TO.P,C8,1*%
%TO.N,+3.3V*%
X138691600Y-104804300D03*
%TO.P,C8,2*%
%TO.N,GND*%
X137731600Y-104804300D03*
%TD*%
D11*
%TO.P,R11,1*%
%TO.N,GND*%
X157908000Y-100791500D03*
%TO.P,R11,2*%
%TO.N,/USR_LED_C*%
X156888000Y-100791500D03*
%TD*%
D12*
%TO.P,R12,1*%
%TO.N,/USR_nRST*%
X116050000Y-106620000D03*
%TO.P,R12,2*%
%TO.N,+3.3V*%
X116050000Y-105600000D03*
%TD*%
D13*
%TO.P,C5,1*%
%TO.N,+3.3V*%
X142920000Y-92400000D03*
%TO.P,C5,2*%
%TO.N,GND*%
X143880000Y-92400000D03*
%TD*%
D14*
%TO.P,H1,1,1*%
%TO.N,GND*%
X105198000Y-113491500D03*
%TD*%
D15*
%TO.P,R7,1*%
%TO.N,/SPLIT_NODE*%
X118736000Y-95726500D03*
%TO.P,R7,2*%
%TO.N,/CAN_-*%
X119756000Y-95726500D03*
%TD*%
D16*
%TO.P,SW1,*%
%TO.N,*%
X116623000Y-84226500D03*
X116623000Y-82016500D03*
X109323000Y-84226500D03*
X109323000Y-82016500D03*
D17*
%TO.P,SW1,1,A*%
%TO.N,GND*%
X115223000Y-84876500D03*
%TO.P,SW1,2,B*%
%TO.N,/SW_BOOT0*%
X112223000Y-84876500D03*
%TO.P,SW1,3,C*%
%TO.N,+3.3V*%
X110723000Y-84876500D03*
%TD*%
D18*
%TO.P,J2,1*%
%TO.N,/CAN_RS*%
X130308000Y-108191500D03*
%TO.P,J2,2*%
%TO.N,/RS*%
X124998000Y-108191500D03*
%TD*%
D19*
%TO.P,C15,1*%
%TO.N,+3.3V*%
X125448000Y-96516500D03*
%TO.P,C15,2*%
%TO.N,GND*%
X125448000Y-97476500D03*
%TD*%
D20*
%TO.P,J1,A1,GND*%
%TO.N,GND*%
X172800000Y-100900000D03*
%TO.P,J1,A4,VBUS*%
%TO.N,/VBUS*%
X172800000Y-100100000D03*
D21*
%TO.P,J1,A5,CC1*%
%TO.N,/USB_CC1*%
X172800000Y-98900000D03*
%TO.P,J1,A6,D+*%
%TO.N,/USB_D+*%
X172800000Y-97900000D03*
%TO.P,J1,A7,D-*%
%TO.N,/USB_D-*%
X172800000Y-97400000D03*
%TO.P,J1,A8,SBU1*%
%TO.N,unconnected-(J1-SBU1-PadA8)*%
X172800000Y-96400000D03*
D20*
%TO.P,J1,A9,VBUS*%
%TO.N,/VBUS*%
X172800000Y-95200000D03*
%TO.P,J1,A12,GND*%
%TO.N,GND*%
X172800000Y-94400000D03*
%TO.P,J1,B1,GND*%
X172800000Y-94400000D03*
%TO.P,J1,B4,VBUS*%
%TO.N,/VBUS*%
X172800000Y-95200000D03*
D21*
%TO.P,J1,B5,CC2*%
%TO.N,/USB_CC2*%
X172800000Y-95900000D03*
%TO.P,J1,B6,D+*%
%TO.N,/USB_D+*%
X172800000Y-96900000D03*
%TO.P,J1,B7,D-*%
%TO.N,/USB_D-*%
X172800000Y-98400000D03*
%TO.P,J1,B8,SBU2*%
%TO.N,unconnected-(J1-SBU2-PadB8)*%
X172800000Y-99400000D03*
D20*
%TO.P,J1,B9,VBUS*%
%TO.N,/VBUS*%
X172800000Y-100100000D03*
%TO.P,J1,B12,GND*%
%TO.N,GND*%
X172800000Y-100900000D03*
D22*
%TO.P,J1,S1,SHIELD*%
X173715000Y-101970000D03*
D23*
X177895000Y-101970000D03*
D22*
X173715000Y-93330000D03*
D23*
X177895000Y-93330000D03*
%TD*%
D19*
%TO.P,C11,1*%
%TO.N,/HSE_OUT*%
X138146400Y-98149500D03*
%TO.P,C11,2*%
%TO.N,GND*%
X138146400Y-99109500D03*
%TD*%
D11*
%TO.P,R5,1*%
%TO.N,/PWR_LED_C*%
X174808000Y-86967500D03*
%TO.P,R5,2*%
%TO.N,GND*%
X173788000Y-86967500D03*
%TD*%
D24*
%TO.P,J5,1,Pin_1*%
%TO.N,GND*%
X122842000Y-113277500D03*
D25*
%TO.P,J5,2,Pin_2*%
X125382000Y-113277500D03*
%TO.P,J5,3,Pin_3*%
X127922000Y-113277500D03*
%TO.P,J5,4,Pin_4*%
X130462000Y-113277500D03*
%TO.P,J5,5,Pin_5*%
%TO.N,/PA2*%
X133002000Y-113277500D03*
%TO.P,J5,6,Pin_6*%
%TO.N,/PA3*%
X135542000Y-113277500D03*
%TO.P,J5,7,Pin_7*%
%TO.N,/PA4*%
X138082000Y-113277500D03*
%TO.P,J5,8,Pin_8*%
%TO.N,GND*%
X140622000Y-113277500D03*
%TO.P,J5,9,Pin_9*%
%TO.N,/PA5*%
X143162000Y-113277500D03*
%TO.P,J5,10,Pin_10*%
%TO.N,/PA6*%
X145702000Y-113277500D03*
%TO.P,J5,11,Pin_11*%
%TO.N,/PA7*%
X148242000Y-113277500D03*
%TO.P,J5,12,Pin_12*%
%TO.N,GND*%
X150782000Y-113277500D03*
%TO.P,J5,13,Pin_13*%
%TO.N,/PB0*%
X153322000Y-113277500D03*
%TO.P,J5,14,Pin_14*%
%TO.N,/PB1*%
X155862000Y-113277500D03*
%TO.P,J5,15,Pin_15*%
%TO.N,/PB2*%
X158402000Y-113277500D03*
%TO.P,J5,16,Pin_16*%
%TO.N,/PB10*%
X160942000Y-113277500D03*
%TO.P,J5,17,Pin_17*%
%TO.N,/PB11*%
X163482000Y-113277500D03*
%TO.P,J5,18,Pin_18*%
%TO.N,GND*%
X166022000Y-113277500D03*
%TO.P,J5,19,Pin_19*%
%TO.N,+5V*%
X168562000Y-113277500D03*
%TO.P,J5,20,Pin_20*%
X171102000Y-113277500D03*
%TD*%
D26*
%TO.P,R2,1*%
%TO.N,+3.3V*%
X156498000Y-95890000D03*
%TO.P,R2,2*%
%TO.N,/USB_P_D+*%
X156498000Y-96910000D03*
%TD*%
D10*
%TO.P,C3,1*%
%TO.N,+3.3V*%
X149478000Y-103991500D03*
%TO.P,C3,2*%
%TO.N,GND*%
X148518000Y-103991500D03*
%TD*%
D27*
%TO.P,U2,1,I/O1*%
%TO.N,/USB_D-*%
X169432500Y-98600000D03*
%TO.P,U2,2,GND*%
%TO.N,GND*%
X169432500Y-97650000D03*
%TO.P,U2,3,I/O1*%
%TO.N,/USB_D+*%
X169432500Y-96700000D03*
%TO.P,U2,4,I/O2*%
%TO.N,/USB_P_D+*%
X167157500Y-96700000D03*
%TO.P,U2,5,VBUS*%
%TO.N,+5V*%
X167157500Y-97650000D03*
%TO.P,U2,6,I/O2*%
%TO.N,/USB_P_D-*%
X167157500Y-98600000D03*
%TD*%
D14*
%TO.P,H2,1,1*%
%TO.N,GND*%
X105198000Y-82491500D03*
%TD*%
D28*
%TO.P,D1,1,K*%
%TO.N,/PWR_LED_C*%
X174885500Y-88491500D03*
%TO.P,D1,2,A*%
%TO.N,+3.3V*%
X173310500Y-88491500D03*
%TD*%
%TO.P,D2,1,K*%
%TO.N,/USR_LED_C*%
X155485500Y-100791500D03*
%TO.P,D2,2,A*%
%TO.N,/PB12*%
X153910500Y-100791500D03*
%TD*%
D29*
%TO.P,R10,1*%
%TO.N,/RS*%
X120198000Y-101931500D03*
D30*
%TO.P,R10,2*%
%TO.N,GND*%
X120198000Y-109551500D03*
%TD*%
D31*
%TO.P,Y1,1,1*%
%TO.N,/HSE_IN*%
X134858000Y-95954700D03*
%TO.P,Y1,2,2*%
%TO.N,GND*%
X134858000Y-98154700D03*
%TO.P,Y1,3,3*%
%TO.N,/HSE_OUT*%
X136558000Y-98154700D03*
%TO.P,Y1,4,4*%
%TO.N,GND*%
X136558000Y-95954700D03*
%TD*%
D12*
%TO.P,R8,1*%
%TO.N,/PB10*%
X154162299Y-106825500D03*
%TO.P,R8,2*%
%TO.N,+3.3V*%
X154162299Y-105805500D03*
%TD*%
D32*
%TO.P,U3,1,GND*%
%TO.N,GND*%
X164598000Y-92041500D03*
%TO.P,U3,2,VO*%
%TO.N,+3.3V*%
X164598000Y-89741500D03*
D33*
X158298000Y-89741500D03*
D32*
%TO.P,U3,3,VI*%
%TO.N,+5V*%
X164598000Y-87441500D03*
%TD*%
D34*
%TO.P,U1,1,VBAT*%
%TO.N,+3.3V*%
X142047500Y-95287500D03*
%TO.P,U1,2,PC13*%
%TO.N,/CAN_SHDN*%
X142047500Y-95787500D03*
%TO.P,U1,3,PC14*%
%TO.N,/CAN_RS*%
X142047500Y-96287500D03*
%TO.P,U1,4,PC15*%
%TO.N,unconnected-(U1-PC15-Pad4)*%
X142047500Y-96787500D03*
%TO.P,U1,5,PD0*%
%TO.N,/HSE_IN*%
X142047500Y-97287500D03*
%TO.P,U1,6,PD1*%
%TO.N,/HSE_OUT*%
X142047500Y-97787500D03*
%TO.P,U1,7,NRST*%
%TO.N,/NRST*%
X142047500Y-98287500D03*
%TO.P,U1,8,VSSA*%
%TO.N,GND*%
X142047500Y-98787500D03*
%TO.P,U1,9,VDDA*%
%TO.N,+3.3VA*%
X142047500Y-99287500D03*
%TO.P,U1,10,PA0*%
%TO.N,unconnected-(U1-PA0-Pad10)*%
X142047500Y-99787500D03*
%TO.P,U1,11,PA1*%
%TO.N,unconnected-(U1-PA1-Pad11)*%
X142047500Y-100287500D03*
%TO.P,U1,12,PA2*%
%TO.N,/PA2*%
X142047500Y-100787500D03*
D35*
%TO.P,U1,13,PA3*%
%TO.N,/PA3*%
X143460000Y-102200000D03*
%TO.P,U1,14,PA4*%
%TO.N,/PA4*%
X143960000Y-102200000D03*
%TO.P,U1,15,PA5*%
%TO.N,/PA5*%
X144460000Y-102200000D03*
%TO.P,U1,16,PA6*%
%TO.N,/PA6*%
X144960000Y-102200000D03*
%TO.P,U1,17,PA7*%
%TO.N,/PA7*%
X145460000Y-102200000D03*
%TO.P,U1,18,PB0*%
%TO.N,/PB0*%
X145960000Y-102200000D03*
%TO.P,U1,19,PB1*%
%TO.N,/PB1*%
X146460000Y-102200000D03*
%TO.P,U1,20,PB2*%
%TO.N,/PB2*%
X146960000Y-102200000D03*
%TO.P,U1,21,PB10*%
%TO.N,/PB10*%
X147460000Y-102200000D03*
%TO.P,U1,22,PB11*%
%TO.N,/PB11*%
X147960000Y-102200000D03*
%TO.P,U1,23,VSS*%
%TO.N,GND*%
X148460000Y-102200000D03*
%TO.P,U1,24,VDD*%
%TO.N,+3.3V*%
X148960000Y-102200000D03*
D34*
%TO.P,U1,25,PB12*%
%TO.N,/PB12*%
X150372500Y-100787500D03*
%TO.P,U1,26,PB13*%
%TO.N,unconnected-(U1-PB13-Pad26)*%
X150372500Y-100287500D03*
%TO.P,U1,27,PB14*%
%TO.N,unconnected-(U1-PB14-Pad27)*%
X150372500Y-99787500D03*
%TO.P,U1,28,PB15*%
%TO.N,unconnected-(U1-PB15-Pad28)*%
X150372500Y-99287500D03*
%TO.P,U1,29,PA8*%
%TO.N,unconnected-(U1-PA8-Pad29)*%
X150372500Y-98787500D03*
%TO.P,U1,30,PA9*%
%TO.N,unconnected-(U1-PA9-Pad30)*%
X150372500Y-98287500D03*
%TO.P,U1,31,PA10*%
%TO.N,unconnected-(U1-PA10-Pad31)*%
X150372500Y-97787500D03*
%TO.P,U1,32,PA11*%
%TO.N,/USB_P_D-*%
X150372500Y-97287500D03*
%TO.P,U1,33,PA12*%
%TO.N,/USB_P_D+*%
X150372500Y-96787500D03*
%TO.P,U1,34,PA13*%
%TO.N,/SWDIO*%
X150372500Y-96287500D03*
%TO.P,U1,35,VSS*%
%TO.N,GND*%
X150372500Y-95787500D03*
%TO.P,U1,36,VDD*%
%TO.N,+3.3V*%
X150372500Y-95287500D03*
D35*
%TO.P,U1,37,PA14*%
%TO.N,/SWCLK*%
X148960000Y-93875000D03*
%TO.P,U1,38,PA15*%
%TO.N,unconnected-(U1-PA15-Pad38)*%
X148460000Y-93875000D03*
%TO.P,U1,39,PB3*%
%TO.N,/SWO*%
X147960000Y-93875000D03*
%TO.P,U1,40,PB4*%
%TO.N,/PB4*%
X147460000Y-93875000D03*
%TO.P,U1,41,PB5*%
%TO.N,/PB5*%
X146960000Y-93875000D03*
%TO.P,U1,42,PB6*%
%TO.N,/PB6*%
X146460000Y-93875000D03*
%TO.P,U1,43,PB7*%
%TO.N,/PB7*%
X145960000Y-93875000D03*
%TO.P,U1,44,BOOT0*%
%TO.N,/BOOT0*%
X145460000Y-93875000D03*
%TO.P,U1,45,PB8*%
%TO.N,/CAN_RX*%
X144960000Y-93875000D03*
%TO.P,U1,46,PB9*%
%TO.N,/CAN_TX*%
X144460000Y-93875000D03*
%TO.P,U1,47,VSS*%
%TO.N,GND*%
X143960000Y-93875000D03*
%TO.P,U1,48,VDD*%
%TO.N,+3.3V*%
X143460000Y-93875000D03*
%TD*%
D11*
%TO.P,R3,1*%
%TO.N,/USB_CC2*%
X175323000Y-91554000D03*
%TO.P,R3,2*%
%TO.N,GND*%
X174303000Y-91554000D03*
%TD*%
D26*
%TO.P,R9,1*%
%TO.N,/PB11*%
X155362299Y-104815500D03*
%TO.P,R9,2*%
%TO.N,+3.3V*%
X155362299Y-105835500D03*
%TD*%
D15*
%TO.P,R0,1*%
%TO.N,/MCU_nRST*%
X119140000Y-111750000D03*
%TO.P,R0,2*%
%TO.N,/NRST*%
X120160000Y-111750000D03*
%TD*%
D11*
%TO.P,R4,1*%
%TO.N,/USB_CC1*%
X175295000Y-103746000D03*
%TO.P,R4,2*%
%TO.N,GND*%
X174275000Y-103746000D03*
%TD*%
D13*
%TO.P,C14,1*%
%TO.N,/SHDN*%
X122713000Y-94716500D03*
%TO.P,C14,2*%
%TO.N,GND*%
X123673000Y-94716500D03*
%TD*%
D14*
%TO.P,H4,1,1*%
%TO.N,GND*%
X177198000Y-113491500D03*
%TD*%
D36*
%TO.P,D5,1,K*%
%TO.N,/CAN_-*%
X113260500Y-96041500D03*
%TO.P,D5,2,K*%
%TO.N,/CAN_+*%
X113260500Y-97941500D03*
%TO.P,D5,3,A*%
%TO.N,GND*%
X115135500Y-96991500D03*
%TD*%
D37*
%TO.P,TP2,1,1*%
%TO.N,+3.3V*%
X177198000Y-107491500D03*
%TD*%
D10*
%TO.P,C9,1*%
%TO.N,/NRST*%
X138680000Y-101100000D03*
%TO.P,C9,2*%
%TO.N,GND*%
X137720000Y-101100000D03*
%TD*%
D38*
%TO.P,C12,1*%
%TO.N,+5V*%
X167036000Y-88791500D03*
%TO.P,C12,2*%
%TO.N,GND*%
X167036000Y-90691500D03*
%TD*%
D39*
%TO.P,C1,1*%
%TO.N,+3.3V*%
X153698000Y-94366500D03*
%TO.P,C1,2*%
%TO.N,GND*%
X153698000Y-95916500D03*
%TD*%
D40*
%TO.P,C6,1*%
%TO.N,+3.3VA*%
X140198000Y-100041500D03*
%TO.P,C6,2*%
%TO.N,GND*%
X140198000Y-99081500D03*
%TD*%
D41*
%TO.P,D4,1,K*%
%TO.N,+5V*%
X169370000Y-95150000D03*
%TO.P,D4,2,A*%
%TO.N,/VBUS*%
X170770000Y-95150000D03*
%TD*%
D10*
%TO.P,C16,1*%
%TO.N,/SPLIT_NODE*%
X118728000Y-96996500D03*
%TO.P,C16,2*%
%TO.N,GND*%
X117768000Y-96996500D03*
%TD*%
D15*
%TO.P,R1,1*%
%TO.N,/SW_BOOT0*%
X142488000Y-88850000D03*
%TO.P,R1,2*%
%TO.N,/BOOT0*%
X143508000Y-88850000D03*
%TD*%
D42*
%TO.P,J7,1*%
%TO.N,+3.3V*%
X121210000Y-86585000D03*
%TO.P,J7,2*%
%TO.N,/SWDIO*%
X121210000Y-82515000D03*
%TO.P,J7,3*%
%TO.N,GND*%
X122480000Y-86585000D03*
%TO.P,J7,4*%
%TO.N,/SWCLK*%
X122480000Y-82515000D03*
%TO.P,J7,5*%
%TO.N,GND*%
X123750000Y-86585000D03*
%TO.P,J7,6*%
%TO.N,/SWO*%
X123750000Y-82515000D03*
%TO.P,J7,7*%
%TO.N,unconnected-(J7-Pad7)*%
X125020000Y-86585000D03*
%TO.P,J7,8*%
%TO.N,unconnected-(J7-Pad8)*%
X125020000Y-82515000D03*
%TO.P,J7,9*%
%TO.N,unconnected-(J7-Pad9)*%
X126290000Y-86585000D03*
%TO.P,J7,10*%
%TO.N,/DB_nRST*%
X126290000Y-82515000D03*
%TD*%
D43*
%TO.P,C13,1*%
%TO.N,+3.3V*%
X160752000Y-94567500D03*
%TO.P,C13,2*%
%TO.N,GND*%
X162652000Y-94567500D03*
%TD*%
D44*
%TO.P,U5,1*%
%TO.N,/DB_nRST*%
X114034800Y-102739600D03*
%TO.P,U5,2*%
%TO.N,/USR_nRST*%
X114034800Y-103400000D03*
%TO.P,U5,3,GND*%
%TO.N,GND*%
X114034800Y-104060400D03*
%TO.P,U5,4*%
%TO.N,/MCU_nRST*%
X115965200Y-104060400D03*
%TO.P,U5,5,VCC*%
%TO.N,+3.3V*%
X115965200Y-102739600D03*
%TD*%
D19*
%TO.P,C2,1*%
%TO.N,+3.3V*%
X152198000Y-95017500D03*
%TO.P,C2,2*%
%TO.N,GND*%
X152198000Y-95977500D03*
%TD*%
D45*
%TO.P,U4,1,TXD*%
%TO.N,/CAN_TX*%
X123835500Y-97966500D03*
%TO.P,U4,2,GND*%
%TO.N,GND*%
X123835500Y-97316500D03*
%TO.P,U4,3,VDD*%
%TO.N,+3.3V*%
X123835500Y-96666500D03*
%TO.P,U4,4,RXD*%
%TO.N,/CAN_RX*%
X123835500Y-96016500D03*
%TO.P,U4,5,SHDN*%
%TO.N,/SHDN*%
X121560500Y-96016500D03*
%TO.P,U4,6,CANL*%
%TO.N,/CAN_-*%
X121560500Y-96666500D03*
%TO.P,U4,7,CANH*%
%TO.N,/CAN_+*%
X121560500Y-97316500D03*
%TO.P,U4,8,RS*%
%TO.N,/RS*%
X121560500Y-97966500D03*
%TD*%
D18*
%TO.P,J3,1*%
%TO.N,/CAN_SHDN*%
X130353000Y-103241500D03*
%TO.P,J3,2*%
%TO.N,/SHDN*%
X125043000Y-103241500D03*
%TD*%
D40*
%TO.P,C4,1*%
%TO.N,+3.3V*%
X140198000Y-95266300D03*
%TO.P,C4,2*%
%TO.N,GND*%
X140198000Y-94306300D03*
%TD*%
D10*
%TO.P,C7,1*%
%TO.N,+3.3VA*%
X138691600Y-103229500D03*
%TO.P,C7,2*%
%TO.N,GND*%
X137731600Y-103229500D03*
%TD*%
D46*
%TO.P,J4,1,1*%
%TO.N,+5V*%
X107936000Y-102525500D03*
D47*
%TO.P,J4,2,2*%
%TO.N,/CAN_+*%
X107936000Y-99025500D03*
%TO.P,J4,3,3*%
%TO.N,/CAN_-*%
X107936000Y-95525500D03*
%TO.P,J4,4,4*%
%TO.N,GND*%
X107936000Y-92025500D03*
%TD*%
D41*
%TO.P,D3,1,K*%
%TO.N,+5V*%
X169370000Y-100150000D03*
%TO.P,D3,2,A*%
%TO.N,/VBUS*%
X170770000Y-100150000D03*
%TD*%
D24*
%TO.P,J6,1,Pin_1*%
%TO.N,/PB7*%
X133000000Y-82550000D03*
D25*
%TO.P,J6,2,Pin_2*%
%TO.N,GND*%
X135540000Y-82550000D03*
%TO.P,J6,3,Pin_3*%
%TO.N,/PB6*%
X138080000Y-82550000D03*
%TO.P,J6,4,Pin_4*%
%TO.N,GND*%
X140620000Y-82550000D03*
%TO.P,J6,5,Pin_5*%
%TO.N,/PB5*%
X143160000Y-82550000D03*
%TO.P,J6,6,Pin_6*%
%TO.N,/PB4*%
X145700000Y-82550000D03*
%TO.P,J6,7,Pin_7*%
%TO.N,/SWO*%
X148240000Y-82550000D03*
%TO.P,J6,8,Pin_8*%
%TO.N,GND*%
X150780000Y-82550000D03*
%TO.P,J6,9,Pin_9*%
%TO.N,/SWCLK*%
X153320000Y-82550000D03*
%TO.P,J6,10,Pin_10*%
%TO.N,/SWDIO*%
X155860000Y-82550000D03*
%TO.P,J6,11,Pin_11*%
%TO.N,GND*%
X158400000Y-82550000D03*
%TO.P,J6,12,Pin_12*%
%TO.N,+3.3V*%
X160940000Y-82550000D03*
%TO.P,J6,13,Pin_13*%
X163480000Y-82550000D03*
%TO.P,J6,14,Pin_14*%
X166020000Y-82550000D03*
%TO.P,J6,15,Pin_15*%
%TO.N,GND*%
X168560000Y-82550000D03*
%TO.P,J6,16,Pin_16*%
X171100000Y-82550000D03*
%TD*%
D48*
%TO.P,FB1,1*%
%TO.N,+3.3VA*%
X140114000Y-103204000D03*
%TO.P,FB1,2*%
%TO.N,+3.3V*%
X140114000Y-104779000D03*
%TD*%
D37*
%TO.P,TP3,1,1*%
%TO.N,+5V*%
X177198000Y-105191500D03*
%TD*%
D14*
%TO.P,H3,1,1*%
%TO.N,GND*%
X177198000Y-82491500D03*
%TD*%
D49*
%TO.P,SW2,1,1*%
%TO.N,GND*%
X116350001Y-113500000D03*
X109850001Y-113500000D03*
%TO.P,SW2,2,2*%
%TO.N,/USR_nRST*%
X116350001Y-109000000D03*
X109850001Y-109000000D03*
%TD*%
D11*
%TO.P,R6,1*%
%TO.N,/CAN_+*%
X119756000Y-98266500D03*
%TO.P,R6,2*%
%TO.N,/SPLIT_NODE*%
X118736000Y-98266500D03*
%TD*%
D37*
%TO.P,TP1,1,1*%
%TO.N,GND*%
X177198000Y-109791500D03*
%TD*%
D40*
%TO.P,C10,1*%
%TO.N,/HSE_IN*%
X138146400Y-97026700D03*
%TO.P,C10,2*%
%TO.N,GND*%
X138146400Y-96066700D03*
%TD*%
D50*
%TO.N,GND*%
X134498000Y-101541500D03*
X138298000Y-100041500D03*
X136998000Y-104791500D03*
X173470000Y-103746000D03*
X151540000Y-90420000D03*
D51*
X140998000Y-94341500D03*
D50*
X122480000Y-84580000D03*
X123640000Y-84560000D03*
X158700000Y-100791500D03*
X154898000Y-95916500D03*
X133298000Y-101541500D03*
X173470000Y-91550000D03*
X133298000Y-97941500D03*
X133298000Y-96141500D03*
D51*
X126338000Y-97471500D03*
D50*
X116448000Y-96091500D03*
X117748000Y-96000000D03*
X115148000Y-96091500D03*
X141511016Y-90563265D03*
X171320000Y-101250000D03*
X170820000Y-97650000D03*
X149005023Y-90685023D03*
X116848000Y-96991500D03*
X134498000Y-99741500D03*
X137027977Y-103771477D03*
X143700000Y-91500000D03*
X116096686Y-85225423D03*
X171320000Y-94150000D03*
X114050000Y-105100000D03*
X162698000Y-93241500D03*
X167098000Y-91741500D03*
X136798000Y-94441500D03*
X148460000Y-100841500D03*
X123673000Y-93591500D03*
X115148000Y-97891500D03*
X166198000Y-92641500D03*
X150100000Y-89000000D03*
X150044750Y-91894750D03*
X143398000Y-98787500D03*
X178798000Y-109791500D03*
X172878000Y-86967500D03*
X133298000Y-99741500D03*
X135498000Y-94441500D03*
X162648000Y-95841500D03*
X116448000Y-97891500D03*
X162998000Y-92041500D03*
X137898000Y-95141500D03*
%TO.N,/SW_BOOT0*%
X120300000Y-89650000D03*
X122100000Y-89650000D03*
%TO.N,/CAN_RX*%
X131700000Y-90700000D03*
X130300000Y-92100000D03*
%TO.N,+3.3V*%
X157635701Y-105416000D03*
X128347998Y-95391498D03*
X141998000Y-92041500D03*
X139398000Y-91241500D03*
X129407952Y-96451452D03*
X133968023Y-104711523D03*
X131577977Y-106321477D03*
X135027977Y-105771477D03*
X139398000Y-92841500D03*
X130498000Y-105241500D03*
X157635701Y-103941500D03*
X153498000Y-91491500D03*
%TO.N,+5V*%
X173748000Y-106341500D03*
X173748000Y-108541500D03*
%TO.N,/DB_nRST*%
X129650000Y-87200000D03*
X129650000Y-84550000D03*
X129650000Y-88800000D03*
X128500000Y-83400000D03*
X127500000Y-89750000D03*
X127500000Y-91499500D03*
%TD*%
D52*
%TO.N,/CAN_-*%
X119941500Y-96741500D02*
X119756000Y-96556000D01*
X120491749Y-96741500D02*
X119941500Y-96741500D01*
X120566749Y-96666500D02*
X120491749Y-96741500D01*
X119756000Y-96556000D02*
X119756000Y-95726500D01*
X121560500Y-96666500D02*
X120566749Y-96666500D01*
%TO.N,/USB_CC1*%
X172800000Y-98900000D02*
X174400000Y-98900000D01*
X174400000Y-98900000D02*
X175295000Y-99795000D01*
X175295000Y-99795000D02*
X175295000Y-103746000D01*
D53*
%TO.N,GND*%
X157908000Y-100791500D02*
X158700000Y-100791500D01*
D54*
%TO.N,/CAN_+*%
X119756000Y-98266500D02*
X119756000Y-98694000D01*
X119756000Y-98694000D02*
X119563500Y-98886500D01*
X119563500Y-98886500D02*
X113786500Y-98886500D01*
X113786500Y-98886500D02*
X113260500Y-98360500D01*
X113260500Y-98360500D02*
X113260500Y-97941500D01*
%TO.N,/CAN_-*%
X119756000Y-95726500D02*
X119756000Y-95306000D01*
X113260500Y-95639500D02*
X113260500Y-96041500D01*
X119756000Y-95306000D02*
X119556500Y-95106500D01*
X119556500Y-95106500D02*
X113793500Y-95106500D01*
X113793500Y-95106500D02*
X113260500Y-95639500D01*
D52*
%TO.N,/CAN_+*%
X121560500Y-97316500D02*
X120566749Y-97316500D01*
X120566749Y-97316500D02*
X120491749Y-97241500D01*
X120491749Y-97241500D02*
X119908500Y-97241500D01*
X119908500Y-97241500D02*
X119756000Y-97394000D01*
X119756000Y-97394000D02*
X119756000Y-98266500D01*
D53*
%TO.N,/USB_P_D-*%
X166163749Y-98600000D02*
X165674949Y-98111200D01*
X167157500Y-98600000D02*
X166163749Y-98600000D01*
%TO.N,/USB_P_D+*%
X167157500Y-96700000D02*
X166163749Y-96700000D01*
X166163749Y-96700000D02*
X165674949Y-97188800D01*
D52*
%TO.N,/CAN_-*%
X108974860Y-96769930D02*
G75*
G03*
X109182430Y-96562430I40J207530D01*
G01*
X108790000Y-96770000D02*
X108370000Y-96770000D01*
X109782441Y-96562429D02*
G75*
G03*
X109574860Y-96354859I-207541J29D01*
G01*
X109390000Y-96354830D02*
G75*
G03*
X109182430Y-96562429I0J-207570D01*
G01*
X109782400Y-96562430D02*
G75*
G03*
X109990000Y-96770000I207600J30D01*
G01*
X113260500Y-96041500D02*
X112338500Y-96041500D01*
X112338500Y-96041500D02*
X111610000Y-96770000D01*
X109782430Y-96562430D02*
X109782430Y-96562429D01*
X111610000Y-96770000D02*
X109990000Y-96770000D01*
X109574860Y-96354859D02*
X109390000Y-96354859D01*
X107936000Y-96336000D02*
X107936000Y-95525500D01*
X109182430Y-96562429D02*
X109182430Y-96562430D01*
X108974860Y-96770000D02*
X108790000Y-96770000D01*
X108370000Y-96770000D02*
X107936000Y-96336000D01*
%TO.N,/CAN_+*%
X113260500Y-97941500D02*
X112341500Y-97941500D01*
X112341500Y-97941500D02*
X111670000Y-97270000D01*
X111670000Y-97270000D02*
X108400000Y-97270000D01*
X108400000Y-97270000D02*
X107936000Y-97734000D01*
X107936000Y-97734000D02*
X107936000Y-99025500D01*
D55*
%TO.N,/USB_P_D+*%
X150372500Y-96787500D02*
X151397500Y-96787500D01*
X151397500Y-96787500D02*
X151790000Y-97180000D01*
X151790000Y-97180000D02*
X152310000Y-97180000D01*
%TO.N,/USB_P_D-*%
X151500000Y-97611815D02*
X151500000Y-97810000D01*
X151500000Y-97810000D02*
X151790000Y-98100000D01*
X151175685Y-97287500D02*
X151500000Y-97611815D01*
X151790000Y-98100000D02*
X152300000Y-98100000D01*
X150372500Y-97287500D02*
X151175685Y-97287500D01*
D56*
%TO.N,/USB_P_D+*%
X152310000Y-97180000D02*
X152662984Y-97180000D01*
X152671784Y-97188800D02*
X165674949Y-97188800D01*
X152662984Y-97180000D02*
X152671784Y-97188800D01*
%TO.N,/USB_P_D-*%
X165674949Y-98111200D02*
X152311200Y-98111200D01*
X152311200Y-98111200D02*
X152300000Y-98100000D01*
D54*
%TO.N,/USB_D+*%
X169432500Y-96700000D02*
X171315000Y-96700000D01*
X171315000Y-96700000D02*
X171620000Y-97005000D01*
%TO.N,/USB_D-*%
X171330000Y-98600000D02*
X171530000Y-98400000D01*
X169432500Y-98600000D02*
X171330000Y-98600000D01*
D53*
%TO.N,+5V*%
X173748000Y-106341500D02*
X172441500Y-106341500D01*
X172441500Y-106341500D02*
X169370000Y-103270000D01*
X169370000Y-103270000D02*
X169370000Y-103069500D01*
X169370000Y-100150000D02*
X169370000Y-103069500D01*
%TO.N,/VBUS*%
X172800000Y-95200000D02*
X170820000Y-95200000D01*
X172800000Y-100100000D02*
X170820000Y-100100000D01*
X170820000Y-100100000D02*
X170770000Y-100150000D01*
D52*
%TO.N,GND*%
X114050000Y-105100000D02*
X114050000Y-104075600D01*
D53*
X152962000Y-95977500D02*
X152198000Y-95977500D01*
X172800000Y-94400000D02*
X171570000Y-94400000D01*
X171320000Y-101250000D02*
X171670000Y-100900000D01*
X154898000Y-95916500D02*
X153698000Y-95916500D01*
D52*
X148460000Y-100841500D02*
X148460000Y-102200000D01*
X151469000Y-95787500D02*
X150372500Y-95787500D01*
X148460000Y-102200000D02*
X148460000Y-103933500D01*
D53*
X169432500Y-97650000D02*
X170820000Y-97650000D01*
X137410000Y-103229500D02*
X137731600Y-103229500D01*
X173474000Y-91554000D02*
X174303000Y-91554000D01*
X151519500Y-90420000D02*
X151540000Y-90420000D01*
X136998000Y-104791500D02*
X137010800Y-104804300D01*
X125448000Y-97476500D02*
X125033000Y-97476500D01*
D52*
X152198000Y-95977500D02*
X151659000Y-95977500D01*
X151659000Y-95977500D02*
X151469000Y-95787500D01*
D53*
X153023000Y-95916500D02*
X152962000Y-95977500D01*
X123640000Y-84560000D02*
X123750000Y-84670000D01*
X126338000Y-97471500D02*
X125453000Y-97471500D01*
D52*
X143960000Y-92480000D02*
X143880000Y-92400000D01*
X140198000Y-99081500D02*
X140608000Y-99081500D01*
D53*
X123750000Y-84670000D02*
X123750000Y-86585000D01*
D52*
X140608000Y-99081500D02*
X140902000Y-98787500D01*
D53*
X150044750Y-91894750D02*
X151519500Y-90420000D01*
X171670000Y-100900000D02*
X172800000Y-100900000D01*
D52*
X125453000Y-97471500D02*
X125448000Y-97476500D01*
X140902000Y-98787500D02*
X142047500Y-98787500D01*
D53*
X115571923Y-85225423D02*
X115223000Y-84876500D01*
D52*
X140962800Y-94306300D02*
X140198000Y-94306300D01*
D53*
X173470000Y-103746000D02*
X174275000Y-103746000D01*
X137027977Y-103611523D02*
X137410000Y-103229500D01*
X116096686Y-85225423D02*
X115571923Y-85225423D01*
X173788000Y-86967500D02*
X172878000Y-86967500D01*
X122480000Y-84580000D02*
X122480000Y-86585000D01*
X117763000Y-96991500D02*
X117768000Y-96996500D01*
D52*
X143398000Y-98787500D02*
X142047500Y-98787500D01*
D53*
X137010800Y-104804300D02*
X137731600Y-104804300D01*
X124873000Y-97316500D02*
X123835500Y-97316500D01*
D52*
X140998000Y-94341500D02*
X140962800Y-94306300D01*
D55*
X177198000Y-109791500D02*
X178798000Y-109791500D01*
D53*
X149005023Y-90094977D02*
X149005023Y-90685023D01*
X125033000Y-97476500D02*
X124873000Y-97316500D01*
X150100000Y-89000000D02*
X149005023Y-90094977D01*
X173470000Y-91550000D02*
X173474000Y-91554000D01*
D52*
X136558000Y-95954700D02*
X136558000Y-95481500D01*
D53*
X123673000Y-94716500D02*
X123673000Y-93591500D01*
D52*
X143960000Y-93875000D02*
X143960000Y-92480000D01*
D53*
X137027977Y-103771477D02*
X137027977Y-103611523D01*
D52*
X148460000Y-103933500D02*
X148518000Y-103991500D01*
D55*
X114050000Y-104075600D02*
X114034800Y-104060400D01*
D53*
X153698000Y-95916500D02*
X153023000Y-95916500D01*
D54*
%TO.N,/USB_D-*%
X173875000Y-97400000D02*
X174020000Y-97545000D01*
X174020000Y-98255000D02*
X173875000Y-98400000D01*
X173875000Y-98400000D02*
X172800000Y-98400000D01*
X172800000Y-98400000D02*
X171620000Y-98400000D01*
X171530000Y-98400000D02*
X172800000Y-98400000D01*
X174020000Y-97545000D02*
X174020000Y-98255000D01*
X172800000Y-97400000D02*
X173875000Y-97400000D01*
%TO.N,/USB_D+*%
X171620000Y-97005000D02*
X171620000Y-97795000D01*
X171725000Y-96900000D02*
X171620000Y-97005000D01*
X171725000Y-97900000D02*
X172800000Y-97900000D01*
X172800000Y-96900000D02*
X171725000Y-96900000D01*
X171620000Y-97795000D02*
X171725000Y-97900000D01*
D52*
%TO.N,/USB_CC2*%
X175323000Y-95047000D02*
X175323000Y-91554000D01*
X174470000Y-95900000D02*
X175323000Y-95047000D01*
X172800000Y-95900000D02*
X174470000Y-95900000D01*
%TO.N,/SW_BOOT0*%
X134241500Y-88000000D02*
X135091500Y-88850000D01*
X122100000Y-89650000D02*
X124290000Y-89650000D01*
X120300000Y-89650000D02*
X115906500Y-89650000D01*
X127410000Y-88000000D02*
X134241500Y-88000000D01*
X126690000Y-88720000D02*
X127410000Y-88000000D01*
X124290000Y-89650000D02*
X125220000Y-88720000D01*
X112223000Y-85966500D02*
X112223000Y-84876500D01*
X135091500Y-88850000D02*
X142488000Y-88850000D01*
X125220000Y-88720000D02*
X126690000Y-88720000D01*
X115906500Y-89650000D02*
X112223000Y-85966500D01*
%TO.N,/SWDIO*%
X155860000Y-81060000D02*
X154850000Y-80050000D01*
X121210000Y-80840000D02*
X121210000Y-82515000D01*
X149533959Y-96287500D02*
X150372500Y-96287500D01*
X155860000Y-82550000D02*
X155850000Y-82560000D01*
X155850000Y-87350161D02*
X149460000Y-93740161D01*
X122000000Y-80050000D02*
X121210000Y-80840000D01*
X155860000Y-82550000D02*
X155860000Y-81060000D01*
X149285000Y-96038541D02*
X149533959Y-96287500D01*
X149285000Y-95036459D02*
X149285000Y-96038541D01*
X154850000Y-80050000D02*
X122000000Y-80050000D01*
X149460000Y-93740161D02*
X149460000Y-94861459D01*
X155850000Y-82560000D02*
X155850000Y-87350161D01*
X149460000Y-94861459D02*
X149285000Y-95036459D01*
%TO.N,/SWCLK*%
X153320000Y-87430000D02*
X148960000Y-91790000D01*
X153010000Y-82550000D02*
X151110000Y-80650000D01*
X151110000Y-80650000D02*
X122800000Y-80650000D01*
X148960000Y-91790000D02*
X148960000Y-93875000D01*
X153320000Y-82550000D02*
X153320000Y-87430000D01*
X122800000Y-80650000D02*
X122480000Y-80970000D01*
X122480000Y-80970000D02*
X122480000Y-82515000D01*
X153320000Y-82550000D02*
X153010000Y-82550000D01*
%TO.N,/SPLIT_NODE*%
X118736000Y-98266500D02*
X118736000Y-97004500D01*
X118736000Y-95726500D02*
X118736000Y-96988500D01*
X118736000Y-97004500D02*
X118728000Y-96996500D01*
X118736000Y-96988500D02*
X118728000Y-96996500D01*
%TO.N,/SHDN*%
X122713000Y-94716500D02*
X122698000Y-94731500D01*
X121560500Y-94929000D02*
X121560500Y-96016500D01*
X123298000Y-103241500D02*
X125043000Y-103241500D01*
X122713000Y-94716500D02*
X121748000Y-94716500D01*
X121548000Y-94916500D02*
X121560500Y-94929000D01*
X122698000Y-94731500D02*
X122698000Y-102641500D01*
X122698000Y-102641500D02*
X123298000Y-103241500D01*
X121748000Y-94716500D02*
X121548000Y-94916500D01*
%TO.N,/RS*%
X120198000Y-104988000D02*
X123401500Y-108191500D01*
X120198000Y-101931500D02*
X120198000Y-100341500D01*
X123401500Y-108191500D02*
X124998000Y-108191500D01*
X121560500Y-98979000D02*
X121560500Y-97966500D01*
X120198000Y-100341500D02*
X121560500Y-98979000D01*
X120198000Y-101931500D02*
X120198000Y-104988000D01*
%TO.N,/PWR_LED_C*%
X174808000Y-86967500D02*
X174808000Y-88414000D01*
%TO.N,/PB7*%
X145960000Y-93875000D02*
X145960000Y-89510000D01*
X133002000Y-84345500D02*
X133002000Y-82543500D01*
X136306500Y-87650000D02*
X133002000Y-84345500D01*
X144100000Y-87650000D02*
X136306500Y-87650000D01*
X145960000Y-89510000D02*
X144100000Y-87650000D01*
%TO.N,/PB6*%
X144350000Y-86400000D02*
X140131500Y-86400000D01*
X140131500Y-86400000D02*
X138082000Y-84350500D01*
X138082000Y-84350500D02*
X138082000Y-82543500D01*
X146460000Y-88510000D02*
X144350000Y-86400000D01*
X146460000Y-93875000D02*
X146460000Y-88510000D01*
%TO.N,/PB5*%
X147060000Y-86910000D02*
X143162000Y-83012000D01*
X147060000Y-92522245D02*
X147060000Y-86910000D01*
X146960000Y-92622245D02*
X147060000Y-92522245D01*
X146960000Y-93875000D02*
X146960000Y-92622245D01*
X143162000Y-83012000D02*
X143162000Y-82543500D01*
%TO.N,/PB4*%
X148100000Y-85400000D02*
X148100000Y-88500000D01*
X147650000Y-92639352D02*
X147460000Y-92829352D01*
X148100000Y-88500000D02*
X147650000Y-88950000D01*
X145700000Y-82550000D02*
X145700000Y-83000000D01*
X145700000Y-83000000D02*
X148100000Y-85400000D01*
X147460000Y-92829352D02*
X147460000Y-93875000D01*
X147650000Y-88950000D02*
X147650000Y-92639352D01*
D55*
%TO.N,/MCU_nRST*%
X118050000Y-105200000D02*
X116910400Y-104060400D01*
X119140000Y-111750000D02*
X118725000Y-111750000D01*
X116910400Y-104060400D02*
X115965200Y-104060400D01*
X118050000Y-111075000D02*
X118050000Y-105200000D01*
X118725000Y-111750000D02*
X118050000Y-111075000D01*
%TO.N,/PB2*%
X154598000Y-108241500D02*
X158402000Y-112045500D01*
X149698000Y-108241500D02*
X154598000Y-108241500D01*
X146960000Y-102200000D02*
X146960000Y-105503500D01*
X158402000Y-112045500D02*
X158402000Y-113277500D01*
X146960000Y-105503500D02*
X149698000Y-108241500D01*
%TO.N,/PB11*%
X148250391Y-104691500D02*
X158148000Y-104691500D01*
X147910000Y-103053185D02*
X147910000Y-104351109D01*
X163482000Y-110025500D02*
X163482000Y-113277500D01*
X158148000Y-104691500D02*
X163482000Y-110025500D01*
X147910000Y-104351109D02*
X148250391Y-104691500D01*
X147960000Y-102200000D02*
X147960000Y-103003185D01*
X147960000Y-103003185D02*
X147910000Y-103053185D01*
%TO.N,/PB10*%
X147460000Y-104703500D02*
X149398000Y-106641500D01*
X149398000Y-106641500D02*
X156798000Y-106641500D01*
X160942000Y-110785500D02*
X160942000Y-113277500D01*
X156798000Y-106641500D02*
X160942000Y-110785500D01*
X147460000Y-102200000D02*
X147460000Y-104703500D01*
%TO.N,/PB1*%
X146460000Y-102200000D02*
X146460000Y-106353500D01*
X150048000Y-109941500D02*
X153598000Y-109941500D01*
X146460000Y-106353500D02*
X150048000Y-109941500D01*
X153598000Y-109941500D02*
X155862000Y-112205500D01*
X155862000Y-112205500D02*
X155862000Y-113277500D01*
%TO.N,/PB0*%
X145960000Y-102200000D02*
X145960000Y-107053500D01*
X145960000Y-107053500D02*
X150348000Y-111441500D01*
X152598000Y-111441500D02*
X153322000Y-112165500D01*
X153322000Y-112165500D02*
X153322000Y-113277500D01*
X150348000Y-111441500D02*
X152598000Y-111441500D01*
%TO.N,/PA7*%
X147198000Y-109541500D02*
X147198000Y-110741500D01*
X145460000Y-102200000D02*
X145460000Y-107803500D01*
X148242000Y-111785500D02*
X148242000Y-113277500D01*
X147198000Y-110741500D02*
X148242000Y-111785500D01*
X145460000Y-107803500D02*
X147198000Y-109541500D01*
%TO.N,/PA6*%
X144960000Y-105179500D02*
X144798000Y-105341500D01*
X145798000Y-109541500D02*
X145798000Y-113181500D01*
X144798000Y-108541500D02*
X145798000Y-109541500D01*
X145798000Y-113181500D02*
X145702000Y-113277500D01*
X144798000Y-105341500D02*
X144798000Y-108541500D01*
X144960000Y-102200000D02*
X144960000Y-105179500D01*
%TO.N,/PA5*%
X144460000Y-104479500D02*
X144098000Y-104841500D01*
X144098000Y-104841500D02*
X144098000Y-109591500D01*
X143162000Y-110527500D02*
X143162000Y-113277500D01*
X144098000Y-109591500D02*
X143162000Y-110527500D01*
X144460000Y-102200000D02*
X144460000Y-104479500D01*
%TO.N,/PA4*%
X143960000Y-102200000D02*
X143960000Y-103779500D01*
X143960000Y-103779500D02*
X143448000Y-104291500D01*
X143448000Y-104291500D02*
X143448000Y-107911500D01*
X143448000Y-107911500D02*
X138082000Y-113277500D01*
%TO.N,/PA3*%
X142798000Y-103791500D02*
X142798000Y-106241500D01*
X143448000Y-103141500D02*
X142798000Y-103791500D01*
X143448000Y-102212000D02*
X143460000Y-102200000D01*
X142798000Y-106241500D02*
X135762000Y-113277500D01*
X135762000Y-113277500D02*
X135542000Y-113277500D01*
X143448000Y-103141500D02*
X143448000Y-102212000D01*
D52*
%TO.N,/PA2*%
X141298000Y-105341500D02*
X139998000Y-106641500D01*
X142047500Y-100787500D02*
X142047500Y-101892000D01*
X142047500Y-101892000D02*
X141298000Y-102641500D01*
X141298000Y-102641500D02*
X141298000Y-105341500D01*
X139998000Y-106641500D02*
X136798000Y-106641500D01*
X133002000Y-110437500D02*
X133002000Y-113277500D01*
X136798000Y-106641500D02*
X133002000Y-110437500D01*
%TO.N,/HSE_OUT*%
X139452000Y-97787500D02*
X139090000Y-98149500D01*
X136563200Y-98149500D02*
X136558000Y-98154700D01*
X138146400Y-98149500D02*
X136563200Y-98149500D01*
X142047500Y-97787500D02*
X139452000Y-97787500D01*
X139090000Y-98149500D02*
X138146400Y-98149500D01*
%TO.N,/HSE_IN*%
X140619000Y-97287500D02*
X140373000Y-97041500D01*
X134858000Y-95954700D02*
X134858000Y-96726500D01*
X138146400Y-97026700D02*
X135158200Y-97026700D01*
X134858000Y-96726500D02*
X135158200Y-97026700D01*
X142047500Y-97287500D02*
X140619000Y-97287500D01*
X138161200Y-97041500D02*
X138146400Y-97026700D01*
X140373000Y-97041500D02*
X138161200Y-97041500D01*
%TO.N,/CAN_TX*%
X140970000Y-92540000D02*
X140471500Y-92041500D01*
X143144000Y-94962500D02*
X142723000Y-94541500D01*
X142723000Y-94117972D02*
X141145028Y-92540000D01*
X124110500Y-98241500D02*
X123835500Y-97966500D01*
X142723000Y-94541500D02*
X142723000Y-94117972D01*
X144211041Y-94962500D02*
X143144000Y-94962500D01*
X144460000Y-93875000D02*
X144460000Y-94713541D01*
X132757950Y-92041500D02*
X126557950Y-98241500D01*
X144460000Y-94713541D02*
X144211041Y-94962500D01*
X140471500Y-92041500D02*
X132757950Y-92041500D01*
X126557950Y-98241500D02*
X124110500Y-98241500D01*
X141145028Y-92540000D02*
X140970000Y-92540000D01*
%TO.N,/CAN_SHDN*%
X139398000Y-94121500D02*
X138118000Y-92841500D01*
X139825035Y-95896300D02*
X139398000Y-95469265D01*
X139398000Y-95469265D02*
X139398000Y-94121500D01*
X140570965Y-95896300D02*
X139825035Y-95896300D01*
X142047500Y-95787500D02*
X140679765Y-95787500D01*
X140679765Y-95787500D02*
X140570965Y-95896300D01*
X133348000Y-92841500D02*
X130353000Y-95836500D01*
X130353000Y-95836500D02*
X130353000Y-103241500D01*
X138118000Y-92841500D02*
X133348000Y-92841500D01*
%TO.N,/CAN_RX*%
X143550611Y-89800000D02*
X132600000Y-89800000D01*
X144960000Y-92953500D02*
X144698000Y-92691500D01*
X144960000Y-93875000D02*
X144960000Y-92953500D01*
X123998000Y-95391500D02*
X123835500Y-95554000D01*
X144698000Y-92691500D02*
X144698000Y-90947389D01*
X123835500Y-95554000D02*
X123835500Y-96016500D01*
X130300000Y-92100000D02*
X127008500Y-95391500D01*
X132600000Y-89800000D02*
X131700000Y-90700000D01*
X144698000Y-90947389D02*
X143550611Y-89800000D01*
X127008500Y-95391500D02*
X123998000Y-95391500D01*
%TO.N,/CAN_RS*%
X138798000Y-94851550D02*
X138798000Y-95641500D01*
X139552800Y-96396300D02*
X140778071Y-96396300D01*
X133948000Y-93541500D02*
X137487950Y-93541500D01*
X130308000Y-108191500D02*
X130308000Y-106531500D01*
X140886872Y-96287500D02*
X142047500Y-96287500D01*
X140778071Y-96396300D02*
X140886872Y-96287500D01*
X138798000Y-95641500D02*
X139552800Y-96396300D01*
X131998000Y-95491500D02*
X133948000Y-93541500D01*
X131998000Y-104841500D02*
X131998000Y-95491500D01*
X130308000Y-106531500D02*
X131998000Y-104841500D01*
X137487950Y-93541500D02*
X138798000Y-94851550D01*
%TO.N,/BOOT0*%
X145460000Y-92746394D02*
X145398000Y-92684394D01*
X145460000Y-93875000D02*
X145460000Y-92746394D01*
X145398000Y-90348000D02*
X143900000Y-88850000D01*
X143900000Y-88850000D02*
X143508000Y-88850000D01*
X145398000Y-92684394D02*
X145398000Y-90348000D01*
%TO.N,+3.3VA*%
X141208959Y-99287500D02*
X142047500Y-99287500D01*
X140948000Y-99741500D02*
X140948000Y-99548459D01*
D53*
X140114000Y-103204000D02*
X138717100Y-103204000D01*
D52*
X140648000Y-100041500D02*
X140948000Y-99741500D01*
X140198000Y-100041500D02*
X140648000Y-100041500D01*
D53*
X138717100Y-103204000D02*
X138691600Y-103229500D01*
D52*
X140948000Y-99548459D02*
X141208959Y-99287500D01*
D53*
X140198000Y-103120000D02*
X140198000Y-100041500D01*
D52*
%TO.N,+3.3V*%
X140198000Y-95266300D02*
X142026300Y-95266300D01*
D53*
X155362299Y-105835500D02*
X154192299Y-105835500D01*
X138691600Y-104804300D02*
X140088700Y-104804300D01*
D55*
X148960000Y-103103500D02*
X149478000Y-103621500D01*
D53*
X124873000Y-96666500D02*
X123835500Y-96666500D01*
D55*
X149478000Y-103621500D02*
X149478000Y-103991500D01*
D53*
X166022000Y-82543500D02*
X166022000Y-84167500D01*
X167348000Y-103941500D02*
X149528000Y-103941500D01*
X140198000Y-92841500D02*
X139398000Y-92841500D01*
D52*
X115965200Y-102739600D02*
X117000000Y-102739600D01*
D53*
X113256500Y-90650000D02*
X110723000Y-88116500D01*
X154192299Y-105835500D02*
X154162299Y-105805500D01*
X140088700Y-104804300D02*
X140114000Y-104779000D01*
D52*
X143460000Y-93160000D02*
X143460000Y-93875000D01*
D53*
X127650000Y-105100000D02*
X128058500Y-104691500D01*
X132497996Y-91241500D02*
X139398000Y-91241500D01*
X110723000Y-88116500D02*
X110723000Y-84876500D01*
X117000000Y-102739600D02*
X118289600Y-102739600D01*
D52*
X141198000Y-93441500D02*
X142047500Y-94291000D01*
D53*
X131672998Y-92066498D02*
X132497996Y-91241500D01*
X160942000Y-82543500D02*
X160942000Y-84185500D01*
X129407952Y-97422048D02*
X128548000Y-98282000D01*
X128548000Y-98282000D02*
X128548000Y-104691500D01*
D52*
X142026300Y-95266300D02*
X142047500Y-95287500D01*
D53*
X160952000Y-84175500D02*
X163482000Y-84175500D01*
X133968023Y-104711523D02*
X132358069Y-106321477D01*
X140771500Y-91241500D02*
X141224000Y-91694000D01*
X142356500Y-92400000D02*
X142920000Y-92400000D01*
X141198000Y-93441500D02*
X140798000Y-93441500D01*
X131672998Y-92066498D02*
X130256500Y-90650000D01*
X139398000Y-91241500D02*
X140771500Y-91241500D01*
X118975000Y-105775000D02*
X123350000Y-110150000D01*
X166014000Y-84175500D02*
X166022000Y-84167500D01*
X131672998Y-92066498D02*
X131672998Y-92066502D01*
X121210000Y-90640000D02*
X121200000Y-90650000D01*
D52*
X115275000Y-105600000D02*
X116050000Y-105600000D01*
X115965200Y-102739600D02*
X115260400Y-102739600D01*
D53*
X173310500Y-89404000D02*
X173648000Y-89741500D01*
X173310500Y-88491500D02*
X173310500Y-89404000D01*
D52*
X142920000Y-92620000D02*
X143460000Y-93160000D01*
D53*
X135027977Y-105771477D02*
X138220123Y-105771477D01*
X163482000Y-84175500D02*
X166014000Y-84175500D01*
X125023000Y-96516500D02*
X124873000Y-96666500D01*
X128058500Y-104691500D02*
X128548000Y-104691500D01*
D52*
X151402000Y-95287500D02*
X150372500Y-95287500D01*
D53*
X130256500Y-90650000D02*
X121200000Y-90650000D01*
X141998000Y-92041500D02*
X142356500Y-92400000D01*
X160942000Y-84185500D02*
X160952000Y-84175500D01*
X178148000Y-107491500D02*
X177198000Y-107491500D01*
D52*
X115260400Y-102739600D02*
X115000000Y-103000000D01*
D53*
X141224000Y-91694000D02*
X141650500Y-91694000D01*
D52*
X142920000Y-92400000D02*
X142920000Y-92620000D01*
D55*
X148960000Y-102200000D02*
X148960000Y-103103500D01*
D53*
X177198000Y-107491500D02*
X170898000Y-107491500D01*
X121200000Y-90650000D02*
X113256500Y-90650000D01*
X157216201Y-105835500D02*
X155362299Y-105835500D01*
X128548000Y-104691500D02*
X129098000Y-105241500D01*
X170898000Y-107491500D02*
X167348000Y-103941500D01*
X129407952Y-96451452D02*
X129407952Y-97422048D01*
X157635701Y-105416000D02*
X157216201Y-105835500D01*
X163482000Y-82543500D02*
X163482000Y-84175500D01*
X138691600Y-105300000D02*
X138691600Y-104804300D01*
D52*
X115000000Y-105325000D02*
X115275000Y-105600000D01*
D53*
X128348002Y-95391498D02*
X128347998Y-95391498D01*
X149528000Y-103941500D02*
X149478000Y-103991500D01*
X140798000Y-93441500D02*
X140198000Y-92841500D01*
X138220123Y-105771477D02*
X138691600Y-105300000D01*
X125448000Y-96516500D02*
X125023000Y-96516500D01*
X141650500Y-91694000D02*
X141998000Y-92041500D01*
X128347998Y-95391498D02*
X127222996Y-96516500D01*
X131672998Y-92066502D02*
X128348002Y-95391498D01*
X127222996Y-96516500D02*
X125448000Y-96516500D01*
X121210000Y-86585000D02*
X121210000Y-90640000D01*
X123350000Y-110150000D02*
X126800000Y-110150000D01*
X129098000Y-105241500D02*
X130498000Y-105241500D01*
X158298000Y-86829500D02*
X158298000Y-89741500D01*
X160942000Y-84185500D02*
X158298000Y-86829500D01*
X179250000Y-91293500D02*
X179250000Y-106389500D01*
X118975000Y-103425000D02*
X118975000Y-105775000D01*
X118289600Y-102739600D02*
X118975000Y-103425000D01*
X126800000Y-110150000D02*
X127650000Y-109300000D01*
D52*
X142047500Y-94291000D02*
X142047500Y-95287500D01*
D53*
X132358069Y-106321477D02*
X131577977Y-106321477D01*
X179250000Y-106389500D02*
X178148000Y-107491500D01*
X173648000Y-89741500D02*
X177698000Y-89741500D01*
X127650000Y-109300000D02*
X127650000Y-105100000D01*
X177698000Y-89741500D02*
X179250000Y-91293500D01*
D52*
X115000000Y-103000000D02*
X115000000Y-105325000D01*
D53*
X160942000Y-84185500D02*
X160948000Y-84191500D01*
%TO.N,/USR_LED_C*%
X155485500Y-100791500D02*
X156888000Y-100791500D01*
D52*
%TO.N,/PB12*%
X153906500Y-100787500D02*
X153910500Y-100791500D01*
X150372500Y-100787500D02*
X153906500Y-100787500D01*
D53*
%TO.N,+5V*%
X168270000Y-95650000D02*
X168770000Y-95150000D01*
X172798000Y-115341500D02*
X171098000Y-115341500D01*
X168562000Y-113277500D02*
X168562000Y-115327500D01*
X168548000Y-115341500D02*
X113698000Y-115341500D01*
X168770000Y-100150000D02*
X168270000Y-99650000D01*
X171102000Y-115337500D02*
X171098000Y-115341500D01*
X167157500Y-97650000D02*
X168220000Y-97650000D01*
X173748000Y-108541500D02*
X173748000Y-114391500D01*
X113698000Y-115341500D02*
X113148000Y-114791500D01*
X108748000Y-111091500D02*
X107936000Y-110279500D01*
X175648000Y-105191500D02*
X177198000Y-105191500D01*
X168270000Y-99650000D02*
X168270000Y-95650000D01*
X168562000Y-115327500D02*
X168548000Y-115341500D01*
X171098000Y-115341500D02*
X168548000Y-115341500D01*
X174498000Y-106341500D02*
X175648000Y-105191500D01*
X113148000Y-111691500D02*
X112548000Y-111091500D01*
X173748000Y-114391500D02*
X172798000Y-115341500D01*
X107936000Y-110279500D02*
X107936000Y-102525500D01*
X173748000Y-106341500D02*
X174498000Y-106341500D01*
X171102000Y-113277500D02*
X171102000Y-115337500D01*
X112548000Y-111091500D02*
X108748000Y-111091500D01*
X168770000Y-95150000D02*
X169370000Y-95150000D01*
X169370000Y-100150000D02*
X168770000Y-100150000D01*
X113148000Y-114791500D02*
X113148000Y-111691500D01*
D52*
%TO.N,/SWO*%
X148241500Y-92754959D02*
X148241500Y-89858500D01*
X148241500Y-89858500D02*
X149200000Y-88900000D01*
X131780000Y-81270000D02*
X128550000Y-84500000D01*
X123750000Y-83540000D02*
X123750000Y-82515000D01*
X128550000Y-84500000D02*
X124710000Y-84500000D01*
X149200000Y-88900000D02*
X149200000Y-83501500D01*
X148240000Y-82550000D02*
X146960000Y-81270000D01*
X149200000Y-83501500D02*
X148242000Y-82543500D01*
X124710000Y-84500000D02*
X123750000Y-83540000D01*
X147960000Y-93875000D02*
X147960000Y-93036459D01*
X147960000Y-93036459D02*
X148241500Y-92754959D01*
X146960000Y-81270000D02*
X131780000Y-81270000D01*
%TO.N,/DB_nRST*%
X127615000Y-82515000D02*
X128500000Y-83400000D01*
X107300000Y-100750000D02*
X112950000Y-100750000D01*
X126899500Y-92100000D02*
X110400000Y-92100000D01*
X108600000Y-93900000D02*
X107300000Y-93900000D01*
X129650000Y-88800000D02*
X129080000Y-88800000D01*
X112950000Y-100750000D02*
X114034800Y-101834800D01*
X129650000Y-84550000D02*
X129650000Y-87200000D01*
X128130000Y-89750000D02*
X127500000Y-89750000D01*
X114034800Y-101834800D02*
X114034800Y-102739600D01*
X127500000Y-91499500D02*
X126899500Y-92100000D01*
X106150000Y-99600000D02*
X107300000Y-100750000D01*
X106150000Y-95050000D02*
X106150000Y-99600000D01*
X107300000Y-93900000D02*
X106150000Y-95050000D01*
X126290000Y-82515000D02*
X127615000Y-82515000D01*
X129080000Y-88800000D02*
X128130000Y-89750000D01*
X110400000Y-92100000D02*
X108600000Y-93900000D01*
%TO.N,/NRST*%
X132298000Y-109241500D02*
X130289500Y-111250000D01*
X138350000Y-101389500D02*
X138350000Y-101472965D01*
X142047500Y-98287500D02*
X139852000Y-98287500D01*
X120605000Y-111750000D02*
X120160000Y-111750000D01*
X130289500Y-111250000D02*
X121105000Y-111250000D01*
X139198000Y-100541500D02*
X138350000Y-101389500D01*
X132298000Y-107441500D02*
X132298000Y-109241500D01*
X139198000Y-98941500D02*
X139198000Y-100541500D01*
X121105000Y-111250000D02*
X120605000Y-111750000D01*
X137979500Y-101760000D02*
X132298000Y-107441500D01*
X139852000Y-98287500D02*
X139198000Y-98941500D01*
X138350000Y-101472965D02*
X138062965Y-101760000D01*
X138062965Y-101760000D02*
X137979500Y-101760000D01*
%TO.N,/USR_nRST*%
X114034800Y-103400000D02*
X113300000Y-103400000D01*
X116330000Y-107580000D02*
X116050000Y-107300000D01*
X114270000Y-106620000D02*
X116050000Y-106620000D01*
X116050000Y-107300000D02*
X116050000Y-106620000D01*
X113300000Y-103400000D02*
X113100600Y-103599400D01*
X113100600Y-105450600D02*
X114270000Y-106620000D01*
X113100600Y-103599400D02*
X113100600Y-105450600D01*
X109823000Y-108991500D02*
X116323000Y-108991500D01*
X116330000Y-108990000D02*
X116330000Y-107580000D01*
%TD*%
%TA.AperFunction,Conductor*%
%TO.N,GND*%
G36*
X137317023Y-94011685D02*
G01*
X137337665Y-94028319D01*
X138311181Y-95001835D01*
X138344666Y-95063158D01*
X138347500Y-95089516D01*
X138347500Y-95612717D01*
X138347110Y-95619655D01*
X138346664Y-95623618D01*
X138342729Y-95658536D01*
X138353571Y-95715835D01*
X138353959Y-95718119D01*
X138362652Y-95775791D01*
X138365162Y-95783927D01*
X138367976Y-95791970D01*
X138395229Y-95843536D01*
X138396274Y-95845605D01*
X138421574Y-95898142D01*
X138426362Y-95905165D01*
X138431431Y-95912032D01*
X138431434Y-95912038D01*
X138431438Y-95912042D01*
X138472667Y-95953271D01*
X138474276Y-95954941D01*
X138513947Y-95997696D01*
X138521210Y-96003488D01*
X138520689Y-96004141D01*
X138532930Y-96013534D01*
X138561681Y-96042285D01*
X138595166Y-96103608D01*
X138598000Y-96129966D01*
X138598000Y-96343784D01*
X138578315Y-96410823D01*
X138525511Y-96456578D01*
X138456353Y-96466522D01*
X138433046Y-96460826D01*
X138399222Y-96448990D01*
X138399214Y-96448989D01*
X138369470Y-96446200D01*
X138369466Y-96446200D01*
X137923334Y-96446200D01*
X137923330Y-96446200D01*
X137893585Y-96448989D01*
X137893573Y-96448991D01*
X137768244Y-96492847D01*
X137688136Y-96551970D01*
X137622507Y-96575941D01*
X137614502Y-96576200D01*
X135882500Y-96576200D01*
X135815461Y-96556515D01*
X135769706Y-96503711D01*
X135758500Y-96452200D01*
X135758499Y-95209843D01*
X135758499Y-95209836D01*
X135758497Y-95209817D01*
X135755586Y-95184712D01*
X135755585Y-95184710D01*
X135755585Y-95184709D01*
X135710206Y-95081935D01*
X135630765Y-95002494D01*
X135629273Y-95001835D01*
X135527992Y-94957115D01*
X135502865Y-94954200D01*
X134213143Y-94954200D01*
X134213117Y-94954202D01*
X134188012Y-94957113D01*
X134188008Y-94957115D01*
X134085235Y-95002493D01*
X134005794Y-95081934D01*
X133960415Y-95184706D01*
X133960415Y-95184708D01*
X133957500Y-95209831D01*
X133957500Y-96699556D01*
X133957502Y-96699582D01*
X133960413Y-96724687D01*
X133960415Y-96724691D01*
X134005793Y-96827464D01*
X134005794Y-96827465D01*
X134085235Y-96906906D01*
X134188009Y-96952285D01*
X134213135Y-96955200D01*
X134398232Y-96955199D01*
X134465272Y-96974883D01*
X134485914Y-96991518D01*
X134532665Y-97038269D01*
X134534258Y-97039921D01*
X134567313Y-97075546D01*
X134573947Y-97082696D01*
X134581210Y-97088488D01*
X134580689Y-97089141D01*
X134592930Y-97098534D01*
X134819298Y-97324901D01*
X134823926Y-97330080D01*
X134848321Y-97360670D01*
X134848323Y-97360672D01*
X134896521Y-97393533D01*
X134898412Y-97394875D01*
X134945318Y-97429493D01*
X134952854Y-97433476D01*
X134960519Y-97437167D01*
X134960527Y-97437172D01*
X134987321Y-97445436D01*
X135016289Y-97454372D01*
X135018484Y-97455094D01*
X135073501Y-97474346D01*
X135073505Y-97474346D01*
X135081879Y-97475930D01*
X135090296Y-97477199D01*
X135090298Y-97477200D01*
X135148622Y-97477200D01*
X135150905Y-97477242D01*
X135209210Y-97479424D01*
X135218444Y-97478384D01*
X135218537Y-97479213D01*
X135233836Y-97477200D01*
X135533500Y-97477200D01*
X135600539Y-97496885D01*
X135646294Y-97549689D01*
X135657500Y-97601200D01*
X135657500Y-98899556D01*
X135657502Y-98899582D01*
X135660413Y-98924687D01*
X135660415Y-98924691D01*
X135705793Y-99027464D01*
X135705794Y-99027465D01*
X135785235Y-99106906D01*
X135888009Y-99152285D01*
X135913135Y-99155200D01*
X137202864Y-99155199D01*
X137202879Y-99155197D01*
X137202882Y-99155197D01*
X137227987Y-99152286D01*
X137227988Y-99152285D01*
X137227991Y-99152285D01*
X137330765Y-99106906D01*
X137410206Y-99027465D01*
X137455585Y-98924691D01*
X137458309Y-98901209D01*
X137485588Y-98836886D01*
X137543313Y-98797521D01*
X137581483Y-98791500D01*
X137598000Y-98791500D01*
X138623500Y-98791500D01*
X138690539Y-98811185D01*
X138736294Y-98863989D01*
X138747500Y-98915500D01*
X138747500Y-98931920D01*
X138747457Y-98934205D01*
X138746614Y-98956741D01*
X138745275Y-98992510D01*
X138746316Y-99001743D01*
X138745485Y-99001836D01*
X138747500Y-99017135D01*
X138747500Y-100303535D01*
X138727815Y-100370574D01*
X138711181Y-100391216D01*
X138649216Y-100453181D01*
X138587893Y-100486666D01*
X138561535Y-100489500D01*
X138486930Y-100489500D01*
X138457185Y-100492289D01*
X138457173Y-100492291D01*
X138331844Y-100536147D01*
X138225001Y-100615001D01*
X138146147Y-100721844D01*
X138102291Y-100847173D01*
X138102289Y-100847185D01*
X138099500Y-100876929D01*
X138099500Y-100951534D01*
X138079815Y-101018573D01*
X138063176Y-101039220D01*
X138051801Y-101050594D01*
X138046617Y-101055227D01*
X138016033Y-101079617D01*
X138016030Y-101079621D01*
X137983171Y-101127813D01*
X137981832Y-101129700D01*
X137947206Y-101176618D01*
X137943216Y-101184167D01*
X137939528Y-101191825D01*
X137924279Y-101241261D01*
X137893469Y-101292391D01*
X137890090Y-101295770D01*
X137852490Y-101318434D01*
X137853550Y-101320637D01*
X137852143Y-101321314D01*
X137842387Y-101324523D01*
X137838996Y-101326568D01*
X137837069Y-101327162D01*
X137829029Y-101329976D01*
X137777461Y-101357230D01*
X137775392Y-101358275D01*
X137722857Y-101383574D01*
X137715838Y-101388359D01*
X137708960Y-101393435D01*
X137667739Y-101434656D01*
X137666071Y-101436263D01*
X137623304Y-101475946D01*
X137617513Y-101483208D01*
X137616862Y-101482688D01*
X137607467Y-101494928D01*
X136697215Y-102405181D01*
X136635892Y-102438666D01*
X136609534Y-102441500D01*
X132951336Y-102441500D01*
X132884297Y-102421815D01*
X132861318Y-102402780D01*
X132482481Y-102002896D01*
X132450665Y-101940691D01*
X132448499Y-101917623D01*
X132448499Y-95729465D01*
X132468184Y-95662427D01*
X132484818Y-95641785D01*
X134098285Y-94028319D01*
X134159608Y-93994834D01*
X134185966Y-93992000D01*
X137249984Y-93992000D01*
X137317023Y-94011685D01*
G37*
%TD.AperFunction*%
%TD*%
%TA.AperFunction,Conductor*%
%TO.N,+5V*%
G36*
X167772453Y-86466685D02*
G01*
X167798000Y-86488514D01*
X169266772Y-88137135D01*
X169296669Y-88200285D01*
X169298186Y-88219572D01*
X169299999Y-92841498D01*
X169726564Y-93468493D01*
X169747998Y-93534994D01*
X169748041Y-93538107D01*
X169749970Y-95293315D01*
X169739049Y-95344335D01*
X169692901Y-95446885D01*
X169647442Y-95499942D01*
X169580513Y-95519998D01*
X169579824Y-95520000D01*
X169137741Y-95520000D01*
X169070702Y-95500315D01*
X169033399Y-95462998D01*
X168967658Y-95360614D01*
X168948000Y-95293616D01*
X168948000Y-94141500D01*
X168118216Y-92872418D01*
X168098004Y-92805536D01*
X168098000Y-92804559D01*
X168098000Y-90241500D01*
X167698000Y-89741500D01*
X166549362Y-89741500D01*
X166482323Y-89721815D01*
X166461681Y-89705181D01*
X166339818Y-89583318D01*
X166306333Y-89521995D01*
X166303499Y-89495637D01*
X166303500Y-88901097D01*
X166299479Y-88851691D01*
X166292993Y-88812113D01*
X166288195Y-88788644D01*
X166241835Y-88686392D01*
X166201783Y-88629143D01*
X166142306Y-88565715D01*
X165782841Y-88278143D01*
X165776533Y-88273359D01*
X165762895Y-88263562D01*
X165670737Y-88218560D01*
X165608500Y-88200285D01*
X165603702Y-88198876D01*
X165603700Y-88198875D01*
X165603698Y-88198875D01*
X165517626Y-88186499D01*
X165517623Y-88186499D01*
X163692377Y-88186499D01*
X163625338Y-88166814D01*
X163579583Y-88114010D01*
X163577772Y-88109845D01*
X163573311Y-88099048D01*
X163548462Y-88038897D01*
X163510372Y-87980322D01*
X163510371Y-87980321D01*
X163510370Y-87980319D01*
X163484299Y-87950557D01*
X163453077Y-87914913D01*
X163399450Y-87868947D01*
X163246802Y-87738105D01*
X163208712Y-87679530D01*
X163203500Y-87643957D01*
X163203500Y-86939041D01*
X163223185Y-86872002D01*
X163246798Y-86844896D01*
X163676182Y-86476852D01*
X163739894Y-86448169D01*
X163756881Y-86447000D01*
X167705414Y-86447000D01*
X167772453Y-86466685D01*
G37*
%TD.AperFunction*%
%TD*%
%TA.AperFunction,Conductor*%
%TO.N,GND*%
G36*
X118041039Y-95526685D02*
G01*
X118086794Y-95579489D01*
X118098000Y-95631000D01*
X118098000Y-96069968D01*
X118078315Y-96137007D01*
X118048453Y-96169129D01*
X118017999Y-96191994D01*
X118018000Y-96746500D01*
X118017999Y-97801004D01*
X118048452Y-97823869D01*
X118090243Y-97879862D01*
X118098000Y-97923030D01*
X118098000Y-98362000D01*
X118078315Y-98429039D01*
X118025511Y-98474794D01*
X117974000Y-98486000D01*
X114472000Y-98486000D01*
X114404961Y-98466315D01*
X114359206Y-98413511D01*
X114348000Y-98362000D01*
X114348000Y-97246500D01*
X116989210Y-97246500D01*
X116990854Y-97267410D01*
X117035968Y-97422695D01*
X117118278Y-97561874D01*
X117118285Y-97561883D01*
X117232616Y-97676214D01*
X117232625Y-97676221D01*
X117371804Y-97758531D01*
X117518000Y-97801004D01*
X117518000Y-97246500D01*
X116989210Y-97246500D01*
X114348000Y-97246500D01*
X114348000Y-96746499D01*
X116989209Y-96746499D01*
X116989210Y-96746500D01*
X117517999Y-96746500D01*
X117518000Y-96191994D01*
X117517998Y-96191993D01*
X117371809Y-96234465D01*
X117371806Y-96234467D01*
X117232625Y-96316778D01*
X117232616Y-96316785D01*
X117118285Y-96431116D01*
X117118278Y-96431125D01*
X117035968Y-96570304D01*
X117035966Y-96570309D01*
X116990855Y-96725581D01*
X116990854Y-96725587D01*
X116989209Y-96746499D01*
X114348000Y-96746499D01*
X114348000Y-95631000D01*
X114367685Y-95563961D01*
X114420489Y-95518206D01*
X114472000Y-95507000D01*
X117974000Y-95507000D01*
X118041039Y-95526685D01*
G37*
%TD.AperFunction*%
%TD*%
%TA.AperFunction,Conductor*%
%TO.N,GND*%
G36*
X143379684Y-90270185D02*
G01*
X143400326Y-90286819D01*
X144211181Y-91097673D01*
X144244666Y-91158996D01*
X144247500Y-91185354D01*
X144247500Y-92662718D01*
X144247110Y-92669654D01*
X144245611Y-92682962D01*
X144244831Y-92689886D01*
X144217763Y-92754300D01*
X144160167Y-92793853D01*
X144121611Y-92800000D01*
X143788465Y-92800000D01*
X143721426Y-92780315D01*
X143700784Y-92763681D01*
X143536819Y-92599716D01*
X143503334Y-92538393D01*
X143500500Y-92512035D01*
X143500500Y-92176929D01*
X143497710Y-92147185D01*
X143497710Y-92147181D01*
X143497708Y-92147177D01*
X143497708Y-92147173D01*
X143453852Y-92021844D01*
X143453852Y-92021843D01*
X143374999Y-91915001D01*
X143268157Y-91836148D01*
X143268155Y-91836147D01*
X143142826Y-91792291D01*
X143142814Y-91792289D01*
X143113070Y-91789500D01*
X143113066Y-91789500D01*
X142737206Y-91789500D01*
X142670167Y-91769815D01*
X142626912Y-91719896D01*
X142626306Y-91720215D01*
X142624950Y-91717632D01*
X142624412Y-91717011D01*
X142623586Y-91715034D01*
X142622818Y-91713570D01*
X142538213Y-91591000D01*
X142526183Y-91573571D01*
X142398852Y-91460766D01*
X142398849Y-91460763D01*
X142248226Y-91381710D01*
X142107287Y-91346972D01*
X142049281Y-91314256D01*
X142047130Y-91312105D01*
X142045688Y-91310612D01*
X142001182Y-91262958D01*
X142001177Y-91262954D01*
X141963361Y-91239957D01*
X141958110Y-91236383D01*
X141922841Y-91209638D01*
X141922842Y-91209638D01*
X141906142Y-91203052D01*
X141887216Y-91193652D01*
X141871880Y-91184327D01*
X141829258Y-91172384D01*
X141823240Y-91170360D01*
X141782065Y-91154124D01*
X141782056Y-91154122D01*
X141764216Y-91152288D01*
X141743451Y-91148342D01*
X141726169Y-91143500D01*
X141726165Y-91143500D01*
X141681906Y-91143500D01*
X141675564Y-91143175D01*
X141647927Y-91140333D01*
X141631529Y-91138648D01*
X141631524Y-91138648D01*
X141613844Y-91141697D01*
X141592776Y-91143500D01*
X141503387Y-91143500D01*
X141436348Y-91123815D01*
X141415706Y-91107181D01*
X141168157Y-90859632D01*
X141166685Y-90858109D01*
X141133375Y-90822442D01*
X141102004Y-90760012D01*
X141100000Y-90737807D01*
X141100000Y-90374500D01*
X141119685Y-90307461D01*
X141172489Y-90261706D01*
X141224000Y-90250500D01*
X143312645Y-90250500D01*
X143379684Y-90270185D01*
G37*
%TD.AperFunction*%
%TD*%
%TA.AperFunction,Conductor*%
%TO.N,GND*%
G36*
X166462448Y-90034377D02*
G01*
X166463283Y-90034622D01*
X166463290Y-90034624D01*
X166549362Y-90047000D01*
X167491572Y-90047000D01*
X167558611Y-90066685D01*
X167588400Y-90093538D01*
X167765328Y-90314697D01*
X167791836Y-90379342D01*
X167792500Y-90392159D01*
X167792500Y-92326538D01*
X167772815Y-92393577D01*
X167759907Y-92410328D01*
X167034859Y-93201290D01*
X166975048Y-93237407D01*
X166943452Y-93241500D01*
X163698000Y-93241500D01*
X163298000Y-93841499D01*
X163298000Y-95616048D01*
X163287974Y-95664894D01*
X163030209Y-96266346D01*
X162985708Y-96320211D01*
X162919150Y-96341466D01*
X162916235Y-96341500D01*
X162379765Y-96341500D01*
X162312726Y-96321815D01*
X162266971Y-96269011D01*
X162265791Y-96266346D01*
X162008026Y-95664893D01*
X161998000Y-95616047D01*
X161998000Y-92185839D01*
X162017685Y-92118800D01*
X162036126Y-92096387D01*
X162884917Y-91281548D01*
X162946911Y-91249321D01*
X162970791Y-91247000D01*
X165654821Y-91247000D01*
X165655841Y-91246945D01*
X165671162Y-91246124D01*
X165705655Y-91242415D01*
X165712660Y-91241580D01*
X165819407Y-91206797D01*
X165880730Y-91173312D01*
X165950340Y-91121202D01*
X166183488Y-90888054D01*
X166194424Y-90875879D01*
X166216192Y-90848866D01*
X166220553Y-90843325D01*
X166271439Y-90743249D01*
X166291124Y-90676210D01*
X166303500Y-90590138D01*
X166303500Y-90153350D01*
X166323185Y-90086311D01*
X166375989Y-90040556D01*
X166445147Y-90030612D01*
X166462448Y-90034377D01*
G37*
%TD.AperFunction*%
%TD*%
%TA.AperFunction,Conductor*%
%TO.N,+3.3V*%
G36*
X167209962Y-83961185D02*
G01*
X167234926Y-83982365D01*
X170948000Y-88091500D01*
X173374000Y-88091500D01*
X173441039Y-88111185D01*
X173486794Y-88163989D01*
X173498000Y-88215500D01*
X173498000Y-88767500D01*
X173478315Y-88834539D01*
X173425511Y-88880294D01*
X173374000Y-88891500D01*
X170403601Y-88891500D01*
X170336562Y-88871815D01*
X170311015Y-88849986D01*
X169412545Y-87841500D01*
X167898000Y-86141500D01*
X167897999Y-86141500D01*
X163598002Y-86141500D01*
X163598000Y-86141500D01*
X163597999Y-86141500D01*
X163597998Y-86141501D01*
X162898000Y-86741500D01*
X162898000Y-87841500D01*
X163175091Y-88079006D01*
X163254260Y-88146866D01*
X163292350Y-88205441D01*
X163297355Y-88233846D01*
X163297501Y-88236371D01*
X163300414Y-88261488D01*
X163300415Y-88261491D01*
X163345793Y-88364264D01*
X163345794Y-88364265D01*
X163425235Y-88443706D01*
X163528009Y-88489085D01*
X163553135Y-88492000D01*
X165517626Y-88491999D01*
X165584665Y-88511684D01*
X165595088Y-88519171D01*
X165773275Y-88661719D01*
X165951462Y-88804270D01*
X165991514Y-88861519D01*
X165998000Y-88901097D01*
X165998000Y-90590138D01*
X165978315Y-90657177D01*
X165961681Y-90677819D01*
X165734319Y-90905181D01*
X165672996Y-90938666D01*
X165646638Y-90941500D01*
X162798000Y-90941500D01*
X161548000Y-92141499D01*
X161548000Y-95290138D01*
X161528315Y-95357177D01*
X161511681Y-95377819D01*
X160834319Y-96055181D01*
X160772996Y-96088666D01*
X160746638Y-96091500D01*
X160598000Y-96091500D01*
X160023000Y-96091500D01*
X155951884Y-96091500D01*
X155884845Y-96071815D01*
X155861233Y-96052107D01*
X155603948Y-95776444D01*
X155578657Y-95735808D01*
X155554696Y-95672628D01*
X155522818Y-95588570D01*
X155426183Y-95448571D01*
X155323020Y-95357177D01*
X155298849Y-95335763D01*
X155148226Y-95256710D01*
X154983056Y-95216000D01*
X154812944Y-95216000D01*
X154647773Y-95256710D01*
X154513286Y-95327296D01*
X154455660Y-95341500D01*
X154397847Y-95341500D01*
X154330808Y-95321815D01*
X154322921Y-95316303D01*
X154207976Y-95229136D01*
X154073588Y-95176140D01*
X154030242Y-95170935D01*
X153989144Y-95166000D01*
X153406856Y-95166000D01*
X153368841Y-95170565D01*
X153322411Y-95176140D01*
X153188023Y-95229136D01*
X153073079Y-95316303D01*
X153007768Y-95341127D01*
X152998153Y-95341500D01*
X151574028Y-95341500D01*
X151550970Y-95339337D01*
X151545326Y-95338268D01*
X151536904Y-95337000D01*
X151536902Y-95337000D01*
X151478578Y-95337000D01*
X151476294Y-95336957D01*
X151452402Y-95336063D01*
X151417989Y-95334775D01*
X151408756Y-95335816D01*
X151408662Y-95334986D01*
X151393364Y-95337000D01*
X149915642Y-95337000D01*
X149848603Y-95317315D01*
X149802848Y-95264511D01*
X149792904Y-95195353D01*
X149813183Y-95143155D01*
X149826846Y-95123116D01*
X149828115Y-95121327D01*
X149862793Y-95074342D01*
X149862795Y-95074333D01*
X149866786Y-95066783D01*
X149870468Y-95059137D01*
X149870472Y-95059132D01*
X149887670Y-95003370D01*
X149888389Y-95001189D01*
X149899808Y-94968557D01*
X149907646Y-94946159D01*
X149907646Y-94946155D01*
X149909227Y-94937800D01*
X149910500Y-94929358D01*
X149910500Y-94871037D01*
X149910542Y-94868753D01*
X149912724Y-94810449D01*
X149912723Y-94810448D01*
X149911684Y-94801220D01*
X149912513Y-94801126D01*
X149910500Y-94785825D01*
X149910500Y-94180361D01*
X149930185Y-94113322D01*
X149946814Y-94092685D01*
X160061681Y-83977818D01*
X160123004Y-83944334D01*
X160149362Y-83941500D01*
X167142923Y-83941500D01*
X167209962Y-83961185D01*
G37*
%TD.AperFunction*%
%TD*%
M02*
