%TF.GenerationSoftware,KiCad,Pcbnew,7.0.5-0*%
%TF.CreationDate,2024-02-18T02:25:47-06:00*%
%TF.ProjectId,STM32_BluePill,53544d33-325f-4426-9c75-6550696c6c2e,1*%
%TF.SameCoordinates,Original*%
%TF.FileFunction,Soldermask,Bot*%
%TF.FilePolarity,Negative*%
%FSLAX46Y46*%
G04 Gerber Fmt 4.6, Leading zero omitted, Abs format (unit mm)*
G04 Created by KiCad (PCBNEW 7.0.5-0) date 2024-02-18 02:25:47*
%MOMM*%
%LPD*%
G01*
G04 APERTURE LIST*
G04 Aperture macros list*
%AMRoundRect*
0 Rectangle with rounded corners*
0 $1 Rounding radius*
0 $2 $3 $4 $5 $6 $7 $8 $9 X,Y pos of 4 corners*
0 Add a 4 corners polygon primitive as box body*
4,1,4,$2,$3,$4,$5,$6,$7,$8,$9,$2,$3,0*
0 Add four circle primitives for the rounded corners*
1,1,$1+$1,$2,$3*
1,1,$1+$1,$4,$5*
1,1,$1+$1,$6,$7*
1,1,$1+$1,$8,$9*
0 Add four rect primitives between the rounded corners*
20,1,$1+$1,$2,$3,$4,$5,0*
20,1,$1+$1,$4,$5,$6,$7,0*
20,1,$1+$1,$6,$7,$8,$9,0*
20,1,$1+$1,$8,$9,$2,$3,0*%
G04 Aperture macros list end*
%ADD10C,3.800000*%
%ADD11C,0.900000*%
%ADD12C,0.650000*%
%ADD13O,2.100000X1.000000*%
%ADD14O,1.600000X1.000000*%
%ADD15R,1.700000X1.700000*%
%ADD16O,1.700000X1.700000*%
%ADD17C,1.600000*%
%ADD18O,1.600000X1.600000*%
%ADD19RoundRect,0.102000X0.825000X-0.825000X0.825000X0.825000X-0.825000X0.825000X-0.825000X-0.825000X0*%
%ADD20C,1.854000*%
%ADD21C,2.000000*%
G04 APERTURE END LIST*
D10*
%TO.C,H1*%
X105198000Y-113491500D03*
%TD*%
D11*
%TO.C,SW1*%
X114473000Y-83116500D03*
X111473000Y-83116500D03*
%TD*%
D12*
%TO.C,J1*%
X174245000Y-100540000D03*
X174245000Y-94760000D03*
D13*
X173715000Y-101970000D03*
D14*
X177895000Y-101970000D03*
D13*
X173715000Y-93330000D03*
D14*
X177895000Y-93330000D03*
%TD*%
D15*
%TO.C,J5*%
X122842000Y-113277500D03*
D16*
X125382000Y-113277500D03*
X127922000Y-113277500D03*
X130462000Y-113277500D03*
X133002000Y-113277500D03*
X135542000Y-113277500D03*
X138082000Y-113277500D03*
X140622000Y-113277500D03*
X143162000Y-113277500D03*
X145702000Y-113277500D03*
X148242000Y-113277500D03*
X150782000Y-113277500D03*
X153322000Y-113277500D03*
X155862000Y-113277500D03*
X158402000Y-113277500D03*
X160942000Y-113277500D03*
X163482000Y-113277500D03*
X166022000Y-113277500D03*
X168562000Y-113277500D03*
X171102000Y-113277500D03*
%TD*%
D10*
%TO.C,H2*%
X105198000Y-82491500D03*
%TD*%
D17*
%TO.C,R10*%
X120198000Y-101931500D03*
D18*
X120198000Y-109551500D03*
%TD*%
D10*
%TO.C,H4*%
X177198000Y-113491500D03*
%TD*%
D19*
%TO.C,J4*%
X107936000Y-102525500D03*
D20*
X107936000Y-99025500D03*
X107936000Y-95525500D03*
X107936000Y-92025500D03*
%TD*%
D15*
%TO.C,J6*%
X133000000Y-82550000D03*
D16*
X135540000Y-82550000D03*
X138080000Y-82550000D03*
X140620000Y-82550000D03*
X143160000Y-82550000D03*
X145700000Y-82550000D03*
X148240000Y-82550000D03*
X150780000Y-82550000D03*
X153320000Y-82550000D03*
X155860000Y-82550000D03*
X158400000Y-82550000D03*
X160940000Y-82550000D03*
X163480000Y-82550000D03*
X166020000Y-82550000D03*
X168560000Y-82550000D03*
X171100000Y-82550000D03*
%TD*%
D10*
%TO.C,H3*%
X177198000Y-82491500D03*
%TD*%
D21*
%TO.C,SW2*%
X116350001Y-113500000D03*
X109850001Y-113500000D03*
X116350001Y-109000000D03*
X109850001Y-109000000D03*
%TD*%
M02*
