%TF.GenerationSoftware,KiCad,Pcbnew,7.0.5-0*%
%TF.CreationDate,2024-02-18T02:25:47-06:00*%
%TF.ProjectId,STM32_BluePill,53544d33-325f-4426-9c75-6550696c6c2e,1*%
%TF.SameCoordinates,Original*%
%TF.FileFunction,Paste,Top*%
%TF.FilePolarity,Positive*%
%FSLAX46Y46*%
G04 Gerber Fmt 4.6, Leading zero omitted, Abs format (unit mm)*
G04 Created by KiCad (PCBNEW 7.0.5-0) date 2024-02-18 02:25:47*
%MOMM*%
%LPD*%
G01*
G04 APERTURE LIST*
G04 Aperture macros list*
%AMRoundRect*
0 Rectangle with rounded corners*
0 $1 Rounding radius*
0 $2 $3 $4 $5 $6 $7 $8 $9 X,Y pos of 4 corners*
0 Add a 4 corners polygon primitive as box body*
4,1,4,$2,$3,$4,$5,$6,$7,$8,$9,$2,$3,0*
0 Add four circle primitives for the rounded corners*
1,1,$1+$1,$2,$3*
1,1,$1+$1,$4,$5*
1,1,$1+$1,$6,$7*
1,1,$1+$1,$8,$9*
0 Add four rect primitives between the rounded corners*
20,1,$1+$1,$2,$3,$4,$5,0*
20,1,$1+$1,$4,$5,$6,$7,0*
20,1,$1+$1,$6,$7,$8,$9,0*
20,1,$1+$1,$8,$9,$2,$3,0*%
G04 Aperture macros list end*
%ADD10RoundRect,0.140000X0.140000X0.170000X-0.140000X0.170000X-0.140000X-0.170000X0.140000X-0.170000X0*%
%ADD11RoundRect,0.135000X0.135000X0.185000X-0.135000X0.185000X-0.135000X-0.185000X0.135000X-0.185000X0*%
%ADD12RoundRect,0.135000X0.185000X-0.135000X0.185000X0.135000X-0.185000X0.135000X-0.185000X-0.135000X0*%
%ADD13RoundRect,0.140000X-0.140000X-0.170000X0.140000X-0.170000X0.140000X0.170000X-0.140000X0.170000X0*%
%ADD14RoundRect,0.135000X-0.135000X-0.185000X0.135000X-0.185000X0.135000X0.185000X-0.135000X0.185000X0*%
%ADD15R,1.000000X0.800000*%
%ADD16R,0.700000X1.500000*%
%ADD17R,2.310000X1.910000*%
%ADD18RoundRect,0.140000X-0.170000X0.140000X-0.170000X-0.140000X0.170000X-0.140000X0.170000X0.140000X0*%
%ADD19R,1.450000X0.600000*%
%ADD20R,1.450000X0.300000*%
%ADD21RoundRect,0.135000X-0.185000X0.135000X-0.185000X-0.135000X0.185000X-0.135000X0.185000X0.135000X0*%
%ADD22RoundRect,0.150000X0.512500X0.150000X-0.512500X0.150000X-0.512500X-0.150000X0.512500X-0.150000X0*%
%ADD23RoundRect,0.218750X0.218750X0.256250X-0.218750X0.256250X-0.218750X-0.256250X0.218750X-0.256250X0*%
%ADD24R,1.200000X1.400000*%
%ADD25R,2.000000X1.500000*%
%ADD26R,2.000000X3.800000*%
%ADD27RoundRect,0.075000X-0.662500X-0.075000X0.662500X-0.075000X0.662500X0.075000X-0.662500X0.075000X0*%
%ADD28RoundRect,0.075000X-0.075000X-0.662500X0.075000X-0.662500X0.075000X0.662500X-0.075000X0.662500X0*%
%ADD29RoundRect,0.150000X-0.587500X-0.150000X0.587500X-0.150000X0.587500X0.150000X-0.587500X0.150000X0*%
%ADD30RoundRect,0.250000X-0.475000X0.250000X-0.475000X-0.250000X0.475000X-0.250000X0.475000X0.250000X0*%
%ADD31RoundRect,0.225000X-0.250000X0.225000X-0.250000X-0.225000X0.250000X-0.225000X0.250000X0.225000X0*%
%ADD32RoundRect,0.140000X0.170000X-0.140000X0.170000X0.140000X-0.170000X0.140000X-0.170000X-0.140000X0*%
%ADD33RoundRect,0.150000X0.150000X0.200000X-0.150000X0.200000X-0.150000X-0.200000X0.150000X-0.200000X0*%
%ADD34R,0.740000X2.790000*%
%ADD35RoundRect,0.250000X-0.250000X-0.475000X0.250000X-0.475000X0.250000X0.475000X-0.250000X0.475000X0*%
%ADD36R,1.168400X0.355600*%
%ADD37RoundRect,0.125000X0.537500X0.125000X-0.537500X0.125000X-0.537500X-0.125000X0.537500X-0.125000X0*%
%ADD38RoundRect,0.218750X-0.256250X0.218750X-0.256250X-0.218750X0.256250X-0.218750X0.256250X0.218750X0*%
G04 APERTURE END LIST*
D10*
%TO.C,C8*%
X138691600Y-104804300D03*
X137731600Y-104804300D03*
%TD*%
D11*
%TO.C,R11*%
X157908000Y-100791500D03*
X156888000Y-100791500D03*
%TD*%
D12*
%TO.C,R12*%
X116050000Y-106620000D03*
X116050000Y-105600000D03*
%TD*%
D13*
%TO.C,C5*%
X142920000Y-92400000D03*
X143880000Y-92400000D03*
%TD*%
D14*
%TO.C,R7*%
X118736000Y-95726500D03*
X119756000Y-95726500D03*
%TD*%
D15*
%TO.C,SW1*%
X116623000Y-84226500D03*
X116623000Y-82016500D03*
X109323000Y-84226500D03*
X109323000Y-82016500D03*
D16*
X115223000Y-84876500D03*
X112223000Y-84876500D03*
X110723000Y-84876500D03*
%TD*%
D17*
%TO.C,J2*%
X130308000Y-108191500D03*
X124998000Y-108191500D03*
%TD*%
D18*
%TO.C,C15*%
X125448000Y-96516500D03*
X125448000Y-97476500D03*
%TD*%
D19*
%TO.C,J1*%
X172800000Y-100900000D03*
X172800000Y-100100000D03*
D20*
X172800000Y-98900000D03*
X172800000Y-97900000D03*
X172800000Y-97400000D03*
X172800000Y-96400000D03*
D19*
X172800000Y-95200000D03*
X172800000Y-94400000D03*
X172800000Y-94400000D03*
X172800000Y-95200000D03*
D20*
X172800000Y-95900000D03*
X172800000Y-96900000D03*
X172800000Y-98400000D03*
X172800000Y-99400000D03*
D19*
X172800000Y-100100000D03*
X172800000Y-100900000D03*
%TD*%
D18*
%TO.C,C11*%
X138146400Y-98149500D03*
X138146400Y-99109500D03*
%TD*%
D11*
%TO.C,R5*%
X174808000Y-86967500D03*
X173788000Y-86967500D03*
%TD*%
D21*
%TO.C,R2*%
X156498000Y-95890000D03*
X156498000Y-96910000D03*
%TD*%
D10*
%TO.C,C3*%
X149478000Y-103991500D03*
X148518000Y-103991500D03*
%TD*%
D22*
%TO.C,U2*%
X169432500Y-98600000D03*
X169432500Y-97650000D03*
X169432500Y-96700000D03*
X167157500Y-96700000D03*
X167157500Y-97650000D03*
X167157500Y-98600000D03*
%TD*%
D23*
%TO.C,D1*%
X174885500Y-88491500D03*
X173310500Y-88491500D03*
%TD*%
%TO.C,D2*%
X155485500Y-100791500D03*
X153910500Y-100791500D03*
%TD*%
D24*
%TO.C,Y1*%
X134858000Y-95954700D03*
X134858000Y-98154700D03*
X136558000Y-98154700D03*
X136558000Y-95954700D03*
%TD*%
D12*
%TO.C,R8*%
X154162299Y-106825500D03*
X154162299Y-105805500D03*
%TD*%
D25*
%TO.C,U3*%
X164598000Y-92041500D03*
X164598000Y-89741500D03*
D26*
X158298000Y-89741500D03*
D25*
X164598000Y-87441500D03*
%TD*%
D27*
%TO.C,U1*%
X142047500Y-95287500D03*
X142047500Y-95787500D03*
X142047500Y-96287500D03*
X142047500Y-96787500D03*
X142047500Y-97287500D03*
X142047500Y-97787500D03*
X142047500Y-98287500D03*
X142047500Y-98787500D03*
X142047500Y-99287500D03*
X142047500Y-99787500D03*
X142047500Y-100287500D03*
X142047500Y-100787500D03*
D28*
X143460000Y-102200000D03*
X143960000Y-102200000D03*
X144460000Y-102200000D03*
X144960000Y-102200000D03*
X145460000Y-102200000D03*
X145960000Y-102200000D03*
X146460000Y-102200000D03*
X146960000Y-102200000D03*
X147460000Y-102200000D03*
X147960000Y-102200000D03*
X148460000Y-102200000D03*
X148960000Y-102200000D03*
D27*
X150372500Y-100787500D03*
X150372500Y-100287500D03*
X150372500Y-99787500D03*
X150372500Y-99287500D03*
X150372500Y-98787500D03*
X150372500Y-98287500D03*
X150372500Y-97787500D03*
X150372500Y-97287500D03*
X150372500Y-96787500D03*
X150372500Y-96287500D03*
X150372500Y-95787500D03*
X150372500Y-95287500D03*
D28*
X148960000Y-93875000D03*
X148460000Y-93875000D03*
X147960000Y-93875000D03*
X147460000Y-93875000D03*
X146960000Y-93875000D03*
X146460000Y-93875000D03*
X145960000Y-93875000D03*
X145460000Y-93875000D03*
X144960000Y-93875000D03*
X144460000Y-93875000D03*
X143960000Y-93875000D03*
X143460000Y-93875000D03*
%TD*%
D11*
%TO.C,R3*%
X175323000Y-91554000D03*
X174303000Y-91554000D03*
%TD*%
D21*
%TO.C,R9*%
X155362299Y-104815500D03*
X155362299Y-105835500D03*
%TD*%
D14*
%TO.C,R0*%
X119140000Y-111750000D03*
X120160000Y-111750000D03*
%TD*%
D11*
%TO.C,R4*%
X175295000Y-103746000D03*
X174275000Y-103746000D03*
%TD*%
D13*
%TO.C,C14*%
X122713000Y-94716500D03*
X123673000Y-94716500D03*
%TD*%
D29*
%TO.C,D5*%
X113260500Y-96041500D03*
X113260500Y-97941500D03*
X115135500Y-96991500D03*
%TD*%
D10*
%TO.C,C9*%
X138680000Y-101100000D03*
X137720000Y-101100000D03*
%TD*%
D30*
%TO.C,C12*%
X167036000Y-88791500D03*
X167036000Y-90691500D03*
%TD*%
D31*
%TO.C,C1*%
X153698000Y-94366500D03*
X153698000Y-95916500D03*
%TD*%
D32*
%TO.C,C6*%
X140198000Y-100041500D03*
X140198000Y-99081500D03*
%TD*%
D33*
%TO.C,D4*%
X169370000Y-95150000D03*
X170770000Y-95150000D03*
%TD*%
D10*
%TO.C,C16*%
X118728000Y-96996500D03*
X117768000Y-96996500D03*
%TD*%
D14*
%TO.C,R1*%
X142488000Y-88850000D03*
X143508000Y-88850000D03*
%TD*%
D34*
%TO.C,J7*%
X121210000Y-86585000D03*
X121210000Y-82515000D03*
X122480000Y-86585000D03*
X122480000Y-82515000D03*
X123750000Y-86585000D03*
X123750000Y-82515000D03*
X125020000Y-86585000D03*
X125020000Y-82515000D03*
X126290000Y-86585000D03*
X126290000Y-82515000D03*
%TD*%
D35*
%TO.C,C13*%
X160752000Y-94567500D03*
X162652000Y-94567500D03*
%TD*%
D36*
%TO.C,U5*%
X114034800Y-102739600D03*
X114034800Y-103400000D03*
X114034800Y-104060400D03*
X115965200Y-104060400D03*
X115965200Y-102739600D03*
%TD*%
D18*
%TO.C,C2*%
X152198000Y-95017500D03*
X152198000Y-95977500D03*
%TD*%
D37*
%TO.C,U4*%
X123835500Y-97966500D03*
X123835500Y-97316500D03*
X123835500Y-96666500D03*
X123835500Y-96016500D03*
X121560500Y-96016500D03*
X121560500Y-96666500D03*
X121560500Y-97316500D03*
X121560500Y-97966500D03*
%TD*%
D17*
%TO.C,J3*%
X130353000Y-103241500D03*
X125043000Y-103241500D03*
%TD*%
D32*
%TO.C,C4*%
X140198000Y-95266300D03*
X140198000Y-94306300D03*
%TD*%
D10*
%TO.C,C7*%
X138691600Y-103229500D03*
X137731600Y-103229500D03*
%TD*%
D33*
%TO.C,D3*%
X169370000Y-100150000D03*
X170770000Y-100150000D03*
%TD*%
D38*
%TO.C,FB1*%
X140114000Y-103204000D03*
X140114000Y-104779000D03*
%TD*%
D11*
%TO.C,R6*%
X119756000Y-98266500D03*
X118736000Y-98266500D03*
%TD*%
D32*
%TO.C,C10*%
X138146400Y-97026700D03*
X138146400Y-96066700D03*
%TD*%
M02*
