%TF.GenerationSoftware,KiCad,Pcbnew,7.0.5-0*%
%TF.CreationDate,2024-02-18T02:25:47-06:00*%
%TF.ProjectId,STM32_BluePill,53544d33-325f-4426-9c75-6550696c6c2e,1*%
%TF.SameCoordinates,Original*%
%TF.FileFunction,Legend,Top*%
%TF.FilePolarity,Positive*%
%FSLAX46Y46*%
G04 Gerber Fmt 4.6, Leading zero omitted, Abs format (unit mm)*
G04 Created by KiCad (PCBNEW 7.0.5-0) date 2024-02-18 02:25:47*
%MOMM*%
%LPD*%
G01*
G04 APERTURE LIST*
%ADD10C,0.300000*%
%ADD11C,1.400000*%
%ADD12C,0.150000*%
%ADD13C,0.200000*%
%ADD14C,0.120000*%
%ADD15C,0.100000*%
%ADD16C,0.127000*%
G04 APERTURE END LIST*
D10*
X164225000Y-101275000D02*
X163025000Y-102475000D01*
X162695000Y-99765000D02*
X161545000Y-100915000D01*
X164125000Y-99875000D02*
X161675000Y-102325000D01*
X164275000Y-102475000D02*
X161525000Y-102475000D01*
X161525000Y-99725000D01*
X164275000Y-99725000D01*
X164275000Y-102475000D01*
D11*
X130594796Y-92505204D02*
G75*
G03*
X130594796Y-92505204I-700000J0D01*
G01*
D10*
X131733273Y-92434493D02*
X130778679Y-93389088D01*
X129010912Y-91621321D01*
X129965507Y-90666727D01*
X131733273Y-92434493D01*
G36*
X131733273Y-92434493D02*
G01*
X130778679Y-93389088D01*
X129010912Y-91621321D01*
X129965507Y-90666727D01*
X131733273Y-92434493D01*
G37*
X129010912Y-91621321D02*
G75*
G03*
X130778679Y-93389088I883884J-883883D01*
G01*
X132900000Y-91267767D02*
G75*
G03*
X131132233Y-89500000I-883884J883883D01*
G01*
X132900000Y-91267767D02*
X130778679Y-93389088D01*
X131132233Y-89500000D02*
X129010912Y-91621321D01*
D12*
X156064299Y-104184000D02*
X156064299Y-104384000D01*
X163800000Y-106000000D02*
X163360000Y-106000000D01*
X167248000Y-85091500D02*
X167898000Y-84391500D01*
X161448000Y-85091500D02*
X160948000Y-85091500D01*
X172498000Y-110731500D02*
X171868000Y-111391500D01*
X167748000Y-85091500D02*
X167248000Y-85091500D01*
X166048000Y-85091500D02*
X166048000Y-84391500D01*
X115273000Y-87091500D02*
X116123000Y-87091500D01*
X109948000Y-86791500D02*
X109698000Y-87091500D01*
X122848000Y-110741500D02*
X124598000Y-110741500D01*
X166048000Y-85091500D02*
X165548000Y-85091500D01*
X160014299Y-107084000D02*
X159574299Y-107084000D01*
X163800000Y-106000000D02*
X164200000Y-106400000D01*
X115873000Y-87391500D02*
X116123000Y-87091500D01*
X109698000Y-87091500D02*
X109948000Y-87391500D01*
X160948000Y-85091500D02*
X160948000Y-84391500D01*
X163360000Y-106000000D02*
X160014299Y-107084000D01*
X164200000Y-106400000D02*
X163800000Y-106400000D01*
X130448000Y-110741501D02*
X130448000Y-111441500D01*
X164200000Y-106400000D02*
X164200000Y-106000000D01*
X127698000Y-101991500D02*
X127698000Y-103241500D01*
X172498000Y-110731500D02*
X171998000Y-110731500D01*
X122500000Y-100300000D02*
X122100000Y-100700000D01*
X172298000Y-85091500D02*
X171648000Y-84391500D01*
X122500000Y-101900000D02*
X122500000Y-100300000D01*
X116123000Y-87091500D02*
X115873000Y-86791500D01*
X127698000Y-103241500D02*
X126698000Y-103241500D01*
X128798000Y-110741500D02*
X130448000Y-110741501D01*
X167878000Y-110731500D02*
X167378000Y-110731500D01*
X154864299Y-104184000D02*
X156064299Y-104184000D01*
X127700000Y-99700000D02*
X125300000Y-98800000D01*
X127648000Y-108191500D02*
X128648000Y-108191500D01*
X122500000Y-100300000D02*
X122900000Y-100700000D01*
X125300000Y-98800000D02*
X125800000Y-98600000D01*
X127698000Y-103800000D02*
X127700000Y-105000000D01*
X122848000Y-110741500D02*
X122848000Y-111441500D01*
X125300000Y-98800000D02*
X125500000Y-99300000D01*
X172298000Y-85091500D02*
X171798000Y-85091500D01*
X127648000Y-106941500D02*
X127648000Y-108191500D01*
X127698000Y-103241500D02*
X128698000Y-103241500D01*
X127700000Y-100000000D02*
X127700000Y-99700000D01*
X155024299Y-107484000D02*
X153474299Y-107484000D01*
X153464299Y-107484000D02*
X153464299Y-105484000D01*
X110548000Y-87091500D02*
X109698000Y-87091500D01*
X127648000Y-108191500D02*
X126648000Y-108191500D01*
X167378000Y-110731500D02*
X167948000Y-111391500D01*
X122874580Y-106063220D02*
X122922200Y-106015601D01*
X122922200Y-106015601D02*
X122969819Y-106063220D01*
X122969819Y-106063220D02*
X122922200Y-106110839D01*
X122922200Y-106110839D02*
X122874580Y-106063220D01*
X122874580Y-106063220D02*
X122969819Y-106063220D01*
X122350771Y-106063220D02*
X122398390Y-106015601D01*
X122398390Y-106015601D02*
X122446009Y-106063220D01*
X122446009Y-106063220D02*
X122398390Y-106110839D01*
X122398390Y-106110839D02*
X122350771Y-106063220D01*
X122350771Y-106063220D02*
X122446009Y-106063220D01*
X122922200Y-105634649D02*
X122969819Y-105491792D01*
X122969819Y-105491792D02*
X122969819Y-105253697D01*
X122969819Y-105253697D02*
X122922200Y-105158459D01*
X122922200Y-105158459D02*
X122874580Y-105110840D01*
X122874580Y-105110840D02*
X122779342Y-105063221D01*
X122779342Y-105063221D02*
X122684104Y-105063221D01*
X122684104Y-105063221D02*
X122588866Y-105110840D01*
X122588866Y-105110840D02*
X122541247Y-105158459D01*
X122541247Y-105158459D02*
X122493628Y-105253697D01*
X122493628Y-105253697D02*
X122446009Y-105444173D01*
X122446009Y-105444173D02*
X122398390Y-105539411D01*
X122398390Y-105539411D02*
X122350771Y-105587030D01*
X122350771Y-105587030D02*
X122255533Y-105634649D01*
X122255533Y-105634649D02*
X122160295Y-105634649D01*
X122160295Y-105634649D02*
X122065057Y-105587030D01*
X122065057Y-105587030D02*
X122017438Y-105539411D01*
X122017438Y-105539411D02*
X121969819Y-105444173D01*
X121969819Y-105444173D02*
X121969819Y-105206078D01*
X121969819Y-105206078D02*
X122017438Y-105063221D01*
X122969819Y-104158459D02*
X122969819Y-104634649D01*
X122969819Y-104634649D02*
X121969819Y-104634649D01*
X122446009Y-103825125D02*
X122446009Y-103491792D01*
X122969819Y-103348935D02*
X122969819Y-103825125D01*
X122969819Y-103825125D02*
X121969819Y-103825125D01*
X121969819Y-103825125D02*
X121969819Y-103348935D01*
X121969819Y-103015601D02*
X122969819Y-102777506D01*
X122969819Y-102777506D02*
X122255533Y-102587030D01*
X122255533Y-102587030D02*
X122969819Y-102396554D01*
X122969819Y-102396554D02*
X121969819Y-102158459D01*
X109358588Y-87586319D02*
X108787160Y-87586319D01*
X109072874Y-87586319D02*
X109072874Y-86586319D01*
X109072874Y-86586319D02*
X108977636Y-86729176D01*
X108977636Y-86729176D02*
X108882398Y-86824414D01*
X108882398Y-86824414D02*
X108787160Y-86872033D01*
D13*
X145630702Y-111327748D02*
X144857304Y-110333379D01*
X144857304Y-110333379D02*
X145194021Y-109996662D01*
X145194021Y-109996662D02*
X145315029Y-109959833D01*
X145315029Y-109959833D02*
X145393948Y-109965094D01*
X145393948Y-109965094D02*
X145509694Y-110017707D01*
X145509694Y-110017707D02*
X145620180Y-110159759D01*
X145620180Y-110159759D02*
X145651747Y-110296551D01*
X145651747Y-110296551D02*
X145646486Y-110385991D01*
X145646486Y-110385991D02*
X145599135Y-110517522D01*
X145599135Y-110517522D02*
X145262417Y-110854239D01*
X146251525Y-110201849D02*
X146672422Y-109780952D01*
X146388316Y-110570134D02*
X145909546Y-109281137D01*
X145909546Y-109281137D02*
X146977572Y-109980878D01*
X146877609Y-108313074D02*
X146709251Y-108481433D01*
X146709251Y-108481433D02*
X146661900Y-108612963D01*
X146661900Y-108612963D02*
X146656639Y-108702403D01*
X146656639Y-108702403D02*
X146682945Y-108928636D01*
X146682945Y-108928636D02*
X146788169Y-109160129D01*
X146788169Y-109160129D02*
X147082797Y-109538936D01*
X147082797Y-109538936D02*
X147198543Y-109591548D01*
X147198543Y-109591548D02*
X147277461Y-109596809D01*
X147277461Y-109596809D02*
X147398469Y-109559981D01*
X147398469Y-109559981D02*
X147566828Y-109391622D01*
X147566828Y-109391622D02*
X147614179Y-109260092D01*
X147614179Y-109260092D02*
X147619440Y-109170651D01*
X147619440Y-109170651D02*
X147587873Y-109033860D01*
X147587873Y-109033860D02*
X147403730Y-108797105D01*
X147403730Y-108797105D02*
X147287984Y-108744493D01*
X147287984Y-108744493D02*
X147209066Y-108739232D01*
X147209066Y-108739232D02*
X147088058Y-108776060D01*
X147088058Y-108776060D02*
X146919699Y-108944419D01*
X146919699Y-108944419D02*
X146872348Y-109075949D01*
X146872348Y-109075949D02*
X146867087Y-109165390D01*
X146867087Y-109165390D02*
X146898654Y-109302182D01*
X132930702Y-111327748D02*
X132157304Y-110333379D01*
X132157304Y-110333379D02*
X132494021Y-109996662D01*
X132494021Y-109996662D02*
X132615029Y-109959833D01*
X132615029Y-109959833D02*
X132693948Y-109965094D01*
X132693948Y-109965094D02*
X132809694Y-110017707D01*
X132809694Y-110017707D02*
X132920180Y-110159759D01*
X132920180Y-110159759D02*
X132951747Y-110296551D01*
X132951747Y-110296551D02*
X132946486Y-110385991D01*
X132946486Y-110385991D02*
X132899135Y-110517522D01*
X132899135Y-110517522D02*
X132562417Y-110854239D01*
X133551525Y-110201849D02*
X133972422Y-109780952D01*
X133688316Y-110570134D02*
X133209546Y-109281137D01*
X133209546Y-109281137D02*
X134277572Y-109980878D01*
X133830369Y-108828673D02*
X133835631Y-108739232D01*
X133835631Y-108739232D02*
X133882982Y-108607702D01*
X133882982Y-108607702D02*
X134093430Y-108397253D01*
X134093430Y-108397253D02*
X134214438Y-108360425D01*
X134214438Y-108360425D02*
X134293356Y-108365686D01*
X134293356Y-108365686D02*
X134409103Y-108418298D01*
X134409103Y-108418298D02*
X134482760Y-108513000D01*
X134482760Y-108513000D02*
X134551155Y-108697142D01*
X134551155Y-108697142D02*
X134488021Y-109770429D01*
X134488021Y-109770429D02*
X135035187Y-109223263D01*
D12*
G36*
X112666543Y-86720578D02*
G01*
X112738484Y-86792519D01*
X112778826Y-86953886D01*
X112778826Y-87268751D01*
X112738484Y-87430118D01*
X112666540Y-87502061D01*
X112598026Y-87536319D01*
X112442961Y-87536319D01*
X112374442Y-87502060D01*
X112302501Y-87430118D01*
X112262160Y-87268751D01*
X112262160Y-86953886D01*
X112302501Y-86792519D01*
X112374443Y-86720577D01*
X112442959Y-86686319D01*
X112598025Y-86686319D01*
X112666543Y-86720578D01*
G37*
G36*
X113714162Y-86720578D02*
G01*
X113786103Y-86792519D01*
X113826445Y-86953886D01*
X113826445Y-87268750D01*
X113786103Y-87430118D01*
X113714159Y-87502061D01*
X113645645Y-87536319D01*
X113490580Y-87536319D01*
X113422061Y-87502060D01*
X113350120Y-87430118D01*
X113309779Y-87268751D01*
X113309779Y-86953886D01*
X113350120Y-86792519D01*
X113422062Y-86720577D01*
X113490578Y-86686319D01*
X113645644Y-86686319D01*
X113714162Y-86720578D01*
G37*
G36*
X111670455Y-87200680D02*
G01*
X111696948Y-87227173D01*
X111731207Y-87295689D01*
X111731207Y-87403136D01*
X111696948Y-87471653D01*
X111666540Y-87502061D01*
X111598026Y-87536319D01*
X111309779Y-87536319D01*
X111309779Y-87162509D01*
X111555942Y-87162509D01*
X111670455Y-87200680D01*
G37*
G36*
X111618924Y-86720578D02*
G01*
X111649329Y-86750983D01*
X111683588Y-86819499D01*
X111683588Y-86879327D01*
X111649329Y-86947844D01*
X111618922Y-86978251D01*
X111551691Y-87011866D01*
X111548815Y-87011763D01*
X111547556Y-87012509D01*
X111309779Y-87012509D01*
X111309779Y-86686319D01*
X111550406Y-86686319D01*
X111618924Y-86720578D01*
G37*
G36*
X115298000Y-88109357D02*
G01*
X110530143Y-88109357D01*
X110530143Y-87622443D01*
X111157409Y-87622443D01*
X111164328Y-87637595D01*
X111169022Y-87653579D01*
X111173334Y-87657315D01*
X111175705Y-87662507D01*
X111189721Y-87671514D01*
X111202308Y-87682421D01*
X111207954Y-87683232D01*
X111212757Y-87686319D01*
X111229419Y-87686319D01*
X111245903Y-87688689D01*
X111251093Y-87686319D01*
X111611691Y-87686319D01*
X111629575Y-87688250D01*
X111643288Y-87681393D01*
X111657991Y-87677076D01*
X111662629Y-87671722D01*
X111736097Y-87634987D01*
X111748431Y-87632305D01*
X111763062Y-87617672D01*
X111778175Y-87603616D01*
X111778537Y-87602196D01*
X111804971Y-87575762D01*
X111815822Y-87569318D01*
X111825078Y-87550804D01*
X111834968Y-87532694D01*
X111834863Y-87531234D01*
X111871485Y-87457990D01*
X111881207Y-87442864D01*
X111881207Y-87427534D01*
X111883921Y-87412451D01*
X111881207Y-87405907D01*
X111881206Y-87282015D01*
X111881984Y-87274811D01*
X112109058Y-87274811D01*
X112112160Y-87287218D01*
X112112160Y-87288767D01*
X112114764Y-87297636D01*
X112161740Y-87485542D01*
X112166174Y-87505922D01*
X112174954Y-87514702D01*
X112181235Y-87525407D01*
X112190203Y-87529951D01*
X112270334Y-87610083D01*
X112276779Y-87620934D01*
X112295280Y-87630184D01*
X112313402Y-87640080D01*
X112314862Y-87639975D01*
X112388106Y-87676597D01*
X112403233Y-87686319D01*
X112418563Y-87686319D01*
X112433646Y-87689033D01*
X112440190Y-87686319D01*
X112611691Y-87686319D01*
X112629575Y-87688250D01*
X112643288Y-87681393D01*
X112657991Y-87677076D01*
X112662629Y-87671722D01*
X112736098Y-87634987D01*
X112748430Y-87632305D01*
X112763055Y-87617679D01*
X112778175Y-87603616D01*
X112778537Y-87602196D01*
X112858420Y-87522313D01*
X112873627Y-87508016D01*
X112876638Y-87495968D01*
X112882587Y-87485075D01*
X112881869Y-87475045D01*
X112923593Y-87308148D01*
X112928826Y-87300007D01*
X112928826Y-87287219D01*
X112929202Y-87285715D01*
X112928826Y-87276468D01*
X112928826Y-87274811D01*
X113156677Y-87274811D01*
X113159779Y-87287218D01*
X113159779Y-87288767D01*
X113162383Y-87297636D01*
X113209359Y-87485542D01*
X113213793Y-87505922D01*
X113222573Y-87514702D01*
X113228854Y-87525407D01*
X113237822Y-87529951D01*
X113317953Y-87610083D01*
X113324398Y-87620934D01*
X113342899Y-87630184D01*
X113361021Y-87640080D01*
X113362481Y-87639975D01*
X113435725Y-87676597D01*
X113450852Y-87686319D01*
X113466182Y-87686319D01*
X113481265Y-87689033D01*
X113487809Y-87686319D01*
X113659310Y-87686319D01*
X113677194Y-87688250D01*
X113690907Y-87681393D01*
X113705610Y-87677076D01*
X113710248Y-87671722D01*
X113783717Y-87634987D01*
X113796049Y-87632305D01*
X113810674Y-87617679D01*
X113825794Y-87603616D01*
X113826156Y-87602196D01*
X113906039Y-87522313D01*
X113921246Y-87508016D01*
X113924257Y-87495968D01*
X113930206Y-87485075D01*
X113929488Y-87475045D01*
X113971212Y-87308148D01*
X113976445Y-87300007D01*
X113976445Y-87287219D01*
X113976821Y-87285715D01*
X113976445Y-87276468D01*
X113976445Y-86956994D01*
X113979547Y-86947826D01*
X113976445Y-86935418D01*
X113976445Y-86933870D01*
X113973840Y-86925000D01*
X113926864Y-86737097D01*
X113922431Y-86716715D01*
X113913651Y-86707935D01*
X113907370Y-86697229D01*
X113898399Y-86692683D01*
X113828159Y-86622443D01*
X114109790Y-86622443D01*
X114128086Y-86662507D01*
X114165138Y-86686319D01*
X114397874Y-86686319D01*
X114397874Y-87622101D01*
X114407117Y-87653579D01*
X114440403Y-87682421D01*
X114483998Y-87688689D01*
X114524062Y-87670393D01*
X114547874Y-87633341D01*
X114547874Y-86686319D01*
X114769370Y-86686319D01*
X114800848Y-86677076D01*
X114829690Y-86643790D01*
X114835958Y-86600195D01*
X114817662Y-86560131D01*
X114780610Y-86536319D01*
X114478234Y-86536319D01*
X114461750Y-86533949D01*
X114456560Y-86536319D01*
X114176378Y-86536319D01*
X114144900Y-86545562D01*
X114116058Y-86578848D01*
X114109790Y-86622443D01*
X113828159Y-86622443D01*
X113818269Y-86612553D01*
X113811826Y-86601704D01*
X113793325Y-86592453D01*
X113775203Y-86582558D01*
X113773742Y-86582662D01*
X113700501Y-86546042D01*
X113685372Y-86536319D01*
X113670042Y-86536319D01*
X113654959Y-86533605D01*
X113648415Y-86536319D01*
X113476905Y-86536319D01*
X113459030Y-86534389D01*
X113445320Y-86541243D01*
X113430614Y-86545562D01*
X113425974Y-86550916D01*
X113352505Y-86587650D01*
X113340175Y-86590333D01*
X113325555Y-86604952D01*
X113310430Y-86619022D01*
X113310067Y-86620440D01*
X113230176Y-86700331D01*
X113214978Y-86714622D01*
X113211966Y-86726666D01*
X113206018Y-86737561D01*
X113206735Y-86747591D01*
X113165011Y-86914488D01*
X113159779Y-86922630D01*
X113159779Y-86935418D01*
X113159403Y-86936922D01*
X113159779Y-86946168D01*
X113159779Y-87265642D01*
X113156677Y-87274811D01*
X112928826Y-87274811D01*
X112928826Y-86956994D01*
X112931928Y-86947826D01*
X112928826Y-86935418D01*
X112928826Y-86933870D01*
X112926221Y-86925000D01*
X112879245Y-86737097D01*
X112874812Y-86716715D01*
X112866032Y-86707935D01*
X112859751Y-86697229D01*
X112850780Y-86692683D01*
X112770650Y-86612553D01*
X112764207Y-86601704D01*
X112745706Y-86592453D01*
X112727584Y-86582558D01*
X112726123Y-86582662D01*
X112652882Y-86546042D01*
X112637753Y-86536319D01*
X112622423Y-86536319D01*
X112607340Y-86533605D01*
X112600796Y-86536319D01*
X112429286Y-86536319D01*
X112411411Y-86534389D01*
X112397701Y-86541243D01*
X112382995Y-86545562D01*
X112378355Y-86550916D01*
X112304886Y-86587650D01*
X112292556Y-86590333D01*
X112277936Y-86604952D01*
X112262811Y-86619022D01*
X112262448Y-86620440D01*
X112182557Y-86700331D01*
X112167359Y-86714622D01*
X112164347Y-86726666D01*
X112158399Y-86737561D01*
X112159116Y-86747591D01*
X112117392Y-86914488D01*
X112112160Y-86922630D01*
X112112160Y-86935418D01*
X112111784Y-86936922D01*
X112112160Y-86946168D01*
X112112160Y-87265642D01*
X112109058Y-87274811D01*
X111881984Y-87274811D01*
X111883137Y-87264141D01*
X111876282Y-87250431D01*
X111871964Y-87235725D01*
X111866609Y-87231085D01*
X111829875Y-87157616D01*
X111827193Y-87145286D01*
X111812573Y-87130666D01*
X111798504Y-87115541D01*
X111797085Y-87115178D01*
X111766855Y-87084948D01*
X111755578Y-87070941D01*
X111742668Y-87066637D01*
X111757353Y-87051952D01*
X111768203Y-87045509D01*
X111777457Y-87026999D01*
X111787348Y-87008886D01*
X111787243Y-87007427D01*
X111823866Y-86934181D01*
X111833588Y-86919055D01*
X111833588Y-86903725D01*
X111836302Y-86888642D01*
X111833588Y-86882098D01*
X111833588Y-86805825D01*
X111835518Y-86787951D01*
X111828663Y-86774241D01*
X111824345Y-86759535D01*
X111818990Y-86754895D01*
X111782256Y-86681426D01*
X111779574Y-86669096D01*
X111764954Y-86654476D01*
X111750885Y-86639351D01*
X111749466Y-86638988D01*
X111723031Y-86612553D01*
X111716588Y-86601704D01*
X111698087Y-86592453D01*
X111679965Y-86582558D01*
X111678504Y-86582662D01*
X111605263Y-86546042D01*
X111590134Y-86536319D01*
X111574804Y-86536319D01*
X111559721Y-86533605D01*
X111553177Y-86536319D01*
X111240139Y-86536319D01*
X111223655Y-86533949D01*
X111208502Y-86540868D01*
X111192519Y-86545562D01*
X111188782Y-86549874D01*
X111183591Y-86552245D01*
X111174583Y-86566261D01*
X111163677Y-86578848D01*
X111162865Y-86584494D01*
X111159779Y-86589297D01*
X111159779Y-86605959D01*
X111157409Y-86622443D01*
X111159779Y-86627632D01*
X111159779Y-87082149D01*
X111157409Y-87098633D01*
X111159779Y-87103822D01*
X111159779Y-87605959D01*
X111157409Y-87622443D01*
X110530143Y-87622443D01*
X110530143Y-85998643D01*
X115298000Y-85998643D01*
X115298000Y-88109357D01*
G37*
X147979214Y-108863546D02*
X148029722Y-108866913D01*
X148029722Y-108866913D02*
X148026355Y-108924155D01*
X148026355Y-108924155D02*
X147975847Y-108920788D01*
X147975847Y-108920788D02*
X147979214Y-108863546D01*
X147979214Y-108863546D02*
X148026355Y-108924155D01*
X148295729Y-108654781D02*
X147800754Y-108018385D01*
X147800754Y-108018385D02*
X148342869Y-108284392D01*
X148342869Y-108284392D02*
X148177878Y-107641262D01*
X148177878Y-107641262D02*
X148672852Y-108277658D01*
X148942226Y-108008283D02*
X148447252Y-107371887D01*
X149161093Y-107735542D02*
X149265475Y-107685035D01*
X149265475Y-107685035D02*
X149400162Y-107550348D01*
X149400162Y-107550348D02*
X149430467Y-107466168D01*
X149430467Y-107466168D02*
X149433834Y-107408927D01*
X149433834Y-107408927D02*
X149413631Y-107321380D01*
X149413631Y-107321380D02*
X149366490Y-107260771D01*
X149366490Y-107260771D02*
X149292412Y-107227099D01*
X149292412Y-107227099D02*
X149241905Y-107223732D01*
X149241905Y-107223732D02*
X149164460Y-107247302D01*
X149164460Y-107247302D02*
X149033140Y-107324747D01*
X149033140Y-107324747D02*
X148955695Y-107348317D01*
X148955695Y-107348317D02*
X148905187Y-107344950D01*
X148905187Y-107344950D02*
X148831109Y-107311278D01*
X148831109Y-107311278D02*
X148783969Y-107250669D01*
X148783969Y-107250669D02*
X148763766Y-107163123D01*
X148763766Y-107163123D02*
X148767133Y-107105881D01*
X148767133Y-107105881D02*
X148797438Y-107021701D01*
X148797438Y-107021701D02*
X148932125Y-106887014D01*
X148932125Y-106887014D02*
X149036507Y-106836507D01*
X149363123Y-106456016D02*
X149470873Y-106348266D01*
X149470873Y-106348266D02*
X149548318Y-106324696D01*
X149548318Y-106324696D02*
X149649333Y-106331430D01*
X149649333Y-106331430D02*
X149770551Y-106425711D01*
X149770551Y-106425711D02*
X149935543Y-106637843D01*
X149935543Y-106637843D02*
X150002887Y-106785999D01*
X150002887Y-106785999D02*
X149996152Y-106900483D01*
X149996152Y-106900483D02*
X149965848Y-106984662D01*
X149965848Y-106984662D02*
X149858098Y-107092412D01*
X149858098Y-107092412D02*
X149780653Y-107115982D01*
X149780653Y-107115982D02*
X149679638Y-107109248D01*
X149679638Y-107109248D02*
X149558419Y-107014967D01*
X149558419Y-107014967D02*
X149393428Y-106802835D01*
X149393428Y-106802835D02*
X149326084Y-106654679D01*
X149326084Y-106654679D02*
X149332819Y-106540195D01*
X149332819Y-106540195D02*
X149363123Y-106456016D01*
X149868199Y-106058689D02*
X149871567Y-106001447D01*
X149871567Y-106001447D02*
X149901871Y-105917268D01*
X149901871Y-105917268D02*
X150036558Y-105782581D01*
X150036558Y-105782581D02*
X150114003Y-105759011D01*
X150114003Y-105759011D02*
X150164511Y-105762378D01*
X150164511Y-105762378D02*
X150238589Y-105796050D01*
X150238589Y-105796050D02*
X150285729Y-105856659D01*
X150285729Y-105856659D02*
X150329502Y-105974510D01*
X150329502Y-105974510D02*
X150289096Y-106661414D01*
X150289096Y-106661414D02*
X150639282Y-106311227D01*
D13*
X160930702Y-111327748D02*
X160157304Y-110333379D01*
X160157304Y-110333379D02*
X160494021Y-109996662D01*
X160494021Y-109996662D02*
X160615029Y-109959833D01*
X160615029Y-109959833D02*
X160693948Y-109965094D01*
X160693948Y-109965094D02*
X160809694Y-110017707D01*
X160809694Y-110017707D02*
X160920180Y-110159759D01*
X160920180Y-110159759D02*
X160951747Y-110296551D01*
X160951747Y-110296551D02*
X160946486Y-110385991D01*
X160946486Y-110385991D02*
X160899135Y-110517522D01*
X160899135Y-110517522D02*
X160562417Y-110854239D01*
X161704100Y-109628377D02*
X161867198Y-109549459D01*
X161867198Y-109549459D02*
X161946116Y-109554720D01*
X161946116Y-109554720D02*
X162061862Y-109607332D01*
X162061862Y-109607332D02*
X162172348Y-109749385D01*
X162172348Y-109749385D02*
X162203915Y-109886176D01*
X162203915Y-109886176D02*
X162198654Y-109975617D01*
X162198654Y-109975617D02*
X162151303Y-110107147D01*
X162151303Y-110107147D02*
X161814585Y-110443865D01*
X161814585Y-110443865D02*
X161041187Y-109449496D01*
X161041187Y-109449496D02*
X161335815Y-109154868D01*
X161335815Y-109154868D02*
X161456823Y-109118039D01*
X161456823Y-109118039D02*
X161535741Y-109123301D01*
X161535741Y-109123301D02*
X161651488Y-109175913D01*
X161651488Y-109175913D02*
X161725145Y-109270615D01*
X161725145Y-109270615D02*
X161756712Y-109407406D01*
X161756712Y-109407406D02*
X161751451Y-109496847D01*
X161751451Y-109496847D02*
X161704100Y-109628377D01*
X161704100Y-109628377D02*
X161409472Y-109923005D01*
X163161456Y-109096995D02*
X162656379Y-109602071D01*
X162908917Y-109349533D02*
X162135519Y-108355164D01*
X162135519Y-108355164D02*
X162161825Y-108581396D01*
X162161825Y-108581396D02*
X162151303Y-108760277D01*
X162151303Y-108760277D02*
X162103952Y-108891807D01*
X162935223Y-107555460D02*
X163019403Y-107471281D01*
X163019403Y-107471281D02*
X163140411Y-107434452D01*
X163140411Y-107434452D02*
X163219329Y-107439713D01*
X163219329Y-107439713D02*
X163335075Y-107492325D01*
X163335075Y-107492325D02*
X163524479Y-107639639D01*
X163524479Y-107639639D02*
X163708621Y-107876394D01*
X163708621Y-107876394D02*
X163813846Y-108107887D01*
X163813846Y-108107887D02*
X163845413Y-108244679D01*
X163845413Y-108244679D02*
X163840152Y-108334119D01*
X163840152Y-108334119D02*
X163792801Y-108465649D01*
X163792801Y-108465649D02*
X163708621Y-108549829D01*
X163708621Y-108549829D02*
X163587614Y-108586657D01*
X163587614Y-108586657D02*
X163508695Y-108581396D01*
X163508695Y-108581396D02*
X163392949Y-108528784D01*
X163392949Y-108528784D02*
X163203545Y-108381470D01*
X163203545Y-108381470D02*
X163019403Y-108144716D01*
X163019403Y-108144716D02*
X162914178Y-107913222D01*
X162914178Y-107913222D02*
X162882611Y-107776431D01*
X162882611Y-107776431D02*
X162887872Y-107686990D01*
X162887872Y-107686990D02*
X162935223Y-107555460D01*
D12*
G36*
X177151964Y-88642551D02*
G01*
X177182369Y-88672956D01*
X177216628Y-88741472D01*
X177216628Y-89029720D01*
X176842819Y-89029720D01*
X176842819Y-88741474D01*
X176877078Y-88672956D01*
X176907483Y-88642550D01*
X176975999Y-88608292D01*
X177083446Y-88608292D01*
X177151964Y-88642551D01*
G37*
G36*
X177151964Y-86499694D02*
G01*
X177182369Y-86530099D01*
X177216628Y-86598615D01*
X177216628Y-86719896D01*
X177214758Y-86737941D01*
X177216628Y-86741641D01*
X177216628Y-86886863D01*
X176842819Y-86886863D01*
X176842819Y-86598617D01*
X176877077Y-86530099D01*
X176907483Y-86499693D01*
X176975999Y-86465435D01*
X177083446Y-86465435D01*
X177151964Y-86499694D01*
G37*
G36*
X178265857Y-89809357D02*
G01*
X176155143Y-89809357D01*
X176155143Y-88732159D01*
X176690105Y-88732159D01*
X176692819Y-88738702D01*
X176692819Y-89099360D01*
X176690449Y-89115844D01*
X176697368Y-89130996D01*
X176702062Y-89146980D01*
X176706374Y-89150716D01*
X176708745Y-89155908D01*
X176722761Y-89164915D01*
X176735348Y-89175822D01*
X176740994Y-89176633D01*
X176745797Y-89179720D01*
X176762459Y-89179720D01*
X176778943Y-89182090D01*
X176784133Y-89179720D01*
X177286268Y-89179720D01*
X177302752Y-89182090D01*
X177307942Y-89179720D01*
X177778601Y-89179720D01*
X177810079Y-89170477D01*
X177838921Y-89137191D01*
X177845189Y-89093596D01*
X177826893Y-89053532D01*
X177789841Y-89029720D01*
X177366628Y-89029720D01*
X177366628Y-88727798D01*
X177368558Y-88709924D01*
X177361703Y-88696214D01*
X177357385Y-88681508D01*
X177352030Y-88676868D01*
X177315296Y-88603399D01*
X177312614Y-88591069D01*
X177297994Y-88576449D01*
X177283925Y-88561324D01*
X177282506Y-88560961D01*
X177256071Y-88534526D01*
X177249628Y-88523677D01*
X177231127Y-88514426D01*
X177213005Y-88504531D01*
X177211544Y-88504635D01*
X177138303Y-88468015D01*
X177123174Y-88458292D01*
X177107844Y-88458292D01*
X177092761Y-88455578D01*
X177086217Y-88458292D01*
X176962326Y-88458292D01*
X176944451Y-88456362D01*
X176930741Y-88463216D01*
X176916035Y-88467535D01*
X176911395Y-88472889D01*
X176837926Y-88509623D01*
X176825596Y-88512306D01*
X176810976Y-88526925D01*
X176795851Y-88540995D01*
X176795488Y-88542413D01*
X176769053Y-88568848D01*
X176758204Y-88575292D01*
X176748953Y-88593792D01*
X176739058Y-88611915D01*
X176739162Y-88613375D01*
X176702542Y-88686616D01*
X176692819Y-88701746D01*
X176692819Y-88717076D01*
X176690105Y-88732159D01*
X176155143Y-88732159D01*
X176155143Y-87335717D01*
X176689976Y-87335717D01*
X176698495Y-87378929D01*
X176729024Y-87410676D01*
X177461301Y-87585027D01*
X177042781Y-87696632D01*
X177029643Y-87696961D01*
X177012973Y-87708272D01*
X176995757Y-87718739D01*
X176994871Y-87720556D01*
X176993198Y-87721692D01*
X176985287Y-87740225D01*
X176976465Y-87758333D01*
X176976702Y-87760340D01*
X176975909Y-87762200D01*
X176979275Y-87782073D01*
X176981642Y-87802071D01*
X176982926Y-87803630D01*
X176983264Y-87805625D01*
X176996837Y-87820519D01*
X177009643Y-87836068D01*
X177011568Y-87836686D01*
X177012930Y-87838180D01*
X177032386Y-87843368D01*
X177051579Y-87849529D01*
X177053533Y-87849007D01*
X177461303Y-87957746D01*
X176739959Y-88129495D01*
X176711478Y-88145777D01*
X176691130Y-88184839D01*
X176695130Y-88228700D01*
X176722208Y-88263437D01*
X176763767Y-88278019D01*
X177777547Y-88036643D01*
X177791709Y-88036289D01*
X177807547Y-88025541D01*
X177824161Y-88016044D01*
X177825592Y-88013296D01*
X177828154Y-88011558D01*
X177835664Y-87993959D01*
X177844509Y-87976982D01*
X177844227Y-87973897D01*
X177845443Y-87971050D01*
X177842247Y-87952182D01*
X177840509Y-87933121D01*
X177838605Y-87930678D01*
X177838088Y-87927625D01*
X177825196Y-87913477D01*
X177813430Y-87898384D01*
X177810507Y-87897358D01*
X177808422Y-87895070D01*
X177789934Y-87890139D01*
X177771871Y-87883802D01*
X177768857Y-87884519D01*
X177344611Y-87771386D01*
X177779552Y-87655402D01*
X177793699Y-87654668D01*
X177809241Y-87643500D01*
X177825596Y-87633559D01*
X177826952Y-87630774D01*
X177829467Y-87628968D01*
X177836504Y-87611169D01*
X177844887Y-87593965D01*
X177844523Y-87590890D01*
X177845662Y-87588010D01*
X177841960Y-87569232D01*
X177839711Y-87550227D01*
X177837742Y-87547836D01*
X177837143Y-87544798D01*
X177823875Y-87531000D01*
X177811709Y-87516230D01*
X177808761Y-87515283D01*
X177806614Y-87513051D01*
X177787993Y-87508617D01*
X177769773Y-87502769D01*
X177766780Y-87503566D01*
X176774702Y-87267358D01*
X176741939Y-87269059D01*
X176706171Y-87294759D01*
X176689976Y-87335717D01*
X176155143Y-87335717D01*
X176155143Y-86589302D01*
X176690105Y-86589302D01*
X176692819Y-86595845D01*
X176692819Y-86956503D01*
X176690449Y-86972987D01*
X176697368Y-86988139D01*
X176702062Y-87004123D01*
X176706374Y-87007859D01*
X176708745Y-87013051D01*
X176722761Y-87022058D01*
X176735348Y-87032965D01*
X176740994Y-87033776D01*
X176745797Y-87036863D01*
X176762459Y-87036863D01*
X176778943Y-87039233D01*
X176784133Y-87036863D01*
X177286268Y-87036863D01*
X177302752Y-87039233D01*
X177307942Y-87036863D01*
X177778601Y-87036863D01*
X177810079Y-87027620D01*
X177838921Y-86994334D01*
X177845189Y-86950739D01*
X177826893Y-86910675D01*
X177789841Y-86886863D01*
X177366628Y-86886863D01*
X177366628Y-86762816D01*
X177819662Y-86445694D01*
X177840149Y-86420071D01*
X177844689Y-86376262D01*
X177824824Y-86336953D01*
X177786860Y-86314623D01*
X177742851Y-86316364D01*
X177367238Y-86579292D01*
X177368558Y-86567067D01*
X177361703Y-86553357D01*
X177357385Y-86538651D01*
X177352030Y-86534011D01*
X177315296Y-86460542D01*
X177312614Y-86448212D01*
X177297994Y-86433592D01*
X177283925Y-86418467D01*
X177282506Y-86418104D01*
X177256071Y-86391669D01*
X177249628Y-86380820D01*
X177231127Y-86371569D01*
X177213005Y-86361674D01*
X177211544Y-86361778D01*
X177138303Y-86325158D01*
X177123174Y-86315435D01*
X177107844Y-86315435D01*
X177092761Y-86312721D01*
X177086217Y-86315435D01*
X176962326Y-86315435D01*
X176944451Y-86313505D01*
X176930741Y-86320359D01*
X176916035Y-86324678D01*
X176911395Y-86330032D01*
X176837926Y-86366766D01*
X176825596Y-86369449D01*
X176810976Y-86384068D01*
X176795851Y-86398138D01*
X176795488Y-86399556D01*
X176769053Y-86425991D01*
X176758204Y-86432435D01*
X176748953Y-86450935D01*
X176739058Y-86469058D01*
X176739162Y-86470518D01*
X176702542Y-86543759D01*
X176692819Y-86558889D01*
X176692819Y-86574219D01*
X176690105Y-86589302D01*
X176155143Y-86589302D01*
X176155143Y-85755786D01*
X178265857Y-85755786D01*
X178265857Y-89809357D01*
G37*
D13*
X156669119Y-86106244D02*
X156548111Y-86143072D01*
X156548111Y-86143072D02*
X156421842Y-86269341D01*
X156421842Y-86269341D02*
X156332402Y-86442961D01*
X156332402Y-86442961D02*
X156321879Y-86621842D01*
X156321879Y-86621842D02*
X156353446Y-86758634D01*
X156353446Y-86758634D02*
X156458671Y-86990127D01*
X156458671Y-86990127D02*
X156569156Y-87132180D01*
X156569156Y-87132180D02*
X156758560Y-87279494D01*
X156758560Y-87279494D02*
X156874306Y-87332106D01*
X156874306Y-87332106D02*
X157032143Y-87342628D01*
X157032143Y-87342628D02*
X157195240Y-87263710D01*
X157195240Y-87263710D02*
X157279420Y-87179531D01*
X157279420Y-87179531D02*
X157368860Y-87005911D01*
X157368860Y-87005911D02*
X157374121Y-86916470D01*
X157374121Y-86916470D02*
X157116322Y-86585014D01*
X157116322Y-86585014D02*
X156947963Y-86753373D01*
X157826585Y-86632365D02*
X157053187Y-85637996D01*
X157053187Y-85637996D02*
X158331662Y-86127288D01*
X158331662Y-86127288D02*
X157558264Y-85132919D01*
X158752559Y-85706391D02*
X157979161Y-84712022D01*
X157979161Y-84712022D02*
X158189609Y-84501574D01*
X158189609Y-84501574D02*
X158352707Y-84422656D01*
X158352707Y-84422656D02*
X158510543Y-84433178D01*
X158510543Y-84433178D02*
X158626290Y-84485790D01*
X158626290Y-84485790D02*
X158815693Y-84633104D01*
X158815693Y-84633104D02*
X158926179Y-84775157D01*
X158926179Y-84775157D02*
X159031403Y-85006650D01*
X159031403Y-85006650D02*
X159062970Y-85143442D01*
X159062970Y-85143442D02*
X159052448Y-85322323D01*
X159052448Y-85322323D02*
X158963007Y-85495943D01*
X158963007Y-85495943D02*
X158752559Y-85706391D01*
X136780702Y-87577748D02*
X136007304Y-86583379D01*
X136007304Y-86583379D02*
X136344021Y-86246662D01*
X136344021Y-86246662D02*
X136465029Y-86209833D01*
X136465029Y-86209833D02*
X136543948Y-86215094D01*
X136543948Y-86215094D02*
X136659694Y-86267707D01*
X136659694Y-86267707D02*
X136770180Y-86409759D01*
X136770180Y-86409759D02*
X136801747Y-86546551D01*
X136801747Y-86546551D02*
X136796486Y-86635991D01*
X136796486Y-86635991D02*
X136749135Y-86767522D01*
X136749135Y-86767522D02*
X136412417Y-87104239D01*
X137554100Y-85878377D02*
X137717198Y-85799459D01*
X137717198Y-85799459D02*
X137796116Y-85804720D01*
X137796116Y-85804720D02*
X137911862Y-85857332D01*
X137911862Y-85857332D02*
X138022348Y-85999385D01*
X138022348Y-85999385D02*
X138053915Y-86136176D01*
X138053915Y-86136176D02*
X138048654Y-86225617D01*
X138048654Y-86225617D02*
X138001303Y-86357147D01*
X138001303Y-86357147D02*
X137664585Y-86693865D01*
X137664585Y-86693865D02*
X136891187Y-85699496D01*
X136891187Y-85699496D02*
X137185815Y-85404868D01*
X137185815Y-85404868D02*
X137306823Y-85368039D01*
X137306823Y-85368039D02*
X137385741Y-85373301D01*
X137385741Y-85373301D02*
X137501488Y-85425913D01*
X137501488Y-85425913D02*
X137575145Y-85520615D01*
X137575145Y-85520615D02*
X137606712Y-85657406D01*
X137606712Y-85657406D02*
X137601451Y-85746847D01*
X137601451Y-85746847D02*
X137554100Y-85878377D01*
X137554100Y-85878377D02*
X137259472Y-86173005D01*
X138153878Y-84436805D02*
X137985519Y-84605164D01*
X137985519Y-84605164D02*
X137938168Y-84736694D01*
X137938168Y-84736694D02*
X137932907Y-84826135D01*
X137932907Y-84826135D02*
X137959213Y-85052367D01*
X137959213Y-85052367D02*
X138064438Y-85283860D01*
X138064438Y-85283860D02*
X138359065Y-85662667D01*
X138359065Y-85662667D02*
X138474812Y-85715279D01*
X138474812Y-85715279D02*
X138553730Y-85720541D01*
X138553730Y-85720541D02*
X138674738Y-85683712D01*
X138674738Y-85683712D02*
X138843097Y-85515353D01*
X138843097Y-85515353D02*
X138890448Y-85383823D01*
X138890448Y-85383823D02*
X138895709Y-85294383D01*
X138895709Y-85294383D02*
X138864142Y-85157591D01*
X138864142Y-85157591D02*
X138679999Y-84920837D01*
X138679999Y-84920837D02*
X138564253Y-84868224D01*
X138564253Y-84868224D02*
X138485334Y-84862963D01*
X138485334Y-84862963D02*
X138364327Y-84899792D01*
X138364327Y-84899792D02*
X138195968Y-85068150D01*
X138195968Y-85068150D02*
X138148617Y-85199681D01*
X138148617Y-85199681D02*
X138143356Y-85289121D01*
X138143356Y-85289121D02*
X138174923Y-85425913D01*
D12*
G36*
X123877217Y-89002990D02*
G01*
X123951329Y-89077102D01*
X123989823Y-89154088D01*
X124033207Y-89327623D01*
X124033207Y-89452013D01*
X123989823Y-89625545D01*
X123951329Y-89702534D01*
X123877217Y-89776647D01*
X123762702Y-89814819D01*
X123611779Y-89814819D01*
X123611779Y-88964819D01*
X123762704Y-88964819D01*
X123877217Y-89002990D01*
G37*
G36*
X124972455Y-89479180D02*
G01*
X124998948Y-89505673D01*
X125033207Y-89574189D01*
X125033207Y-89681636D01*
X124998948Y-89750153D01*
X124968540Y-89780561D01*
X124900026Y-89814819D01*
X124611779Y-89814819D01*
X124611779Y-89441009D01*
X124857942Y-89441009D01*
X124972455Y-89479180D01*
G37*
G36*
X124920923Y-88999077D02*
G01*
X124951329Y-89029483D01*
X124985588Y-89097999D01*
X124985588Y-89157827D01*
X124951329Y-89226344D01*
X124920922Y-89256751D01*
X124853691Y-89290366D01*
X124850815Y-89290263D01*
X124849556Y-89291009D01*
X124611779Y-89291009D01*
X124611779Y-88964819D01*
X124852406Y-88964819D01*
X124920923Y-88999077D01*
G37*
G36*
X126742857Y-90387857D02*
G01*
X122832143Y-90387857D01*
X122832143Y-89900943D01*
X123459409Y-89900943D01*
X123466328Y-89916095D01*
X123471022Y-89932079D01*
X123475334Y-89935815D01*
X123477705Y-89941007D01*
X123491721Y-89950014D01*
X123504308Y-89960921D01*
X123509954Y-89961732D01*
X123514757Y-89964819D01*
X123531419Y-89964819D01*
X123547903Y-89967189D01*
X123553093Y-89964819D01*
X123765472Y-89964819D01*
X123777699Y-89967934D01*
X123797311Y-89961396D01*
X123817134Y-89955576D01*
X123818092Y-89954469D01*
X123937618Y-89914627D01*
X123955192Y-89910805D01*
X123965053Y-89900943D01*
X124459409Y-89900943D01*
X124466328Y-89916095D01*
X124471022Y-89932079D01*
X124475334Y-89935815D01*
X124477705Y-89941007D01*
X124491721Y-89950014D01*
X124504308Y-89960921D01*
X124509954Y-89961732D01*
X124514757Y-89964819D01*
X124531419Y-89964819D01*
X124547903Y-89967189D01*
X124553093Y-89964819D01*
X124913691Y-89964819D01*
X124931575Y-89966750D01*
X124945288Y-89959893D01*
X124959991Y-89955576D01*
X124964629Y-89950222D01*
X125038097Y-89913487D01*
X125050431Y-89910805D01*
X125065062Y-89896172D01*
X125080175Y-89882116D01*
X125080537Y-89880696D01*
X125106971Y-89854262D01*
X125117822Y-89847818D01*
X125127078Y-89829304D01*
X125136968Y-89811194D01*
X125136863Y-89809734D01*
X125173485Y-89736490D01*
X125183207Y-89721364D01*
X125183207Y-89706034D01*
X125185921Y-89690951D01*
X125183207Y-89684407D01*
X125183206Y-89560515D01*
X125185137Y-89542641D01*
X125178282Y-89528931D01*
X125173964Y-89514225D01*
X125168609Y-89509585D01*
X125142853Y-89458073D01*
X125411058Y-89458073D01*
X125414160Y-89470481D01*
X125414160Y-89472029D01*
X125416764Y-89480898D01*
X125460778Y-89656953D01*
X125459848Y-89665567D01*
X125466014Y-89677900D01*
X125466633Y-89680373D01*
X125470815Y-89687500D01*
X125513110Y-89772090D01*
X125515793Y-89784422D01*
X125530422Y-89799051D01*
X125544482Y-89814167D01*
X125545900Y-89814529D01*
X125623748Y-89892378D01*
X125635027Y-89906387D01*
X125649568Y-89911234D01*
X125663021Y-89918580D01*
X125670089Y-89918074D01*
X125789856Y-89957997D01*
X125800471Y-89964819D01*
X125821150Y-89964819D01*
X125841790Y-89965565D01*
X125843049Y-89964819D01*
X125908329Y-89964819D01*
X125920556Y-89967934D01*
X125940168Y-89961396D01*
X125959991Y-89955576D01*
X125960949Y-89954469D01*
X126080473Y-89914628D01*
X126098050Y-89910805D01*
X126108891Y-89899962D01*
X126121473Y-89891219D01*
X126124180Y-89884673D01*
X126151671Y-89857180D01*
X126159395Y-89853654D01*
X126166943Y-89841908D01*
X126168864Y-89839988D01*
X126172743Y-89832883D01*
X126183207Y-89816602D01*
X126183207Y-89813721D01*
X126184587Y-89811194D01*
X126183206Y-89791905D01*
X126183207Y-89466606D01*
X126185577Y-89450123D01*
X126178657Y-89434970D01*
X126173964Y-89418987D01*
X126169651Y-89415250D01*
X126167281Y-89410059D01*
X126153264Y-89401051D01*
X126140678Y-89390145D01*
X126135031Y-89389333D01*
X126130229Y-89386247D01*
X126113567Y-89386247D01*
X126097083Y-89383877D01*
X126091893Y-89386247D01*
X125906949Y-89386247D01*
X125875471Y-89395490D01*
X125846629Y-89428776D01*
X125840361Y-89472371D01*
X125858657Y-89512435D01*
X125895709Y-89536247D01*
X126033207Y-89536247D01*
X126033207Y-89763514D01*
X126020074Y-89776647D01*
X125905559Y-89814819D01*
X125834663Y-89814819D01*
X125720148Y-89776647D01*
X125646036Y-89702533D01*
X125607543Y-89625547D01*
X125564160Y-89452013D01*
X125564160Y-89327624D01*
X125607543Y-89154091D01*
X125646037Y-89077102D01*
X125720149Y-89002990D01*
X125834664Y-88964819D01*
X125947644Y-88964819D01*
X126036690Y-89009342D01*
X126068979Y-89015152D01*
X126109662Y-88998279D01*
X126134764Y-88962089D01*
X126136317Y-88918073D01*
X126113826Y-88880204D01*
X126002501Y-88824542D01*
X125987372Y-88814819D01*
X125972042Y-88814819D01*
X125956959Y-88812105D01*
X125950415Y-88814819D01*
X125831895Y-88814819D01*
X125819667Y-88811704D01*
X125800047Y-88818243D01*
X125780233Y-88824062D01*
X125779274Y-88825168D01*
X125659745Y-88865010D01*
X125642175Y-88868833D01*
X125631336Y-88879671D01*
X125618750Y-88888419D01*
X125616041Y-88894966D01*
X125538013Y-88972994D01*
X125527164Y-88979438D01*
X125517913Y-88997938D01*
X125508018Y-89016061D01*
X125508122Y-89017521D01*
X125475670Y-89082425D01*
X125469359Y-89088360D01*
X125466014Y-89101737D01*
X125464875Y-89104017D01*
X125463411Y-89112149D01*
X125419392Y-89288226D01*
X125414160Y-89296368D01*
X125414160Y-89309155D01*
X125413784Y-89310660D01*
X125414160Y-89319906D01*
X125414160Y-89448904D01*
X125411058Y-89458073D01*
X125142853Y-89458073D01*
X125131875Y-89436116D01*
X125129193Y-89423786D01*
X125114573Y-89409166D01*
X125100504Y-89394041D01*
X125099085Y-89393678D01*
X125068855Y-89363448D01*
X125057578Y-89349441D01*
X125044668Y-89345137D01*
X125059353Y-89330452D01*
X125070203Y-89324009D01*
X125079457Y-89305499D01*
X125089348Y-89287386D01*
X125089243Y-89285927D01*
X125125866Y-89212681D01*
X125135588Y-89197555D01*
X125135588Y-89182225D01*
X125138302Y-89167142D01*
X125135588Y-89160598D01*
X125135588Y-89084325D01*
X125137518Y-89066451D01*
X125130663Y-89052741D01*
X125126345Y-89038035D01*
X125120990Y-89033395D01*
X125084256Y-88959926D01*
X125081574Y-88947596D01*
X125066954Y-88932976D01*
X125052885Y-88917851D01*
X125051466Y-88917488D01*
X125025031Y-88891053D01*
X125018588Y-88880204D01*
X125000087Y-88870953D01*
X124981965Y-88861058D01*
X124980504Y-88861162D01*
X124907263Y-88824542D01*
X124892134Y-88814819D01*
X124876804Y-88814819D01*
X124861721Y-88812105D01*
X124855177Y-88814819D01*
X124542139Y-88814819D01*
X124525655Y-88812449D01*
X124510502Y-88819368D01*
X124494519Y-88824062D01*
X124490782Y-88828374D01*
X124485591Y-88830745D01*
X124476583Y-88844761D01*
X124465677Y-88857348D01*
X124464865Y-88862994D01*
X124461779Y-88867797D01*
X124461779Y-88884459D01*
X124459409Y-88900943D01*
X124461778Y-88906132D01*
X124461779Y-89360649D01*
X124459409Y-89377133D01*
X124461778Y-89382322D01*
X124461779Y-89884459D01*
X124459409Y-89900943D01*
X123965053Y-89900943D01*
X123966032Y-89899964D01*
X123978616Y-89891219D01*
X123981323Y-89884672D01*
X124059353Y-89806642D01*
X124070203Y-89800199D01*
X124079453Y-89781698D01*
X124089349Y-89763575D01*
X124089244Y-89762115D01*
X124121696Y-89697212D01*
X124128008Y-89691278D01*
X124131352Y-89677900D01*
X124132492Y-89675621D01*
X124133955Y-89667488D01*
X124177974Y-89491410D01*
X124183207Y-89483269D01*
X124183207Y-89470481D01*
X124183583Y-89468977D01*
X124183207Y-89459730D01*
X124183207Y-89330732D01*
X124186309Y-89321564D01*
X124183207Y-89309155D01*
X124183207Y-89307608D01*
X124180602Y-89298738D01*
X124136588Y-89122681D01*
X124137518Y-89114070D01*
X124131352Y-89101739D01*
X124130734Y-89099264D01*
X124126546Y-89092125D01*
X124084256Y-89007545D01*
X124081574Y-88995215D01*
X124066954Y-88980595D01*
X124052885Y-88965470D01*
X124051466Y-88965107D01*
X123973617Y-88887258D01*
X123962340Y-88873251D01*
X123947798Y-88868403D01*
X123934346Y-88861058D01*
X123927278Y-88861563D01*
X123807511Y-88821641D01*
X123796896Y-88814819D01*
X123776216Y-88814819D01*
X123755577Y-88814073D01*
X123754318Y-88814819D01*
X123542139Y-88814819D01*
X123525655Y-88812449D01*
X123510502Y-88819368D01*
X123494519Y-88824062D01*
X123490782Y-88828374D01*
X123485591Y-88830745D01*
X123476583Y-88844761D01*
X123465677Y-88857348D01*
X123464865Y-88862994D01*
X123461779Y-88867797D01*
X123461779Y-88884459D01*
X123459409Y-88900943D01*
X123461778Y-88906132D01*
X123461779Y-89884459D01*
X123459409Y-89900943D01*
X122832143Y-89900943D01*
X122832143Y-88277143D01*
X126742857Y-88277143D01*
X126742857Y-90387857D01*
G37*
D13*
X131480702Y-87677748D02*
X130707304Y-86683379D01*
X130707304Y-86683379D02*
X131044021Y-86346662D01*
X131044021Y-86346662D02*
X131165029Y-86309833D01*
X131165029Y-86309833D02*
X131243948Y-86315094D01*
X131243948Y-86315094D02*
X131359694Y-86367707D01*
X131359694Y-86367707D02*
X131470180Y-86509759D01*
X131470180Y-86509759D02*
X131501747Y-86646551D01*
X131501747Y-86646551D02*
X131496486Y-86735991D01*
X131496486Y-86735991D02*
X131449135Y-86867522D01*
X131449135Y-86867522D02*
X131112417Y-87204239D01*
X132254100Y-85978377D02*
X132417198Y-85899459D01*
X132417198Y-85899459D02*
X132496116Y-85904720D01*
X132496116Y-85904720D02*
X132611862Y-85957332D01*
X132611862Y-85957332D02*
X132722348Y-86099385D01*
X132722348Y-86099385D02*
X132753915Y-86236176D01*
X132753915Y-86236176D02*
X132748654Y-86325617D01*
X132748654Y-86325617D02*
X132701303Y-86457147D01*
X132701303Y-86457147D02*
X132364585Y-86793865D01*
X132364585Y-86793865D02*
X131591187Y-85799496D01*
X131591187Y-85799496D02*
X131885815Y-85504868D01*
X131885815Y-85504868D02*
X132006823Y-85468039D01*
X132006823Y-85468039D02*
X132085741Y-85473301D01*
X132085741Y-85473301D02*
X132201488Y-85525913D01*
X132201488Y-85525913D02*
X132275145Y-85620615D01*
X132275145Y-85620615D02*
X132306712Y-85757406D01*
X132306712Y-85757406D02*
X132301451Y-85846847D01*
X132301451Y-85846847D02*
X132254100Y-85978377D01*
X132254100Y-85978377D02*
X131959472Y-86273005D01*
X132390892Y-84999792D02*
X132980147Y-84410536D01*
X132980147Y-84410536D02*
X133374738Y-85783712D01*
X162006958Y-84478123D02*
X162780768Y-84478123D01*
X162780768Y-84478123D02*
X162304578Y-84954314D01*
X162304578Y-84954314D02*
X162483149Y-84954314D01*
X162483149Y-84954314D02*
X162594756Y-85013838D01*
X162594756Y-85013838D02*
X162646839Y-85073361D01*
X162646839Y-85073361D02*
X162691482Y-85192409D01*
X162691482Y-85192409D02*
X162654280Y-85490028D01*
X162654280Y-85490028D02*
X162579875Y-85609076D01*
X162579875Y-85609076D02*
X162512911Y-85668600D01*
X162512911Y-85668600D02*
X162386423Y-85728123D01*
X162386423Y-85728123D02*
X162029280Y-85728123D01*
X162029280Y-85728123D02*
X161917673Y-85668600D01*
X161917673Y-85668600D02*
X161865589Y-85609076D01*
X163137911Y-84478123D02*
X163398327Y-85728123D01*
X163398327Y-85728123D02*
X163971244Y-84478123D01*
X164268863Y-84478123D02*
X165042673Y-84478123D01*
X165042673Y-84478123D02*
X164566483Y-84954314D01*
X164566483Y-84954314D02*
X164745054Y-84954314D01*
X164745054Y-84954314D02*
X164856661Y-85013838D01*
X164856661Y-85013838D02*
X164908744Y-85073361D01*
X164908744Y-85073361D02*
X164953387Y-85192409D01*
X164953387Y-85192409D02*
X164916185Y-85490028D01*
X164916185Y-85490028D02*
X164841780Y-85609076D01*
X164841780Y-85609076D02*
X164774816Y-85668600D01*
X164774816Y-85668600D02*
X164648328Y-85728123D01*
X164648328Y-85728123D02*
X164291185Y-85728123D01*
X164291185Y-85728123D02*
X164179578Y-85668600D01*
X164179578Y-85668600D02*
X164127494Y-85609076D01*
X158380702Y-111327748D02*
X157607304Y-110333379D01*
X157607304Y-110333379D02*
X157944021Y-109996662D01*
X157944021Y-109996662D02*
X158065029Y-109959833D01*
X158065029Y-109959833D02*
X158143948Y-109965094D01*
X158143948Y-109965094D02*
X158259694Y-110017707D01*
X158259694Y-110017707D02*
X158370180Y-110159759D01*
X158370180Y-110159759D02*
X158401747Y-110296551D01*
X158401747Y-110296551D02*
X158396486Y-110385991D01*
X158396486Y-110385991D02*
X158349135Y-110517522D01*
X158349135Y-110517522D02*
X158012417Y-110854239D01*
X159154100Y-109628377D02*
X159317198Y-109549459D01*
X159317198Y-109549459D02*
X159396116Y-109554720D01*
X159396116Y-109554720D02*
X159511862Y-109607332D01*
X159511862Y-109607332D02*
X159622348Y-109749385D01*
X159622348Y-109749385D02*
X159653915Y-109886176D01*
X159653915Y-109886176D02*
X159648654Y-109975617D01*
X159648654Y-109975617D02*
X159601303Y-110107147D01*
X159601303Y-110107147D02*
X159264585Y-110443865D01*
X159264585Y-110443865D02*
X158491187Y-109449496D01*
X158491187Y-109449496D02*
X158785815Y-109154868D01*
X158785815Y-109154868D02*
X158906823Y-109118039D01*
X158906823Y-109118039D02*
X158985741Y-109123301D01*
X158985741Y-109123301D02*
X159101488Y-109175913D01*
X159101488Y-109175913D02*
X159175145Y-109270615D01*
X159175145Y-109270615D02*
X159206712Y-109407406D01*
X159206712Y-109407406D02*
X159201451Y-109496847D01*
X159201451Y-109496847D02*
X159154100Y-109628377D01*
X159154100Y-109628377D02*
X158859472Y-109923005D01*
X159406638Y-108702404D02*
X159411899Y-108612963D01*
X159411899Y-108612963D02*
X159459250Y-108481433D01*
X159459250Y-108481433D02*
X159669699Y-108270984D01*
X159669699Y-108270984D02*
X159790707Y-108234156D01*
X159790707Y-108234156D02*
X159869625Y-108239417D01*
X159869625Y-108239417D02*
X159985371Y-108292029D01*
X159985371Y-108292029D02*
X160059028Y-108386731D01*
X160059028Y-108386731D02*
X160127424Y-108570874D01*
X160127424Y-108570874D02*
X160064290Y-109644161D01*
X160064290Y-109644161D02*
X160611456Y-109096995D01*
X141980702Y-87577748D02*
X141207304Y-86583379D01*
X141207304Y-86583379D02*
X141544021Y-86246662D01*
X141544021Y-86246662D02*
X141665029Y-86209833D01*
X141665029Y-86209833D02*
X141743948Y-86215094D01*
X141743948Y-86215094D02*
X141859694Y-86267707D01*
X141859694Y-86267707D02*
X141970180Y-86409759D01*
X141970180Y-86409759D02*
X142001747Y-86546551D01*
X142001747Y-86546551D02*
X141996486Y-86635991D01*
X141996486Y-86635991D02*
X141949135Y-86767522D01*
X141949135Y-86767522D02*
X141612417Y-87104239D01*
X142754100Y-85878377D02*
X142917198Y-85799459D01*
X142917198Y-85799459D02*
X142996116Y-85804720D01*
X142996116Y-85804720D02*
X143111862Y-85857332D01*
X143111862Y-85857332D02*
X143222348Y-85999385D01*
X143222348Y-85999385D02*
X143253915Y-86136176D01*
X143253915Y-86136176D02*
X143248654Y-86225617D01*
X143248654Y-86225617D02*
X143201303Y-86357147D01*
X143201303Y-86357147D02*
X142864585Y-86693865D01*
X142864585Y-86693865D02*
X142091187Y-85699496D01*
X142091187Y-85699496D02*
X142385815Y-85404868D01*
X142385815Y-85404868D02*
X142506823Y-85368039D01*
X142506823Y-85368039D02*
X142585741Y-85373301D01*
X142585741Y-85373301D02*
X142701488Y-85425913D01*
X142701488Y-85425913D02*
X142775145Y-85520615D01*
X142775145Y-85520615D02*
X142806712Y-85657406D01*
X142806712Y-85657406D02*
X142801451Y-85746847D01*
X142801451Y-85746847D02*
X142754100Y-85878377D01*
X142754100Y-85878377D02*
X142459472Y-86173005D01*
X143395968Y-84394715D02*
X142975071Y-84815612D01*
X142975071Y-84815612D02*
X143301266Y-85331211D01*
X143301266Y-85331211D02*
X143306527Y-85241770D01*
X143306527Y-85241770D02*
X143353878Y-85110240D01*
X143353878Y-85110240D02*
X143564327Y-84899792D01*
X143564327Y-84899792D02*
X143685334Y-84862963D01*
X143685334Y-84862963D02*
X143764253Y-84868224D01*
X143764253Y-84868224D02*
X143879999Y-84920837D01*
X143879999Y-84920837D02*
X144064142Y-85157591D01*
X144064142Y-85157591D02*
X144095709Y-85294383D01*
X144095709Y-85294383D02*
X144090448Y-85383823D01*
X144090448Y-85383823D02*
X144043097Y-85515353D01*
X144043097Y-85515353D02*
X143832648Y-85725802D01*
X143832648Y-85725802D02*
X143711640Y-85762630D01*
X143711640Y-85762630D02*
X143632722Y-85757369D01*
X163480702Y-111327748D02*
X162707304Y-110333379D01*
X162707304Y-110333379D02*
X163044021Y-109996662D01*
X163044021Y-109996662D02*
X163165029Y-109959833D01*
X163165029Y-109959833D02*
X163243948Y-109965094D01*
X163243948Y-109965094D02*
X163359694Y-110017707D01*
X163359694Y-110017707D02*
X163470180Y-110159759D01*
X163470180Y-110159759D02*
X163501747Y-110296551D01*
X163501747Y-110296551D02*
X163496486Y-110385991D01*
X163496486Y-110385991D02*
X163449135Y-110517522D01*
X163449135Y-110517522D02*
X163112417Y-110854239D01*
X164254100Y-109628377D02*
X164417198Y-109549459D01*
X164417198Y-109549459D02*
X164496116Y-109554720D01*
X164496116Y-109554720D02*
X164611862Y-109607332D01*
X164611862Y-109607332D02*
X164722348Y-109749385D01*
X164722348Y-109749385D02*
X164753915Y-109886176D01*
X164753915Y-109886176D02*
X164748654Y-109975617D01*
X164748654Y-109975617D02*
X164701303Y-110107147D01*
X164701303Y-110107147D02*
X164364585Y-110443865D01*
X164364585Y-110443865D02*
X163591187Y-109449496D01*
X163591187Y-109449496D02*
X163885815Y-109154868D01*
X163885815Y-109154868D02*
X164006823Y-109118039D01*
X164006823Y-109118039D02*
X164085741Y-109123301D01*
X164085741Y-109123301D02*
X164201488Y-109175913D01*
X164201488Y-109175913D02*
X164275145Y-109270615D01*
X164275145Y-109270615D02*
X164306712Y-109407406D01*
X164306712Y-109407406D02*
X164301451Y-109496847D01*
X164301451Y-109496847D02*
X164254100Y-109628377D01*
X164254100Y-109628377D02*
X163959472Y-109923005D01*
X165711456Y-109096995D02*
X165206379Y-109602071D01*
X165458917Y-109349533D02*
X164685519Y-108355164D01*
X164685519Y-108355164D02*
X164711825Y-108581396D01*
X164711825Y-108581396D02*
X164701303Y-108760277D01*
X164701303Y-108760277D02*
X164653952Y-108891807D01*
X166553249Y-108255201D02*
X166048173Y-108760277D01*
X166300711Y-108507739D02*
X165527313Y-107513370D01*
X165527313Y-107513370D02*
X165553619Y-107739602D01*
X165553619Y-107739602D02*
X165543097Y-107918483D01*
X165543097Y-107918483D02*
X165495746Y-108050014D01*
D12*
X145379214Y-108963546D02*
X145429722Y-108966913D01*
X145429722Y-108966913D02*
X145426355Y-109024155D01*
X145426355Y-109024155D02*
X145375847Y-109020788D01*
X145375847Y-109020788D02*
X145379214Y-108963546D01*
X145379214Y-108963546D02*
X145426355Y-109024155D01*
X145645221Y-108751414D02*
X145749603Y-108700906D01*
X145749603Y-108700906D02*
X145884290Y-108566219D01*
X145884290Y-108566219D02*
X145914595Y-108482040D01*
X145914595Y-108482040D02*
X145917962Y-108424798D01*
X145917962Y-108424798D02*
X145897759Y-108337252D01*
X145897759Y-108337252D02*
X145850619Y-108276642D01*
X145850619Y-108276642D02*
X145776541Y-108242971D01*
X145776541Y-108242971D02*
X145726033Y-108239603D01*
X145726033Y-108239603D02*
X145648588Y-108263174D01*
X145648588Y-108263174D02*
X145517268Y-108340619D01*
X145517268Y-108340619D02*
X145439823Y-108364189D01*
X145439823Y-108364189D02*
X145389316Y-108360822D01*
X145389316Y-108360822D02*
X145315238Y-108327150D01*
X145315238Y-108327150D02*
X145268097Y-108266541D01*
X145268097Y-108266541D02*
X145247894Y-108178994D01*
X145247894Y-108178994D02*
X145251262Y-108121752D01*
X145251262Y-108121752D02*
X145281566Y-108037573D01*
X145281566Y-108037573D02*
X145416253Y-107902886D01*
X145416253Y-107902886D02*
X145520636Y-107852378D01*
X146510585Y-107832175D02*
X146507218Y-107889417D01*
X146507218Y-107889417D02*
X146449976Y-108000534D01*
X146449976Y-108000534D02*
X146396101Y-108054409D01*
X146396101Y-108054409D02*
X146291719Y-108104916D01*
X146291719Y-108104916D02*
X146190704Y-108098182D01*
X146190704Y-108098182D02*
X146116626Y-108064510D01*
X146116626Y-108064510D02*
X145995407Y-107970229D01*
X145995407Y-107970229D02*
X145924697Y-107879316D01*
X145924697Y-107879316D02*
X145857353Y-107731160D01*
X145857353Y-107731160D02*
X145837150Y-107643613D01*
X145837150Y-107643613D02*
X145843885Y-107529129D01*
X145843885Y-107529129D02*
X145901126Y-107418013D01*
X145901126Y-107418013D02*
X145955001Y-107364138D01*
X145955001Y-107364138D02*
X146059384Y-107313630D01*
X146059384Y-107313630D02*
X146109891Y-107316997D01*
X146800162Y-107650348D02*
X146305188Y-107013952D01*
X147123411Y-107327099D02*
X146598132Y-107205881D01*
X146628436Y-106690703D02*
X146588030Y-107377606D01*
X146891076Y-106535813D02*
X146894443Y-106478571D01*
X146894443Y-106478571D02*
X146924748Y-106394391D01*
X146924748Y-106394391D02*
X147059435Y-106259704D01*
X147059435Y-106259704D02*
X147136880Y-106236134D01*
X147136880Y-106236134D02*
X147187387Y-106239501D01*
X147187387Y-106239501D02*
X147261465Y-106273173D01*
X147261465Y-106273173D02*
X147308606Y-106333782D01*
X147308606Y-106333782D02*
X147352379Y-106451633D01*
X147352379Y-106451633D02*
X147311973Y-107138537D01*
X147311973Y-107138537D02*
X147662159Y-106788351D01*
D13*
X144680702Y-87377748D02*
X143907304Y-86383379D01*
X143907304Y-86383379D02*
X144244021Y-86046662D01*
X144244021Y-86046662D02*
X144365029Y-86009833D01*
X144365029Y-86009833D02*
X144443948Y-86015094D01*
X144443948Y-86015094D02*
X144559694Y-86067707D01*
X144559694Y-86067707D02*
X144670180Y-86209759D01*
X144670180Y-86209759D02*
X144701747Y-86346551D01*
X144701747Y-86346551D02*
X144696486Y-86435991D01*
X144696486Y-86435991D02*
X144649135Y-86567522D01*
X144649135Y-86567522D02*
X144312417Y-86904239D01*
X145454100Y-85678377D02*
X145617198Y-85599459D01*
X145617198Y-85599459D02*
X145696116Y-85604720D01*
X145696116Y-85604720D02*
X145811862Y-85657332D01*
X145811862Y-85657332D02*
X145922348Y-85799385D01*
X145922348Y-85799385D02*
X145953915Y-85936176D01*
X145953915Y-85936176D02*
X145948654Y-86025617D01*
X145948654Y-86025617D02*
X145901303Y-86157147D01*
X145901303Y-86157147D02*
X145564585Y-86493865D01*
X145564585Y-86493865D02*
X144791187Y-85499496D01*
X144791187Y-85499496D02*
X145085815Y-85204868D01*
X145085815Y-85204868D02*
X145206823Y-85168039D01*
X145206823Y-85168039D02*
X145285741Y-85173301D01*
X145285741Y-85173301D02*
X145401488Y-85225913D01*
X145401488Y-85225913D02*
X145475145Y-85320615D01*
X145475145Y-85320615D02*
X145506712Y-85457406D01*
X145506712Y-85457406D02*
X145501451Y-85546847D01*
X145501451Y-85546847D02*
X145454100Y-85678377D01*
X145454100Y-85678377D02*
X145159472Y-85973005D01*
X146311677Y-84568261D02*
X146827276Y-85231174D01*
X145806601Y-84399903D02*
X146148580Y-85320615D01*
X146148580Y-85320615D02*
X146695746Y-84773449D01*
X153330702Y-111327748D02*
X152557304Y-110333379D01*
X152557304Y-110333379D02*
X152894021Y-109996662D01*
X152894021Y-109996662D02*
X153015029Y-109959833D01*
X153015029Y-109959833D02*
X153093948Y-109965094D01*
X153093948Y-109965094D02*
X153209694Y-110017707D01*
X153209694Y-110017707D02*
X153320180Y-110159759D01*
X153320180Y-110159759D02*
X153351747Y-110296551D01*
X153351747Y-110296551D02*
X153346486Y-110385991D01*
X153346486Y-110385991D02*
X153299135Y-110517522D01*
X153299135Y-110517522D02*
X152962417Y-110854239D01*
X154104100Y-109628377D02*
X154267198Y-109549459D01*
X154267198Y-109549459D02*
X154346116Y-109554720D01*
X154346116Y-109554720D02*
X154461862Y-109607332D01*
X154461862Y-109607332D02*
X154572348Y-109749385D01*
X154572348Y-109749385D02*
X154603915Y-109886176D01*
X154603915Y-109886176D02*
X154598654Y-109975617D01*
X154598654Y-109975617D02*
X154551303Y-110107147D01*
X154551303Y-110107147D02*
X154214585Y-110443865D01*
X154214585Y-110443865D02*
X153441187Y-109449496D01*
X153441187Y-109449496D02*
X153735815Y-109154868D01*
X153735815Y-109154868D02*
X153856823Y-109118039D01*
X153856823Y-109118039D02*
X153935741Y-109123301D01*
X153935741Y-109123301D02*
X154051488Y-109175913D01*
X154051488Y-109175913D02*
X154125145Y-109270615D01*
X154125145Y-109270615D02*
X154156712Y-109407406D01*
X154156712Y-109407406D02*
X154151451Y-109496847D01*
X154151451Y-109496847D02*
X154104100Y-109628377D01*
X154104100Y-109628377D02*
X153809472Y-109923005D01*
X154493430Y-108397254D02*
X154577609Y-108313074D01*
X154577609Y-108313074D02*
X154698617Y-108276246D01*
X154698617Y-108276246D02*
X154777535Y-108281507D01*
X154777535Y-108281507D02*
X154893282Y-108334119D01*
X154893282Y-108334119D02*
X155082685Y-108481433D01*
X155082685Y-108481433D02*
X155266828Y-108718187D01*
X155266828Y-108718187D02*
X155372052Y-108949681D01*
X155372052Y-108949681D02*
X155403619Y-109086472D01*
X155403619Y-109086472D02*
X155398358Y-109175913D01*
X155398358Y-109175913D02*
X155351007Y-109307443D01*
X155351007Y-109307443D02*
X155266828Y-109391622D01*
X155266828Y-109391622D02*
X155145820Y-109428451D01*
X155145820Y-109428451D02*
X155066902Y-109423190D01*
X155066902Y-109423190D02*
X154951155Y-109370578D01*
X154951155Y-109370578D02*
X154761751Y-109223264D01*
X154761751Y-109223264D02*
X154577609Y-108986509D01*
X154577609Y-108986509D02*
X154472385Y-108755016D01*
X154472385Y-108755016D02*
X154440818Y-108618224D01*
X154440818Y-108618224D02*
X154446079Y-108528784D01*
X154446079Y-108528784D02*
X154493430Y-108397254D01*
X125417673Y-101518600D02*
X125596244Y-101578123D01*
X125596244Y-101578123D02*
X125893863Y-101578123D01*
X125893863Y-101578123D02*
X126012911Y-101518600D01*
X126012911Y-101518600D02*
X126072435Y-101459076D01*
X126072435Y-101459076D02*
X126131958Y-101340028D01*
X126131958Y-101340028D02*
X126131958Y-101220980D01*
X126131958Y-101220980D02*
X126072435Y-101101933D01*
X126072435Y-101101933D02*
X126012911Y-101042409D01*
X126012911Y-101042409D02*
X125893863Y-100982885D01*
X125893863Y-100982885D02*
X125655768Y-100923361D01*
X125655768Y-100923361D02*
X125536720Y-100863838D01*
X125536720Y-100863838D02*
X125477197Y-100804314D01*
X125477197Y-100804314D02*
X125417673Y-100685266D01*
X125417673Y-100685266D02*
X125417673Y-100566219D01*
X125417673Y-100566219D02*
X125477197Y-100447171D01*
X125477197Y-100447171D02*
X125536720Y-100387647D01*
X125536720Y-100387647D02*
X125655768Y-100328123D01*
X125655768Y-100328123D02*
X125953387Y-100328123D01*
X125953387Y-100328123D02*
X126131958Y-100387647D01*
X126667673Y-101578123D02*
X126667673Y-100328123D01*
X126667673Y-100923361D02*
X127381958Y-100923361D01*
X127381958Y-101578123D02*
X127381958Y-100328123D01*
X127977197Y-101578123D02*
X127977197Y-100328123D01*
X127977197Y-100328123D02*
X128274816Y-100328123D01*
X128274816Y-100328123D02*
X128453387Y-100387647D01*
X128453387Y-100387647D02*
X128572435Y-100506695D01*
X128572435Y-100506695D02*
X128631958Y-100625742D01*
X128631958Y-100625742D02*
X128691482Y-100863838D01*
X128691482Y-100863838D02*
X128691482Y-101042409D01*
X128691482Y-101042409D02*
X128631958Y-101280504D01*
X128631958Y-101280504D02*
X128572435Y-101399552D01*
X128572435Y-101399552D02*
X128453387Y-101518600D01*
X128453387Y-101518600D02*
X128274816Y-101578123D01*
X128274816Y-101578123D02*
X127977197Y-101578123D01*
X129227197Y-101578123D02*
X129227197Y-100328123D01*
X129227197Y-100328123D02*
X129941482Y-101578123D01*
X129941482Y-101578123D02*
X129941482Y-100328123D01*
X133957119Y-86117744D02*
X133836111Y-86154572D01*
X133836111Y-86154572D02*
X133709842Y-86280841D01*
X133709842Y-86280841D02*
X133620402Y-86454461D01*
X133620402Y-86454461D02*
X133609879Y-86633342D01*
X133609879Y-86633342D02*
X133641446Y-86770134D01*
X133641446Y-86770134D02*
X133746671Y-87001627D01*
X133746671Y-87001627D02*
X133857156Y-87143680D01*
X133857156Y-87143680D02*
X134046560Y-87290994D01*
X134046560Y-87290994D02*
X134162306Y-87343606D01*
X134162306Y-87343606D02*
X134320143Y-87354128D01*
X134320143Y-87354128D02*
X134483240Y-87275210D01*
X134483240Y-87275210D02*
X134567420Y-87191031D01*
X134567420Y-87191031D02*
X134656860Y-87017411D01*
X134656860Y-87017411D02*
X134662121Y-86927970D01*
X134662121Y-86927970D02*
X134404322Y-86596514D01*
X134404322Y-86596514D02*
X134235963Y-86764873D01*
X135114585Y-86643865D02*
X134341187Y-85649496D01*
X134341187Y-85649496D02*
X135619662Y-86138788D01*
X135619662Y-86138788D02*
X134846264Y-85144419D01*
X136040559Y-85717891D02*
X135267161Y-84723522D01*
X135267161Y-84723522D02*
X135477609Y-84513074D01*
X135477609Y-84513074D02*
X135640707Y-84434156D01*
X135640707Y-84434156D02*
X135798543Y-84444678D01*
X135798543Y-84444678D02*
X135914290Y-84497290D01*
X135914290Y-84497290D02*
X136103693Y-84644604D01*
X136103693Y-84644604D02*
X136214179Y-84786657D01*
X136214179Y-84786657D02*
X136319403Y-85018150D01*
X136319403Y-85018150D02*
X136350970Y-85154942D01*
X136350970Y-85154942D02*
X136340448Y-85333823D01*
X136340448Y-85333823D02*
X136251007Y-85507443D01*
X136251007Y-85507443D02*
X136040559Y-85717891D01*
X150357119Y-110117744D02*
X150236111Y-110154572D01*
X150236111Y-110154572D02*
X150109842Y-110280841D01*
X150109842Y-110280841D02*
X150020402Y-110454461D01*
X150020402Y-110454461D02*
X150009879Y-110633342D01*
X150009879Y-110633342D02*
X150041446Y-110770134D01*
X150041446Y-110770134D02*
X150146671Y-111001627D01*
X150146671Y-111001627D02*
X150257156Y-111143680D01*
X150257156Y-111143680D02*
X150446560Y-111290994D01*
X150446560Y-111290994D02*
X150562306Y-111343606D01*
X150562306Y-111343606D02*
X150720143Y-111354128D01*
X150720143Y-111354128D02*
X150883240Y-111275210D01*
X150883240Y-111275210D02*
X150967420Y-111191031D01*
X150967420Y-111191031D02*
X151056860Y-111017411D01*
X151056860Y-111017411D02*
X151062121Y-110927970D01*
X151062121Y-110927970D02*
X150804322Y-110596514D01*
X150804322Y-110596514D02*
X150635963Y-110764873D01*
X151514585Y-110643865D02*
X150741187Y-109649496D01*
X150741187Y-109649496D02*
X152019662Y-110138788D01*
X152019662Y-110138788D02*
X151246264Y-109144419D01*
X152440559Y-109717891D02*
X151667161Y-108723522D01*
X151667161Y-108723522D02*
X151877609Y-108513074D01*
X151877609Y-108513074D02*
X152040707Y-108434156D01*
X152040707Y-108434156D02*
X152198543Y-108444678D01*
X152198543Y-108444678D02*
X152314290Y-108497290D01*
X152314290Y-108497290D02*
X152503693Y-108644604D01*
X152503693Y-108644604D02*
X152614179Y-108786657D01*
X152614179Y-108786657D02*
X152719403Y-109018150D01*
X152719403Y-109018150D02*
X152750970Y-109154942D01*
X152750970Y-109154942D02*
X152740448Y-109333823D01*
X152740448Y-109333823D02*
X152651007Y-109507443D01*
X152651007Y-109507443D02*
X152440559Y-109717891D01*
X165657119Y-110117744D02*
X165536111Y-110154572D01*
X165536111Y-110154572D02*
X165409842Y-110280841D01*
X165409842Y-110280841D02*
X165320402Y-110454461D01*
X165320402Y-110454461D02*
X165309879Y-110633342D01*
X165309879Y-110633342D02*
X165341446Y-110770134D01*
X165341446Y-110770134D02*
X165446671Y-111001627D01*
X165446671Y-111001627D02*
X165557156Y-111143680D01*
X165557156Y-111143680D02*
X165746560Y-111290994D01*
X165746560Y-111290994D02*
X165862306Y-111343606D01*
X165862306Y-111343606D02*
X166020143Y-111354128D01*
X166020143Y-111354128D02*
X166183240Y-111275210D01*
X166183240Y-111275210D02*
X166267420Y-111191031D01*
X166267420Y-111191031D02*
X166356860Y-111017411D01*
X166356860Y-111017411D02*
X166362121Y-110927970D01*
X166362121Y-110927970D02*
X166104322Y-110596514D01*
X166104322Y-110596514D02*
X165935963Y-110764873D01*
X166814585Y-110643865D02*
X166041187Y-109649496D01*
X166041187Y-109649496D02*
X167319662Y-110138788D01*
X167319662Y-110138788D02*
X166546264Y-109144419D01*
X167740559Y-109717891D02*
X166967161Y-108723522D01*
X166967161Y-108723522D02*
X167177609Y-108513074D01*
X167177609Y-108513074D02*
X167340707Y-108434156D01*
X167340707Y-108434156D02*
X167498543Y-108444678D01*
X167498543Y-108444678D02*
X167614290Y-108497290D01*
X167614290Y-108497290D02*
X167803693Y-108644604D01*
X167803693Y-108644604D02*
X167914179Y-108786657D01*
X167914179Y-108786657D02*
X168019403Y-109018150D01*
X168019403Y-109018150D02*
X168050970Y-109154942D01*
X168050970Y-109154942D02*
X168040448Y-109333823D01*
X168040448Y-109333823D02*
X167951007Y-109507443D01*
X167951007Y-109507443D02*
X167740559Y-109717891D01*
X150113784Y-89360987D02*
X150276881Y-89282069D01*
X150276881Y-89282069D02*
X150487330Y-89071620D01*
X150487330Y-89071620D02*
X150534681Y-88940090D01*
X150534681Y-88940090D02*
X150539942Y-88850649D01*
X150539942Y-88850649D02*
X150508375Y-88713858D01*
X150508375Y-88713858D02*
X150434718Y-88619156D01*
X150434718Y-88619156D02*
X150318971Y-88566544D01*
X150318971Y-88566544D02*
X150240053Y-88561283D01*
X150240053Y-88561283D02*
X150119045Y-88598111D01*
X150119045Y-88598111D02*
X149913858Y-88719119D01*
X149913858Y-88719119D02*
X149792850Y-88755948D01*
X149792850Y-88755948D02*
X149713932Y-88750686D01*
X149713932Y-88750686D02*
X149598185Y-88698074D01*
X149598185Y-88698074D02*
X149524528Y-88603373D01*
X149524528Y-88603373D02*
X149492961Y-88466581D01*
X149492961Y-88466581D02*
X149498222Y-88377140D01*
X149498222Y-88377140D02*
X149545573Y-88245610D01*
X149545573Y-88245610D02*
X149756021Y-88035162D01*
X149756021Y-88035162D02*
X149919119Y-87956244D01*
X150176918Y-87614265D02*
X151160765Y-88398185D01*
X151160765Y-88398185D02*
X150776696Y-87519563D01*
X150776696Y-87519563D02*
X151497482Y-88061468D01*
X151497482Y-88061468D02*
X150934533Y-86856651D01*
X152476067Y-86914524D02*
X152470806Y-87003965D01*
X152470806Y-87003965D02*
X152381365Y-87177585D01*
X152381365Y-87177585D02*
X152297186Y-87261764D01*
X152297186Y-87261764D02*
X152134089Y-87340682D01*
X152134089Y-87340682D02*
X151976252Y-87330160D01*
X151976252Y-87330160D02*
X151860506Y-87277548D01*
X151860506Y-87277548D02*
X151671102Y-87130234D01*
X151671102Y-87130234D02*
X151560616Y-86988181D01*
X151560616Y-86988181D02*
X151455392Y-86756688D01*
X151455392Y-86756688D02*
X151423825Y-86619896D01*
X151423825Y-86619896D02*
X151434347Y-86441015D01*
X151434347Y-86441015D02*
X151523788Y-86267395D01*
X151523788Y-86267395D02*
X151607967Y-86183216D01*
X151607967Y-86183216D02*
X151771065Y-86104298D01*
X151771065Y-86104298D02*
X151849983Y-86109559D01*
X153349428Y-86209522D02*
X152928531Y-86630419D01*
X152928531Y-86630419D02*
X152155133Y-85636050D01*
X153644056Y-85914894D02*
X152870658Y-84920525D01*
X154149133Y-85409818D02*
X153328384Y-85220414D01*
X153375735Y-84415449D02*
X153312600Y-85488736D01*
D12*
X135279214Y-108963546D02*
X135329722Y-108966913D01*
X135329722Y-108966913D02*
X135326355Y-109024155D01*
X135326355Y-109024155D02*
X135275847Y-109020788D01*
X135275847Y-109020788D02*
X135279214Y-108963546D01*
X135279214Y-108963546D02*
X135326355Y-109024155D01*
X135019942Y-108199197D02*
X135343191Y-107875949D01*
X135676541Y-108673969D02*
X135181566Y-108037573D01*
X135477878Y-107741261D02*
X136349976Y-108000534D01*
X135855001Y-107364138D02*
X135972852Y-108377657D01*
X136090704Y-107236185D02*
X136094071Y-107178943D01*
X136094071Y-107178943D02*
X136124375Y-107094764D01*
X136124375Y-107094764D02*
X136259062Y-106960077D01*
X136259062Y-106960077D02*
X136336507Y-106936506D01*
X136336507Y-106936506D02*
X136387015Y-106939874D01*
X136387015Y-106939874D02*
X136461093Y-106973545D01*
X136461093Y-106973545D02*
X136508233Y-107034154D01*
X136508233Y-107034154D02*
X136552007Y-107152006D01*
X136552007Y-107152006D02*
X136511601Y-107838909D01*
X136511601Y-107838909D02*
X136861787Y-107488723D01*
D13*
X125823328Y-110187647D02*
X125711720Y-110128123D01*
X125711720Y-110128123D02*
X125533149Y-110128123D01*
X125533149Y-110128123D02*
X125347137Y-110187647D01*
X125347137Y-110187647D02*
X125213208Y-110306695D01*
X125213208Y-110306695D02*
X125138804Y-110425742D01*
X125138804Y-110425742D02*
X125049518Y-110663838D01*
X125049518Y-110663838D02*
X125027197Y-110842409D01*
X125027197Y-110842409D02*
X125056958Y-111080504D01*
X125056958Y-111080504D02*
X125101601Y-111199552D01*
X125101601Y-111199552D02*
X125205768Y-111318600D01*
X125205768Y-111318600D02*
X125376899Y-111378123D01*
X125376899Y-111378123D02*
X125495947Y-111378123D01*
X125495947Y-111378123D02*
X125681958Y-111318600D01*
X125681958Y-111318600D02*
X125748923Y-111259076D01*
X125748923Y-111259076D02*
X125801006Y-110842409D01*
X125801006Y-110842409D02*
X125562911Y-110842409D01*
X126269756Y-111378123D02*
X126426006Y-110128123D01*
X126426006Y-110128123D02*
X126984042Y-111378123D01*
X126984042Y-111378123D02*
X127140292Y-110128123D01*
X127579280Y-111378123D02*
X127735530Y-110128123D01*
X127735530Y-110128123D02*
X128033149Y-110128123D01*
X128033149Y-110128123D02*
X128204280Y-110187647D01*
X128204280Y-110187647D02*
X128308447Y-110306695D01*
X128308447Y-110306695D02*
X128353090Y-110425742D01*
X128353090Y-110425742D02*
X128382852Y-110663838D01*
X128382852Y-110663838D02*
X128360530Y-110842409D01*
X128360530Y-110842409D02*
X128271244Y-111080504D01*
X128271244Y-111080504D02*
X128196840Y-111199552D01*
X128196840Y-111199552D02*
X128062911Y-111318600D01*
X128062911Y-111318600D02*
X127876899Y-111378123D01*
X127876899Y-111378123D02*
X127579280Y-111378123D01*
X149207119Y-86117744D02*
X149086111Y-86154572D01*
X149086111Y-86154572D02*
X148959842Y-86280841D01*
X148959842Y-86280841D02*
X148870402Y-86454461D01*
X148870402Y-86454461D02*
X148859879Y-86633342D01*
X148859879Y-86633342D02*
X148891446Y-86770134D01*
X148891446Y-86770134D02*
X148996671Y-87001627D01*
X148996671Y-87001627D02*
X149107156Y-87143680D01*
X149107156Y-87143680D02*
X149296560Y-87290994D01*
X149296560Y-87290994D02*
X149412306Y-87343606D01*
X149412306Y-87343606D02*
X149570143Y-87354128D01*
X149570143Y-87354128D02*
X149733240Y-87275210D01*
X149733240Y-87275210D02*
X149817420Y-87191031D01*
X149817420Y-87191031D02*
X149906860Y-87017411D01*
X149906860Y-87017411D02*
X149912121Y-86927970D01*
X149912121Y-86927970D02*
X149654322Y-86596514D01*
X149654322Y-86596514D02*
X149485963Y-86764873D01*
X150364585Y-86643865D02*
X149591187Y-85649496D01*
X149591187Y-85649496D02*
X150869662Y-86138788D01*
X150869662Y-86138788D02*
X150096264Y-85144419D01*
X151290559Y-85717891D02*
X150517161Y-84723522D01*
X150517161Y-84723522D02*
X150727609Y-84513074D01*
X150727609Y-84513074D02*
X150890707Y-84434156D01*
X150890707Y-84434156D02*
X151048543Y-84444678D01*
X151048543Y-84444678D02*
X151164290Y-84497290D01*
X151164290Y-84497290D02*
X151353693Y-84644604D01*
X151353693Y-84644604D02*
X151464179Y-84786657D01*
X151464179Y-84786657D02*
X151569403Y-85018150D01*
X151569403Y-85018150D02*
X151600970Y-85154942D01*
X151600970Y-85154942D02*
X151590448Y-85333823D01*
X151590448Y-85333823D02*
X151501007Y-85507443D01*
X151501007Y-85507443D02*
X151290559Y-85717891D01*
X168923328Y-84537647D02*
X168811720Y-84478123D01*
X168811720Y-84478123D02*
X168633149Y-84478123D01*
X168633149Y-84478123D02*
X168447137Y-84537647D01*
X168447137Y-84537647D02*
X168313208Y-84656695D01*
X168313208Y-84656695D02*
X168238804Y-84775742D01*
X168238804Y-84775742D02*
X168149518Y-85013838D01*
X168149518Y-85013838D02*
X168127197Y-85192409D01*
X168127197Y-85192409D02*
X168156958Y-85430504D01*
X168156958Y-85430504D02*
X168201601Y-85549552D01*
X168201601Y-85549552D02*
X168305768Y-85668600D01*
X168305768Y-85668600D02*
X168476899Y-85728123D01*
X168476899Y-85728123D02*
X168595947Y-85728123D01*
X168595947Y-85728123D02*
X168781958Y-85668600D01*
X168781958Y-85668600D02*
X168848923Y-85609076D01*
X168848923Y-85609076D02*
X168901006Y-85192409D01*
X168901006Y-85192409D02*
X168662911Y-85192409D01*
X169369756Y-85728123D02*
X169526006Y-84478123D01*
X169526006Y-84478123D02*
X170084042Y-85728123D01*
X170084042Y-85728123D02*
X170240292Y-84478123D01*
X170679280Y-85728123D02*
X170835530Y-84478123D01*
X170835530Y-84478123D02*
X171133149Y-84478123D01*
X171133149Y-84478123D02*
X171304280Y-84537647D01*
X171304280Y-84537647D02*
X171408447Y-84656695D01*
X171408447Y-84656695D02*
X171453090Y-84775742D01*
X171453090Y-84775742D02*
X171482852Y-85013838D01*
X171482852Y-85013838D02*
X171460530Y-85192409D01*
X171460530Y-85192409D02*
X171371244Y-85430504D01*
X171371244Y-85430504D02*
X171296840Y-85549552D01*
X171296840Y-85549552D02*
X171162911Y-85668600D01*
X171162911Y-85668600D02*
X170976899Y-85728123D01*
X170976899Y-85728123D02*
X170679280Y-85728123D01*
X152993784Y-88950987D02*
X153156881Y-88872069D01*
X153156881Y-88872069D02*
X153367330Y-88661620D01*
X153367330Y-88661620D02*
X153414681Y-88530090D01*
X153414681Y-88530090D02*
X153419942Y-88440649D01*
X153419942Y-88440649D02*
X153388375Y-88303858D01*
X153388375Y-88303858D02*
X153314718Y-88209156D01*
X153314718Y-88209156D02*
X153198971Y-88156544D01*
X153198971Y-88156544D02*
X153120053Y-88151283D01*
X153120053Y-88151283D02*
X152999045Y-88188111D01*
X152999045Y-88188111D02*
X152793858Y-88309119D01*
X152793858Y-88309119D02*
X152672850Y-88345948D01*
X152672850Y-88345948D02*
X152593932Y-88340686D01*
X152593932Y-88340686D02*
X152478185Y-88288074D01*
X152478185Y-88288074D02*
X152404528Y-88193373D01*
X152404528Y-88193373D02*
X152372961Y-88056581D01*
X152372961Y-88056581D02*
X152378222Y-87967140D01*
X152378222Y-87967140D02*
X152425573Y-87835610D01*
X152425573Y-87835610D02*
X152636021Y-87625162D01*
X152636021Y-87625162D02*
X152799119Y-87546244D01*
X153056918Y-87204265D02*
X154040765Y-87988185D01*
X154040765Y-87988185D02*
X153656696Y-87109563D01*
X153656696Y-87109563D02*
X154377482Y-87651468D01*
X154377482Y-87651468D02*
X153814533Y-86446651D01*
X154924648Y-87104302D02*
X154151250Y-86109933D01*
X154151250Y-86109933D02*
X154361698Y-85899485D01*
X154361698Y-85899485D02*
X154524796Y-85820567D01*
X154524796Y-85820567D02*
X154682632Y-85831089D01*
X154682632Y-85831089D02*
X154798379Y-85883701D01*
X154798379Y-85883701D02*
X154987782Y-86031015D01*
X154987782Y-86031015D02*
X155098268Y-86173068D01*
X155098268Y-86173068D02*
X155203492Y-86404561D01*
X155203492Y-86404561D02*
X155235059Y-86541353D01*
X155235059Y-86541353D02*
X155224537Y-86720234D01*
X155224537Y-86720234D02*
X155135096Y-86893854D01*
X155135096Y-86893854D02*
X154924648Y-87104302D01*
X155808531Y-86220419D02*
X155035133Y-85226050D01*
X155624389Y-84636794D02*
X155792748Y-84468436D01*
X155792748Y-84468436D02*
X155913756Y-84431607D01*
X155913756Y-84431607D02*
X156071592Y-84442129D01*
X156071592Y-84442129D02*
X156260995Y-84589443D01*
X156260995Y-84589443D02*
X156518795Y-84920900D01*
X156518795Y-84920900D02*
X156624019Y-85152393D01*
X156624019Y-85152393D02*
X156613497Y-85331274D01*
X156613497Y-85331274D02*
X156566146Y-85462804D01*
X156566146Y-85462804D02*
X156397787Y-85631163D01*
X156397787Y-85631163D02*
X156276779Y-85667992D01*
X156276779Y-85667992D02*
X156118943Y-85657469D01*
X156118943Y-85657469D02*
X155929539Y-85510155D01*
X155929539Y-85510155D02*
X155671740Y-85178699D01*
X155671740Y-85178699D02*
X155566516Y-84947206D01*
X155566516Y-84947206D02*
X155577038Y-84768325D01*
X155577038Y-84768325D02*
X155624389Y-84636794D01*
D12*
G36*
X156016543Y-98370578D02*
G01*
X156046948Y-98400983D01*
X156081207Y-98469499D01*
X156081207Y-98576946D01*
X156046948Y-98645463D01*
X156016541Y-98675870D01*
X155948026Y-98710128D01*
X155826746Y-98710128D01*
X155808701Y-98708258D01*
X155805001Y-98710128D01*
X155659779Y-98710128D01*
X155659779Y-98336319D01*
X155948025Y-98336319D01*
X156016543Y-98370578D01*
G37*
G36*
X156790857Y-99759357D02*
G01*
X152880143Y-99759357D01*
X152880143Y-99084686D01*
X153507848Y-99084686D01*
X153514704Y-99098399D01*
X153519022Y-99113102D01*
X153524375Y-99117740D01*
X153561110Y-99191209D01*
X153563793Y-99203540D01*
X153578412Y-99218160D01*
X153592482Y-99233286D01*
X153593900Y-99233648D01*
X153620334Y-99260083D01*
X153626779Y-99270934D01*
X153645290Y-99280189D01*
X153663401Y-99290079D01*
X153664860Y-99289974D01*
X153738106Y-99326597D01*
X153753233Y-99336319D01*
X153768563Y-99336319D01*
X153783646Y-99339033D01*
X153790190Y-99336319D01*
X153961691Y-99336319D01*
X153979575Y-99338250D01*
X153993288Y-99331393D01*
X154007991Y-99327076D01*
X154012629Y-99321722D01*
X154086097Y-99284987D01*
X154098431Y-99282305D01*
X154113062Y-99267672D01*
X154128175Y-99253616D01*
X154128537Y-99252196D01*
X154154971Y-99225762D01*
X154165822Y-99219318D01*
X154175078Y-99200804D01*
X154184968Y-99182694D01*
X154184863Y-99181234D01*
X154221485Y-99107990D01*
X154231207Y-99092864D01*
X154231207Y-99077534D01*
X154233921Y-99062451D01*
X154231207Y-99055907D01*
X154231207Y-98460186D01*
X154507065Y-98460186D01*
X154509779Y-98466729D01*
X154509779Y-98542992D01*
X154507848Y-98560877D01*
X154514704Y-98574590D01*
X154519022Y-98589293D01*
X154524375Y-98593931D01*
X154561110Y-98667400D01*
X154563793Y-98679732D01*
X154578420Y-98694359D01*
X154592482Y-98709477D01*
X154593900Y-98709839D01*
X154620335Y-98736274D01*
X154626779Y-98747124D01*
X154645288Y-98756378D01*
X154663402Y-98766269D01*
X154664860Y-98766164D01*
X154729765Y-98798617D01*
X154735700Y-98804929D01*
X154749077Y-98808273D01*
X154751357Y-98809413D01*
X154759489Y-98810876D01*
X154939553Y-98855892D01*
X155016543Y-98894387D01*
X155046948Y-98924792D01*
X155081207Y-98993308D01*
X155081207Y-99053136D01*
X155046948Y-99121653D01*
X155016540Y-99152061D01*
X154948026Y-99186319D01*
X154739806Y-99186319D01*
X154598267Y-99139139D01*
X154565482Y-99137954D01*
X154527594Y-99160411D01*
X154507862Y-99199787D01*
X154512549Y-99243580D01*
X154540170Y-99277887D01*
X154694999Y-99329497D01*
X154705614Y-99336319D01*
X154726293Y-99336319D01*
X154746933Y-99337065D01*
X154748192Y-99336319D01*
X154961691Y-99336319D01*
X154979575Y-99338250D01*
X154993288Y-99331393D01*
X155007991Y-99327076D01*
X155012629Y-99321722D01*
X155086097Y-99284987D01*
X155098431Y-99282305D01*
X155113062Y-99267672D01*
X155128175Y-99253616D01*
X155128537Y-99252196D01*
X155154971Y-99225762D01*
X155165822Y-99219318D01*
X155175078Y-99200804D01*
X155184968Y-99182694D01*
X155184863Y-99181234D01*
X155221485Y-99107990D01*
X155231207Y-99092864D01*
X155231207Y-99077534D01*
X155233921Y-99062451D01*
X155231207Y-99055907D01*
X155231207Y-98979634D01*
X155233137Y-98961760D01*
X155226282Y-98948050D01*
X155221964Y-98933344D01*
X155216609Y-98928704D01*
X155179875Y-98855235D01*
X155177193Y-98842905D01*
X155162573Y-98828285D01*
X155148504Y-98813160D01*
X155147085Y-98812797D01*
X155130540Y-98796252D01*
X155507409Y-98796252D01*
X155509779Y-98801441D01*
X155509779Y-99272101D01*
X155519022Y-99303579D01*
X155552308Y-99332421D01*
X155595903Y-99338689D01*
X155635967Y-99320393D01*
X155659779Y-99283341D01*
X155659779Y-98860128D01*
X155783825Y-98860128D01*
X156100948Y-99313162D01*
X156126571Y-99333649D01*
X156170380Y-99338189D01*
X156209689Y-99318324D01*
X156232019Y-99280360D01*
X156230278Y-99236351D01*
X155967350Y-98860739D01*
X155979575Y-98862059D01*
X155993288Y-98855202D01*
X156007991Y-98850885D01*
X156012629Y-98845531D01*
X156086098Y-98808796D01*
X156098430Y-98806114D01*
X156113057Y-98791486D01*
X156128175Y-98777425D01*
X156128537Y-98776006D01*
X156154972Y-98749571D01*
X156165822Y-98743128D01*
X156175076Y-98724618D01*
X156184967Y-98706505D01*
X156184862Y-98705046D01*
X156221485Y-98631800D01*
X156231207Y-98616674D01*
X156231207Y-98601344D01*
X156233921Y-98586261D01*
X156231207Y-98579717D01*
X156231207Y-98455825D01*
X156233137Y-98437951D01*
X156226282Y-98424241D01*
X156221964Y-98409535D01*
X156216609Y-98404895D01*
X156179875Y-98331426D01*
X156177193Y-98319096D01*
X156162573Y-98304476D01*
X156148504Y-98289351D01*
X156147085Y-98288988D01*
X156120650Y-98262553D01*
X156114207Y-98251704D01*
X156095706Y-98242453D01*
X156077584Y-98232558D01*
X156076123Y-98232662D01*
X156002882Y-98196042D01*
X155987753Y-98186319D01*
X155972423Y-98186319D01*
X155957340Y-98183605D01*
X155950796Y-98186319D01*
X155590139Y-98186319D01*
X155573655Y-98183949D01*
X155558502Y-98190868D01*
X155542519Y-98195562D01*
X155538782Y-98199874D01*
X155533591Y-98202245D01*
X155524583Y-98216261D01*
X155513677Y-98228848D01*
X155512865Y-98234494D01*
X155509779Y-98239297D01*
X155509779Y-98255959D01*
X155507409Y-98272443D01*
X155509779Y-98277632D01*
X155509779Y-98779768D01*
X155507409Y-98796252D01*
X155130540Y-98796252D01*
X155120650Y-98786362D01*
X155114207Y-98775513D01*
X155095706Y-98766262D01*
X155077584Y-98756367D01*
X155076123Y-98756471D01*
X155011219Y-98724019D01*
X155005285Y-98717708D01*
X154991907Y-98714363D01*
X154989628Y-98713224D01*
X154981495Y-98711760D01*
X154801432Y-98666744D01*
X154724443Y-98628250D01*
X154694036Y-98597843D01*
X154659779Y-98529328D01*
X154659779Y-98469501D01*
X154694038Y-98400982D01*
X154724443Y-98370577D01*
X154792959Y-98336319D01*
X155001180Y-98336319D01*
X155142718Y-98383499D01*
X155175504Y-98384684D01*
X155213392Y-98362227D01*
X155233124Y-98322851D01*
X155228436Y-98279057D01*
X155200816Y-98244751D01*
X155045987Y-98193141D01*
X155035372Y-98186319D01*
X155014692Y-98186319D01*
X154994053Y-98185573D01*
X154992794Y-98186319D01*
X154779286Y-98186319D01*
X154761411Y-98184389D01*
X154747701Y-98191243D01*
X154732995Y-98195562D01*
X154728355Y-98200916D01*
X154654886Y-98237650D01*
X154642556Y-98240333D01*
X154627936Y-98254952D01*
X154612811Y-98269022D01*
X154612448Y-98270440D01*
X154586013Y-98296875D01*
X154575164Y-98303319D01*
X154565913Y-98321819D01*
X154556018Y-98339942D01*
X154556122Y-98341402D01*
X154519502Y-98414643D01*
X154509779Y-98429773D01*
X154509779Y-98445103D01*
X154507065Y-98460186D01*
X154231207Y-98460186D01*
X154231207Y-98250537D01*
X154221964Y-98219059D01*
X154188678Y-98190217D01*
X154145083Y-98183949D01*
X154105019Y-98202245D01*
X154081207Y-98239297D01*
X154081207Y-99053136D01*
X154046948Y-99121653D01*
X154016540Y-99152061D01*
X153948026Y-99186319D01*
X153792961Y-99186319D01*
X153724443Y-99152060D01*
X153694035Y-99121651D01*
X153659779Y-99053137D01*
X153659779Y-98250537D01*
X153650536Y-98219059D01*
X153617250Y-98190217D01*
X153573655Y-98183949D01*
X153533591Y-98202245D01*
X153509779Y-98239297D01*
X153509779Y-99066801D01*
X153507848Y-99084686D01*
X152880143Y-99084686D01*
X152880143Y-97648643D01*
X156790857Y-97648643D01*
X156790857Y-99759357D01*
G37*
X166777214Y-108005046D02*
X166827722Y-108008413D01*
X166827722Y-108008413D02*
X166824355Y-108065655D01*
X166824355Y-108065655D02*
X166773847Y-108062288D01*
X166773847Y-108062288D02*
X166777214Y-108005046D01*
X166777214Y-108005046D02*
X166824355Y-108065655D01*
X167043221Y-107792914D02*
X167147603Y-107742406D01*
X167147603Y-107742406D02*
X167282290Y-107607719D01*
X167282290Y-107607719D02*
X167312595Y-107523540D01*
X167312595Y-107523540D02*
X167315962Y-107466298D01*
X167315962Y-107466298D02*
X167295759Y-107378752D01*
X167295759Y-107378752D02*
X167248619Y-107318142D01*
X167248619Y-107318142D02*
X167174541Y-107284471D01*
X167174541Y-107284471D02*
X167124033Y-107281103D01*
X167124033Y-107281103D02*
X167046588Y-107304674D01*
X167046588Y-107304674D02*
X166915268Y-107382119D01*
X166915268Y-107382119D02*
X166837823Y-107405689D01*
X166837823Y-107405689D02*
X166787316Y-107402322D01*
X166787316Y-107402322D02*
X166713238Y-107368650D01*
X166713238Y-107368650D02*
X166666097Y-107308041D01*
X166666097Y-107308041D02*
X166645894Y-107220494D01*
X166645894Y-107220494D02*
X166649262Y-107163252D01*
X166649262Y-107163252D02*
X166679566Y-107079073D01*
X166679566Y-107079073D02*
X166814253Y-106944386D01*
X166814253Y-106944386D02*
X166918636Y-106893878D01*
X167632477Y-107257533D02*
X167137502Y-106621137D01*
X167137502Y-106621137D02*
X167272189Y-106486450D01*
X167272189Y-106486450D02*
X167376572Y-106435942D01*
X167376572Y-106435942D02*
X167477587Y-106442677D01*
X167477587Y-106442677D02*
X167551665Y-106476348D01*
X167551665Y-106476348D02*
X167672883Y-106570629D01*
X167672883Y-106570629D02*
X167743594Y-106661543D01*
X167743594Y-106661543D02*
X167810937Y-106809699D01*
X167810937Y-106809699D02*
X167831140Y-106897245D01*
X167831140Y-106897245D02*
X167824406Y-107011729D01*
X167824406Y-107011729D02*
X167767164Y-107122846D01*
X167767164Y-107122846D02*
X167632477Y-107257533D01*
X168029804Y-106536958D02*
X168299178Y-106267584D01*
X168117350Y-106772660D02*
X167810937Y-105947702D01*
X167810937Y-105947702D02*
X168494474Y-106395536D01*
X168208264Y-105658125D02*
X168211631Y-105600883D01*
X168211631Y-105600883D02*
X168241935Y-105516704D01*
X168241935Y-105516704D02*
X168376622Y-105382017D01*
X168376622Y-105382017D02*
X168454067Y-105358446D01*
X168454067Y-105358446D02*
X168504575Y-105361814D01*
X168504575Y-105361814D02*
X168578653Y-105395485D01*
X168578653Y-105395485D02*
X168625793Y-105456095D01*
X168625793Y-105456095D02*
X168669567Y-105573946D01*
X168669567Y-105573946D02*
X168629160Y-106260849D01*
X168629160Y-106260849D02*
X168979347Y-105910663D01*
D13*
X139157119Y-86117744D02*
X139036111Y-86154572D01*
X139036111Y-86154572D02*
X138909842Y-86280841D01*
X138909842Y-86280841D02*
X138820402Y-86454461D01*
X138820402Y-86454461D02*
X138809879Y-86633342D01*
X138809879Y-86633342D02*
X138841446Y-86770134D01*
X138841446Y-86770134D02*
X138946671Y-87001627D01*
X138946671Y-87001627D02*
X139057156Y-87143680D01*
X139057156Y-87143680D02*
X139246560Y-87290994D01*
X139246560Y-87290994D02*
X139362306Y-87343606D01*
X139362306Y-87343606D02*
X139520143Y-87354128D01*
X139520143Y-87354128D02*
X139683240Y-87275210D01*
X139683240Y-87275210D02*
X139767420Y-87191031D01*
X139767420Y-87191031D02*
X139856860Y-87017411D01*
X139856860Y-87017411D02*
X139862121Y-86927970D01*
X139862121Y-86927970D02*
X139604322Y-86596514D01*
X139604322Y-86596514D02*
X139435963Y-86764873D01*
X140314585Y-86643865D02*
X139541187Y-85649496D01*
X139541187Y-85649496D02*
X140819662Y-86138788D01*
X140819662Y-86138788D02*
X140046264Y-85144419D01*
X141240559Y-85717891D02*
X140467161Y-84723522D01*
X140467161Y-84723522D02*
X140677609Y-84513074D01*
X140677609Y-84513074D02*
X140840707Y-84434156D01*
X140840707Y-84434156D02*
X140998543Y-84444678D01*
X140998543Y-84444678D02*
X141114290Y-84497290D01*
X141114290Y-84497290D02*
X141303693Y-84644604D01*
X141303693Y-84644604D02*
X141414179Y-84786657D01*
X141414179Y-84786657D02*
X141519403Y-85018150D01*
X141519403Y-85018150D02*
X141550970Y-85154942D01*
X141550970Y-85154942D02*
X141540448Y-85333823D01*
X141540448Y-85333823D02*
X141451007Y-85507443D01*
X141451007Y-85507443D02*
X141240559Y-85717891D01*
X146851784Y-87622487D02*
X147014881Y-87543569D01*
X147014881Y-87543569D02*
X147225330Y-87333120D01*
X147225330Y-87333120D02*
X147272681Y-87201590D01*
X147272681Y-87201590D02*
X147277942Y-87112149D01*
X147277942Y-87112149D02*
X147246375Y-86975358D01*
X147246375Y-86975358D02*
X147172718Y-86880656D01*
X147172718Y-86880656D02*
X147056971Y-86828044D01*
X147056971Y-86828044D02*
X146978053Y-86822783D01*
X146978053Y-86822783D02*
X146857045Y-86859611D01*
X146857045Y-86859611D02*
X146651858Y-86980619D01*
X146651858Y-86980619D02*
X146530850Y-87017448D01*
X146530850Y-87017448D02*
X146451932Y-87012186D01*
X146451932Y-87012186D02*
X146336185Y-86959574D01*
X146336185Y-86959574D02*
X146262528Y-86864873D01*
X146262528Y-86864873D02*
X146230961Y-86728081D01*
X146230961Y-86728081D02*
X146236222Y-86638640D01*
X146236222Y-86638640D02*
X146283573Y-86507110D01*
X146283573Y-86507110D02*
X146494021Y-86296662D01*
X146494021Y-86296662D02*
X146657119Y-86217744D01*
X146914918Y-85875765D02*
X147898765Y-86659685D01*
X147898765Y-86659685D02*
X147514696Y-85781063D01*
X147514696Y-85781063D02*
X148235482Y-86322968D01*
X148235482Y-86322968D02*
X147672533Y-85118151D01*
X148177609Y-84613075D02*
X148345967Y-84444716D01*
X148345967Y-84444716D02*
X148466975Y-84407887D01*
X148466975Y-84407887D02*
X148624812Y-84418410D01*
X148624812Y-84418410D02*
X148814215Y-84565724D01*
X148814215Y-84565724D02*
X149072015Y-84897180D01*
X149072015Y-84897180D02*
X149177239Y-85128673D01*
X149177239Y-85128673D02*
X149166716Y-85307554D01*
X149166716Y-85307554D02*
X149119365Y-85439085D01*
X149119365Y-85439085D02*
X148951007Y-85607444D01*
X148951007Y-85607444D02*
X148829999Y-85644272D01*
X148829999Y-85644272D02*
X148672162Y-85633750D01*
X148672162Y-85633750D02*
X148482759Y-85486436D01*
X148482759Y-85486436D02*
X148224960Y-85154979D01*
X148224960Y-85154979D02*
X148119735Y-84923486D01*
X148119735Y-84923486D02*
X148130258Y-84744605D01*
X148130258Y-84744605D02*
X148177609Y-84613075D01*
X127441482Y-106528123D02*
X127024816Y-105932885D01*
X126727197Y-106528123D02*
X126727197Y-105278123D01*
X126727197Y-105278123D02*
X127203387Y-105278123D01*
X127203387Y-105278123D02*
X127322435Y-105337647D01*
X127322435Y-105337647D02*
X127381958Y-105397171D01*
X127381958Y-105397171D02*
X127441482Y-105516219D01*
X127441482Y-105516219D02*
X127441482Y-105694790D01*
X127441482Y-105694790D02*
X127381958Y-105813838D01*
X127381958Y-105813838D02*
X127322435Y-105873361D01*
X127322435Y-105873361D02*
X127203387Y-105932885D01*
X127203387Y-105932885D02*
X126727197Y-105932885D01*
X127917673Y-106468600D02*
X128096244Y-106528123D01*
X128096244Y-106528123D02*
X128393863Y-106528123D01*
X128393863Y-106528123D02*
X128512911Y-106468600D01*
X128512911Y-106468600D02*
X128572435Y-106409076D01*
X128572435Y-106409076D02*
X128631958Y-106290028D01*
X128631958Y-106290028D02*
X128631958Y-106170980D01*
X128631958Y-106170980D02*
X128572435Y-106051933D01*
X128572435Y-106051933D02*
X128512911Y-105992409D01*
X128512911Y-105992409D02*
X128393863Y-105932885D01*
X128393863Y-105932885D02*
X128155768Y-105873361D01*
X128155768Y-105873361D02*
X128036720Y-105813838D01*
X128036720Y-105813838D02*
X127977197Y-105754314D01*
X127977197Y-105754314D02*
X127917673Y-105635266D01*
X127917673Y-105635266D02*
X127917673Y-105516219D01*
X127917673Y-105516219D02*
X127977197Y-105397171D01*
X127977197Y-105397171D02*
X128036720Y-105337647D01*
X128036720Y-105337647D02*
X128155768Y-105278123D01*
X128155768Y-105278123D02*
X128453387Y-105278123D01*
X128453387Y-105278123D02*
X128631958Y-105337647D01*
D12*
X155051459Y-107469795D02*
X155051459Y-106669795D01*
X155051459Y-106669795D02*
X155356221Y-106669795D01*
X155356221Y-106669795D02*
X155432411Y-106707890D01*
X155432411Y-106707890D02*
X155470506Y-106745985D01*
X155470506Y-106745985D02*
X155508602Y-106822176D01*
X155508602Y-106822176D02*
X155508602Y-106936461D01*
X155508602Y-106936461D02*
X155470506Y-107012652D01*
X155470506Y-107012652D02*
X155432411Y-107050747D01*
X155432411Y-107050747D02*
X155356221Y-107088842D01*
X155356221Y-107088842D02*
X155051459Y-107088842D01*
X155851459Y-106669795D02*
X155851459Y-107317414D01*
X155851459Y-107317414D02*
X155889554Y-107393604D01*
X155889554Y-107393604D02*
X155927649Y-107431700D01*
X155927649Y-107431700D02*
X156003840Y-107469795D01*
X156003840Y-107469795D02*
X156156221Y-107469795D01*
X156156221Y-107469795D02*
X156232411Y-107431700D01*
X156232411Y-107431700D02*
X156270506Y-107393604D01*
X156270506Y-107393604D02*
X156308602Y-107317414D01*
X156308602Y-107317414D02*
X156308602Y-106669795D01*
X157070506Y-107469795D02*
X156689554Y-107469795D01*
X156689554Y-107469795D02*
X156689554Y-106669795D01*
X157718125Y-107469795D02*
X157337173Y-107469795D01*
X157337173Y-107469795D02*
X157337173Y-106669795D01*
X157984792Y-106669795D02*
X157984792Y-107317414D01*
X157984792Y-107317414D02*
X158022887Y-107393604D01*
X158022887Y-107393604D02*
X158060982Y-107431700D01*
X158060982Y-107431700D02*
X158137173Y-107469795D01*
X158137173Y-107469795D02*
X158289554Y-107469795D01*
X158289554Y-107469795D02*
X158365744Y-107431700D01*
X158365744Y-107431700D02*
X158403839Y-107393604D01*
X158403839Y-107393604D02*
X158441935Y-107317414D01*
X158441935Y-107317414D02*
X158441935Y-106669795D01*
X158822887Y-107469795D02*
X158822887Y-106669795D01*
X158822887Y-106669795D02*
X159127649Y-106669795D01*
X159127649Y-106669795D02*
X159203839Y-106707890D01*
X159203839Y-106707890D02*
X159241934Y-106745985D01*
X159241934Y-106745985D02*
X159280030Y-106822176D01*
X159280030Y-106822176D02*
X159280030Y-106936461D01*
X159280030Y-106936461D02*
X159241934Y-107012652D01*
X159241934Y-107012652D02*
X159203839Y-107050747D01*
X159203839Y-107050747D02*
X159127649Y-107088842D01*
X159127649Y-107088842D02*
X158822887Y-107088842D01*
D13*
X135480702Y-111327748D02*
X134707304Y-110333379D01*
X134707304Y-110333379D02*
X135044021Y-109996662D01*
X135044021Y-109996662D02*
X135165029Y-109959833D01*
X135165029Y-109959833D02*
X135243948Y-109965094D01*
X135243948Y-109965094D02*
X135359694Y-110017707D01*
X135359694Y-110017707D02*
X135470180Y-110159759D01*
X135470180Y-110159759D02*
X135501747Y-110296551D01*
X135501747Y-110296551D02*
X135496486Y-110385991D01*
X135496486Y-110385991D02*
X135449135Y-110517522D01*
X135449135Y-110517522D02*
X135112417Y-110854239D01*
X136101525Y-110201849D02*
X136522422Y-109780952D01*
X136238316Y-110570134D02*
X135759546Y-109281137D01*
X135759546Y-109281137D02*
X136827572Y-109980878D01*
X136264623Y-108776060D02*
X136811789Y-108228894D01*
X136811789Y-108228894D02*
X136811789Y-108902330D01*
X136811789Y-108902330D02*
X136938058Y-108776060D01*
X136938058Y-108776060D02*
X137059066Y-108739232D01*
X137059066Y-108739232D02*
X137137984Y-108744493D01*
X137137984Y-108744493D02*
X137253730Y-108797105D01*
X137253730Y-108797105D02*
X137437873Y-109033860D01*
X137437873Y-109033860D02*
X137469440Y-109170651D01*
X137469440Y-109170651D02*
X137464179Y-109260092D01*
X137464179Y-109260092D02*
X137416828Y-109391622D01*
X137416828Y-109391622D02*
X137164290Y-109644160D01*
X137164290Y-109644160D02*
X137043282Y-109680989D01*
X137043282Y-109680989D02*
X136964364Y-109675728D01*
X148180702Y-111327748D02*
X147407304Y-110333379D01*
X147407304Y-110333379D02*
X147744021Y-109996662D01*
X147744021Y-109996662D02*
X147865029Y-109959833D01*
X147865029Y-109959833D02*
X147943948Y-109965094D01*
X147943948Y-109965094D02*
X148059694Y-110017707D01*
X148059694Y-110017707D02*
X148170180Y-110159759D01*
X148170180Y-110159759D02*
X148201747Y-110296551D01*
X148201747Y-110296551D02*
X148196486Y-110385991D01*
X148196486Y-110385991D02*
X148149135Y-110517522D01*
X148149135Y-110517522D02*
X147812417Y-110854239D01*
X148801525Y-110201849D02*
X149222422Y-109780952D01*
X148938316Y-110570134D02*
X148459546Y-109281137D01*
X148459546Y-109281137D02*
X149527572Y-109980878D01*
X148964623Y-108776060D02*
X149553878Y-108186805D01*
X149553878Y-108186805D02*
X149948469Y-109559981D01*
D12*
X150279214Y-109163546D02*
X150329722Y-109166913D01*
X150329722Y-109166913D02*
X150326355Y-109224155D01*
X150326355Y-109224155D02*
X150275847Y-109220788D01*
X150275847Y-109220788D02*
X150279214Y-109163546D01*
X150279214Y-109163546D02*
X150326355Y-109224155D01*
X150595729Y-108954781D02*
X150100754Y-108318385D01*
X150100754Y-108318385D02*
X150642869Y-108584392D01*
X150642869Y-108584392D02*
X150477878Y-107941262D01*
X150477878Y-107941262D02*
X150972852Y-108577658D01*
X150855001Y-107564138D02*
X150962751Y-107456388D01*
X150962751Y-107456388D02*
X151040196Y-107432818D01*
X151040196Y-107432818D02*
X151141211Y-107439552D01*
X151141211Y-107439552D02*
X151262430Y-107533833D01*
X151262430Y-107533833D02*
X151427421Y-107745965D01*
X151427421Y-107745965D02*
X151494765Y-107894121D01*
X151494765Y-107894121D02*
X151488030Y-108008605D01*
X151488030Y-108008605D02*
X151457726Y-108092784D01*
X151457726Y-108092784D02*
X151349976Y-108200534D01*
X151349976Y-108200534D02*
X151272531Y-108224104D01*
X151272531Y-108224104D02*
X151171516Y-108217370D01*
X151171516Y-108217370D02*
X151050297Y-108123089D01*
X151050297Y-108123089D02*
X150885306Y-107910957D01*
X150885306Y-107910957D02*
X150817962Y-107762801D01*
X150817962Y-107762801D02*
X150824697Y-107648317D01*
X150824697Y-107648317D02*
X150855001Y-107564138D01*
X151784342Y-107712294D02*
X151888724Y-107661786D01*
X151888724Y-107661786D02*
X152023411Y-107527099D01*
X152023411Y-107527099D02*
X152053716Y-107442920D01*
X152053716Y-107442920D02*
X152057083Y-107385678D01*
X152057083Y-107385678D02*
X152036880Y-107298131D01*
X152036880Y-107298131D02*
X151989739Y-107237522D01*
X151989739Y-107237522D02*
X151915661Y-107203850D01*
X151915661Y-107203850D02*
X151865154Y-107200483D01*
X151865154Y-107200483D02*
X151787709Y-107224053D01*
X151787709Y-107224053D02*
X151656389Y-107301498D01*
X151656389Y-107301498D02*
X151578944Y-107325068D01*
X151578944Y-107325068D02*
X151528436Y-107321701D01*
X151528436Y-107321701D02*
X151454358Y-107288030D01*
X151454358Y-107288030D02*
X151407218Y-107227420D01*
X151407218Y-107227420D02*
X151387015Y-107139874D01*
X151387015Y-107139874D02*
X151390382Y-107082632D01*
X151390382Y-107082632D02*
X151420687Y-106998452D01*
X151420687Y-106998452D02*
X151555374Y-106863765D01*
X151555374Y-106863765D02*
X151659756Y-106813258D01*
X152373597Y-107176913D02*
X151878623Y-106540516D01*
X152168199Y-106358689D02*
X152171567Y-106301447D01*
X152171567Y-106301447D02*
X152201871Y-106217268D01*
X152201871Y-106217268D02*
X152336558Y-106082581D01*
X152336558Y-106082581D02*
X152414003Y-106059011D01*
X152414003Y-106059011D02*
X152464511Y-106062378D01*
X152464511Y-106062378D02*
X152538589Y-106096050D01*
X152538589Y-106096050D02*
X152585729Y-106156659D01*
X152585729Y-106156659D02*
X152629502Y-106274510D01*
X152629502Y-106274510D02*
X152589096Y-106961414D01*
X152589096Y-106961414D02*
X152939282Y-106611227D01*
G36*
X113507104Y-92148282D02*
G01*
X113104989Y-92014243D01*
X113507104Y-91880206D01*
X113507104Y-92148282D01*
G37*
G36*
X114365857Y-93909357D02*
G01*
X112255143Y-93909357D01*
X112255143Y-92921831D01*
X112789704Y-92921831D01*
X112796241Y-92941443D01*
X112802062Y-92961266D01*
X112803168Y-92962224D01*
X112843010Y-93081750D01*
X112846833Y-93099324D01*
X112857673Y-93110164D01*
X112866419Y-93122748D01*
X112872964Y-93125455D01*
X112950994Y-93203485D01*
X112957438Y-93214335D01*
X112975939Y-93223585D01*
X112994061Y-93233481D01*
X112995521Y-93233376D01*
X113060424Y-93265828D01*
X113066359Y-93272140D01*
X113079736Y-93275484D01*
X113082016Y-93276624D01*
X113090148Y-93278087D01*
X113266226Y-93322106D01*
X113274368Y-93327339D01*
X113287156Y-93327339D01*
X113288660Y-93327715D01*
X113297906Y-93327339D01*
X113426904Y-93327339D01*
X113436073Y-93330441D01*
X113448481Y-93327339D01*
X113450029Y-93327339D01*
X113458898Y-93324734D01*
X113634953Y-93280720D01*
X113643567Y-93281651D01*
X113655900Y-93275484D01*
X113658373Y-93274866D01*
X113665500Y-93270683D01*
X113750090Y-93228388D01*
X113762422Y-93225706D01*
X113777051Y-93211076D01*
X113792167Y-93197017D01*
X113792529Y-93195598D01*
X113870378Y-93117750D01*
X113884387Y-93106472D01*
X113889234Y-93091930D01*
X113896580Y-93078478D01*
X113896074Y-93071409D01*
X113935997Y-92951642D01*
X113942819Y-92941028D01*
X113942819Y-92920348D01*
X113943565Y-92899709D01*
X113942819Y-92898450D01*
X113942818Y-92833169D01*
X113945934Y-92820942D01*
X113939394Y-92801322D01*
X113933576Y-92781508D01*
X113932469Y-92780549D01*
X113892626Y-92661017D01*
X113888804Y-92643449D01*
X113877966Y-92632611D01*
X113869219Y-92620025D01*
X113862670Y-92617316D01*
X113817988Y-92572634D01*
X113789194Y-92556912D01*
X113745263Y-92560055D01*
X113710005Y-92586450D01*
X113694613Y-92627717D01*
X113703975Y-92670754D01*
X113754647Y-92721424D01*
X113792819Y-92835938D01*
X113792819Y-92906835D01*
X113754647Y-93021350D01*
X113680533Y-93095462D01*
X113603547Y-93133955D01*
X113430013Y-93177339D01*
X113305624Y-93177339D01*
X113132091Y-93133955D01*
X113055102Y-93095461D01*
X112980990Y-93021349D01*
X112942819Y-92906834D01*
X112942819Y-92835938D01*
X112980990Y-92721424D01*
X113023714Y-92678701D01*
X113039436Y-92649907D01*
X113036294Y-92605976D01*
X113009900Y-92570718D01*
X112968633Y-92555325D01*
X112925596Y-92564687D01*
X112865258Y-92625024D01*
X112851251Y-92636302D01*
X112846403Y-92650843D01*
X112839058Y-92664296D01*
X112839563Y-92671363D01*
X112799641Y-92791130D01*
X112792819Y-92801746D01*
X112792819Y-92822425D01*
X112792073Y-92843065D01*
X112792819Y-92844323D01*
X112792818Y-92909603D01*
X112789704Y-92921831D01*
X112255143Y-92921831D01*
X112255143Y-92005924D01*
X112790097Y-92005924D01*
X112793534Y-92024925D01*
X112795589Y-92044124D01*
X112797418Y-92046395D01*
X112797937Y-92049264D01*
X112811097Y-92063386D01*
X112823210Y-92078431D01*
X112825976Y-92079353D01*
X112827964Y-92081486D01*
X112846675Y-92086252D01*
X113544252Y-92318778D01*
X113549633Y-92323441D01*
X113564767Y-92325616D01*
X113854330Y-92422138D01*
X113887116Y-92423323D01*
X113925004Y-92400866D01*
X113944736Y-92361490D01*
X113940048Y-92317696D01*
X113912428Y-92283390D01*
X113657104Y-92198282D01*
X113657104Y-91830206D01*
X113901764Y-91748653D01*
X113928704Y-91729930D01*
X113945540Y-91689231D01*
X113937700Y-91645891D01*
X113907674Y-91613669D01*
X113864993Y-91602796D01*
X113575216Y-91699388D01*
X113570980Y-91698779D01*
X113554592Y-91706262D01*
X112856969Y-91938803D01*
X112848522Y-91938498D01*
X112836489Y-91945629D01*
X112833873Y-91946502D01*
X112827235Y-91951114D01*
X112810634Y-91960955D01*
X112809328Y-91963560D01*
X112806933Y-91965225D01*
X112799547Y-91983078D01*
X112790902Y-92000331D01*
X112791212Y-92003228D01*
X112790097Y-92005924D01*
X112255143Y-92005924D01*
X112255143Y-91354661D01*
X112789975Y-91354661D01*
X112790748Y-91356618D01*
X112790449Y-91358701D01*
X112798785Y-91376956D01*
X112806162Y-91395622D01*
X112807870Y-91396850D01*
X112808745Y-91398765D01*
X112825629Y-91409615D01*
X112841925Y-91421330D01*
X112844027Y-91421439D01*
X112845797Y-91422577D01*
X112865866Y-91422577D01*
X112885909Y-91423621D01*
X112887736Y-91422577D01*
X113878601Y-91422577D01*
X113910079Y-91413334D01*
X113938921Y-91380048D01*
X113945189Y-91336453D01*
X113926893Y-91296389D01*
X113889841Y-91272577D01*
X113150236Y-91272577D01*
X113897393Y-90845630D01*
X113910079Y-90841906D01*
X113923218Y-90826742D01*
X113937136Y-90812275D01*
X113937543Y-90810209D01*
X113938921Y-90808620D01*
X113941776Y-90788759D01*
X113945663Y-90769065D01*
X113944889Y-90767107D01*
X113945189Y-90765025D01*
X113936852Y-90746769D01*
X113929476Y-90728104D01*
X113927767Y-90726875D01*
X113926893Y-90724961D01*
X113910008Y-90714110D01*
X113893713Y-90702396D01*
X113891610Y-90702286D01*
X113889841Y-90701149D01*
X113869772Y-90701149D01*
X113849729Y-90700105D01*
X113847902Y-90701149D01*
X112857037Y-90701149D01*
X112825559Y-90710392D01*
X112796717Y-90743678D01*
X112790449Y-90787273D01*
X112808745Y-90827337D01*
X112845797Y-90851149D01*
X113585402Y-90851149D01*
X112838244Y-91278095D01*
X112825559Y-91281820D01*
X112812419Y-91296983D01*
X112798502Y-91311451D01*
X112798094Y-91313516D01*
X112796717Y-91315106D01*
X112793861Y-91334966D01*
X112789975Y-91354661D01*
X112255143Y-91354661D01*
X112255143Y-90093881D01*
X114365857Y-90093881D01*
X114365857Y-93909357D01*
G37*
D13*
X140157119Y-110117744D02*
X140036111Y-110154572D01*
X140036111Y-110154572D02*
X139909842Y-110280841D01*
X139909842Y-110280841D02*
X139820402Y-110454461D01*
X139820402Y-110454461D02*
X139809879Y-110633342D01*
X139809879Y-110633342D02*
X139841446Y-110770134D01*
X139841446Y-110770134D02*
X139946671Y-111001627D01*
X139946671Y-111001627D02*
X140057156Y-111143680D01*
X140057156Y-111143680D02*
X140246560Y-111290994D01*
X140246560Y-111290994D02*
X140362306Y-111343606D01*
X140362306Y-111343606D02*
X140520143Y-111354128D01*
X140520143Y-111354128D02*
X140683240Y-111275210D01*
X140683240Y-111275210D02*
X140767420Y-111191031D01*
X140767420Y-111191031D02*
X140856860Y-111017411D01*
X140856860Y-111017411D02*
X140862121Y-110927970D01*
X140862121Y-110927970D02*
X140604322Y-110596514D01*
X140604322Y-110596514D02*
X140435963Y-110764873D01*
X141314585Y-110643865D02*
X140541187Y-109649496D01*
X140541187Y-109649496D02*
X141819662Y-110138788D01*
X141819662Y-110138788D02*
X141046264Y-109144419D01*
X142240559Y-109717891D02*
X141467161Y-108723522D01*
X141467161Y-108723522D02*
X141677609Y-108513074D01*
X141677609Y-108513074D02*
X141840707Y-108434156D01*
X141840707Y-108434156D02*
X141998543Y-108444678D01*
X141998543Y-108444678D02*
X142114290Y-108497290D01*
X142114290Y-108497290D02*
X142303693Y-108644604D01*
X142303693Y-108644604D02*
X142414179Y-108786657D01*
X142414179Y-108786657D02*
X142519403Y-109018150D01*
X142519403Y-109018150D02*
X142550970Y-109154942D01*
X142550970Y-109154942D02*
X142540448Y-109333823D01*
X142540448Y-109333823D02*
X142451007Y-109507443D01*
X142451007Y-109507443D02*
X142240559Y-109717891D01*
D12*
G36*
X112441543Y-106295578D02*
G01*
X112471948Y-106325983D01*
X112506206Y-106394499D01*
X112506207Y-106501946D01*
X112471948Y-106570463D01*
X112441541Y-106600870D01*
X112373026Y-106635128D01*
X112251746Y-106635128D01*
X112233701Y-106633258D01*
X112230001Y-106635128D01*
X112084779Y-106635128D01*
X112084779Y-106261319D01*
X112373025Y-106261319D01*
X112441543Y-106295578D01*
G37*
G36*
X114930143Y-107684357D02*
G01*
X111305143Y-107684357D01*
X111305143Y-106721252D01*
X111932409Y-106721252D01*
X111934779Y-106726441D01*
X111934779Y-107197101D01*
X111944022Y-107228579D01*
X111977308Y-107257421D01*
X112020903Y-107263689D01*
X112060967Y-107245393D01*
X112084779Y-107208341D01*
X112084779Y-106785128D01*
X112208825Y-106785128D01*
X112525948Y-107238162D01*
X112551571Y-107258649D01*
X112595380Y-107263189D01*
X112634689Y-107243324D01*
X112657019Y-107205360D01*
X112655278Y-107161351D01*
X112392350Y-106785739D01*
X112404575Y-106787059D01*
X112418288Y-106780202D01*
X112432991Y-106775885D01*
X112437629Y-106770531D01*
X112511098Y-106733796D01*
X112523430Y-106731114D01*
X112538057Y-106716486D01*
X112553175Y-106702425D01*
X112553537Y-106701006D01*
X112579972Y-106674571D01*
X112590822Y-106668128D01*
X112600076Y-106649618D01*
X112609967Y-106631505D01*
X112609862Y-106630046D01*
X112646485Y-106556800D01*
X112656207Y-106541674D01*
X112656207Y-106526344D01*
X112658921Y-106511261D01*
X112656206Y-106504717D01*
X112656206Y-106385186D01*
X112884446Y-106385186D01*
X112887160Y-106391729D01*
X112887160Y-106467992D01*
X112885229Y-106485877D01*
X112892085Y-106499590D01*
X112896403Y-106514293D01*
X112901756Y-106518931D01*
X112938491Y-106592400D01*
X112941174Y-106604732D01*
X112955801Y-106619359D01*
X112969863Y-106634477D01*
X112971281Y-106634839D01*
X112997716Y-106661274D01*
X113004160Y-106672124D01*
X113022669Y-106681378D01*
X113040783Y-106691269D01*
X113042241Y-106691164D01*
X113107146Y-106723617D01*
X113113081Y-106729929D01*
X113126458Y-106733273D01*
X113128738Y-106734413D01*
X113136870Y-106735876D01*
X113316934Y-106780892D01*
X113393924Y-106819387D01*
X113424329Y-106849792D01*
X113458588Y-106918308D01*
X113458588Y-106978136D01*
X113424329Y-107046653D01*
X113393921Y-107077061D01*
X113325407Y-107111319D01*
X113117187Y-107111319D01*
X112975648Y-107064139D01*
X112942863Y-107062954D01*
X112904975Y-107085411D01*
X112885243Y-107124787D01*
X112889930Y-107168580D01*
X112917551Y-107202887D01*
X113072380Y-107254497D01*
X113082995Y-107261319D01*
X113103674Y-107261319D01*
X113124314Y-107262065D01*
X113125573Y-107261319D01*
X113339072Y-107261319D01*
X113356956Y-107263250D01*
X113370669Y-107256393D01*
X113385372Y-107252076D01*
X113390010Y-107246722D01*
X113463478Y-107209987D01*
X113475812Y-107207305D01*
X113490443Y-107192672D01*
X113505556Y-107178616D01*
X113505918Y-107177196D01*
X113532352Y-107150762D01*
X113543203Y-107144318D01*
X113552459Y-107125804D01*
X113562349Y-107107694D01*
X113562244Y-107106234D01*
X113598866Y-107032990D01*
X113608588Y-107017864D01*
X113608588Y-107002534D01*
X113611302Y-106987451D01*
X113608588Y-106980907D01*
X113608588Y-106904634D01*
X113610518Y-106886760D01*
X113603663Y-106873050D01*
X113599345Y-106858344D01*
X113593990Y-106853704D01*
X113557256Y-106780235D01*
X113554574Y-106767905D01*
X113539954Y-106753285D01*
X113525885Y-106738160D01*
X113524466Y-106737797D01*
X113498031Y-106711362D01*
X113491588Y-106700513D01*
X113473087Y-106691262D01*
X113454965Y-106681367D01*
X113453504Y-106681471D01*
X113388600Y-106649019D01*
X113382666Y-106642708D01*
X113369288Y-106639363D01*
X113367009Y-106638224D01*
X113358876Y-106636760D01*
X113178813Y-106591744D01*
X113101824Y-106553250D01*
X113071417Y-106522843D01*
X113037160Y-106454328D01*
X113037160Y-106394501D01*
X113071418Y-106325983D01*
X113101824Y-106295577D01*
X113170340Y-106261319D01*
X113378561Y-106261319D01*
X113520099Y-106308499D01*
X113552885Y-106309684D01*
X113590773Y-106287227D01*
X113610505Y-106247851D01*
X113605817Y-106204057D01*
X113600492Y-106197443D01*
X113741933Y-106197443D01*
X113760229Y-106237507D01*
X113797281Y-106261319D01*
X114030017Y-106261319D01*
X114030017Y-107197101D01*
X114039260Y-107228579D01*
X114072546Y-107257421D01*
X114116141Y-107263689D01*
X114156205Y-107245393D01*
X114180017Y-107208341D01*
X114180017Y-106261319D01*
X114401513Y-106261319D01*
X114432991Y-106252076D01*
X114461833Y-106218790D01*
X114468101Y-106175195D01*
X114449805Y-106135131D01*
X114412753Y-106111319D01*
X114110377Y-106111319D01*
X114093893Y-106108949D01*
X114088703Y-106111319D01*
X113808521Y-106111319D01*
X113777043Y-106120562D01*
X113748201Y-106153848D01*
X113741933Y-106197443D01*
X113600492Y-106197443D01*
X113578197Y-106169751D01*
X113423368Y-106118141D01*
X113412753Y-106111319D01*
X113392073Y-106111319D01*
X113371434Y-106110573D01*
X113370175Y-106111319D01*
X113156667Y-106111319D01*
X113138792Y-106109389D01*
X113125082Y-106116243D01*
X113110376Y-106120562D01*
X113105736Y-106125916D01*
X113032267Y-106162650D01*
X113019937Y-106165333D01*
X113005317Y-106179952D01*
X112990192Y-106194022D01*
X112989829Y-106195440D01*
X112963394Y-106221875D01*
X112952545Y-106228319D01*
X112943294Y-106246819D01*
X112933399Y-106264942D01*
X112933503Y-106266402D01*
X112896883Y-106339643D01*
X112887160Y-106354773D01*
X112887160Y-106370103D01*
X112884446Y-106385186D01*
X112656206Y-106385186D01*
X112656206Y-106380825D01*
X112658137Y-106362951D01*
X112651282Y-106349241D01*
X112646964Y-106334535D01*
X112641609Y-106329895D01*
X112604875Y-106256426D01*
X112602193Y-106244096D01*
X112587573Y-106229476D01*
X112573504Y-106214351D01*
X112572085Y-106213988D01*
X112545650Y-106187553D01*
X112539207Y-106176704D01*
X112520706Y-106167453D01*
X112502584Y-106157558D01*
X112501123Y-106157662D01*
X112427882Y-106121042D01*
X112412753Y-106111319D01*
X112397423Y-106111319D01*
X112382340Y-106108605D01*
X112375796Y-106111319D01*
X112015139Y-106111319D01*
X111998655Y-106108949D01*
X111983502Y-106115868D01*
X111967519Y-106120562D01*
X111963782Y-106124874D01*
X111958591Y-106127245D01*
X111949583Y-106141261D01*
X111938677Y-106153848D01*
X111937865Y-106159494D01*
X111934779Y-106164297D01*
X111934779Y-106180959D01*
X111932409Y-106197443D01*
X111934779Y-106202632D01*
X111934779Y-106704768D01*
X111932409Y-106721252D01*
X111305143Y-106721252D01*
X111305143Y-105573643D01*
X114930143Y-105573643D01*
X114930143Y-107684357D01*
G37*
D13*
X143080702Y-111327748D02*
X142307304Y-110333379D01*
X142307304Y-110333379D02*
X142644021Y-109996662D01*
X142644021Y-109996662D02*
X142765029Y-109959833D01*
X142765029Y-109959833D02*
X142843948Y-109965094D01*
X142843948Y-109965094D02*
X142959694Y-110017707D01*
X142959694Y-110017707D02*
X143070180Y-110159759D01*
X143070180Y-110159759D02*
X143101747Y-110296551D01*
X143101747Y-110296551D02*
X143096486Y-110385991D01*
X143096486Y-110385991D02*
X143049135Y-110517522D01*
X143049135Y-110517522D02*
X142712417Y-110854239D01*
X143701525Y-110201849D02*
X144122422Y-109780952D01*
X143838316Y-110570134D02*
X143359546Y-109281137D01*
X143359546Y-109281137D02*
X144427572Y-109980878D01*
X144369699Y-108270984D02*
X143948802Y-108691881D01*
X143948802Y-108691881D02*
X144274997Y-109207480D01*
X144274997Y-109207480D02*
X144280258Y-109118039D01*
X144280258Y-109118039D02*
X144327609Y-108986509D01*
X144327609Y-108986509D02*
X144538058Y-108776060D01*
X144538058Y-108776060D02*
X144659066Y-108739232D01*
X144659066Y-108739232D02*
X144737984Y-108744493D01*
X144737984Y-108744493D02*
X144853730Y-108797105D01*
X144853730Y-108797105D02*
X145037873Y-109033860D01*
X145037873Y-109033860D02*
X145069440Y-109170651D01*
X145069440Y-109170651D02*
X145064179Y-109260092D01*
X145064179Y-109260092D02*
X145016828Y-109391622D01*
X145016828Y-109391622D02*
X144806380Y-109602071D01*
X144806380Y-109602071D02*
X144685372Y-109638899D01*
X144685372Y-109638899D02*
X144606454Y-109633638D01*
D12*
X137779214Y-108863546D02*
X137829722Y-108866913D01*
X137829722Y-108866913D02*
X137826355Y-108924155D01*
X137826355Y-108924155D02*
X137775847Y-108920788D01*
X137775847Y-108920788D02*
X137779214Y-108863546D01*
X137779214Y-108863546D02*
X137826355Y-108924155D01*
X138418977Y-108331532D02*
X137994713Y-108217048D01*
X138095729Y-108654781D02*
X137600754Y-108018385D01*
X137600754Y-108018385D02*
X137816253Y-107802886D01*
X137816253Y-107802886D02*
X137893698Y-107779316D01*
X137893698Y-107779316D02*
X137944206Y-107782683D01*
X137944206Y-107782683D02*
X138018284Y-107816355D01*
X138018284Y-107816355D02*
X138088994Y-107907268D01*
X138088994Y-107907268D02*
X138109197Y-107994815D01*
X138109197Y-107994815D02*
X138105830Y-108052057D01*
X138105830Y-108052057D02*
X138075526Y-108136236D01*
X138075526Y-108136236D02*
X137860026Y-108351735D01*
X138112565Y-107506575D02*
X138984663Y-107765847D01*
X138489688Y-107129451D02*
X138607539Y-108142971D01*
X138725391Y-107001498D02*
X138728758Y-106944256D01*
X138728758Y-106944256D02*
X138759062Y-106860077D01*
X138759062Y-106860077D02*
X138893749Y-106725390D01*
X138893749Y-106725390D02*
X138971194Y-106701819D01*
X138971194Y-106701819D02*
X139021702Y-106705187D01*
X139021702Y-106705187D02*
X139095780Y-106738858D01*
X139095780Y-106738858D02*
X139142920Y-106799468D01*
X139142920Y-106799468D02*
X139186694Y-106917319D01*
X139186694Y-106917319D02*
X139146287Y-107604222D01*
X139146287Y-107604222D02*
X139496474Y-107254036D01*
X116775255Y-86586319D02*
X116870493Y-86586319D01*
X116870493Y-86586319D02*
X116965731Y-86633938D01*
X116965731Y-86633938D02*
X117013350Y-86681557D01*
X117013350Y-86681557D02*
X117060969Y-86776795D01*
X117060969Y-86776795D02*
X117108588Y-86967271D01*
X117108588Y-86967271D02*
X117108588Y-87205366D01*
X117108588Y-87205366D02*
X117060969Y-87395842D01*
X117060969Y-87395842D02*
X117013350Y-87491080D01*
X117013350Y-87491080D02*
X116965731Y-87538700D01*
X116965731Y-87538700D02*
X116870493Y-87586319D01*
X116870493Y-87586319D02*
X116775255Y-87586319D01*
X116775255Y-87586319D02*
X116680017Y-87538700D01*
X116680017Y-87538700D02*
X116632398Y-87491080D01*
X116632398Y-87491080D02*
X116584779Y-87395842D01*
X116584779Y-87395842D02*
X116537160Y-87205366D01*
X116537160Y-87205366D02*
X116537160Y-86967271D01*
X116537160Y-86967271D02*
X116584779Y-86776795D01*
X116584779Y-86776795D02*
X116632398Y-86681557D01*
X116632398Y-86681557D02*
X116680017Y-86633938D01*
X116680017Y-86633938D02*
X116775255Y-86586319D01*
D13*
X138030702Y-111327748D02*
X137257304Y-110333379D01*
X137257304Y-110333379D02*
X137594021Y-109996662D01*
X137594021Y-109996662D02*
X137715029Y-109959833D01*
X137715029Y-109959833D02*
X137793948Y-109965094D01*
X137793948Y-109965094D02*
X137909694Y-110017707D01*
X137909694Y-110017707D02*
X138020180Y-110159759D01*
X138020180Y-110159759D02*
X138051747Y-110296551D01*
X138051747Y-110296551D02*
X138046486Y-110385991D01*
X138046486Y-110385991D02*
X137999135Y-110517522D01*
X137999135Y-110517522D02*
X137662417Y-110854239D01*
X138651525Y-110201849D02*
X139072422Y-109780952D01*
X138788316Y-110570134D02*
X138309546Y-109281137D01*
X138309546Y-109281137D02*
X139377572Y-109980878D01*
X139535409Y-108644530D02*
X140051007Y-109307443D01*
X139030332Y-108476171D02*
X139372311Y-109396883D01*
X139372311Y-109396883D02*
X139919477Y-108849717D01*
X155830702Y-111327748D02*
X155057304Y-110333379D01*
X155057304Y-110333379D02*
X155394021Y-109996662D01*
X155394021Y-109996662D02*
X155515029Y-109959833D01*
X155515029Y-109959833D02*
X155593948Y-109965094D01*
X155593948Y-109965094D02*
X155709694Y-110017707D01*
X155709694Y-110017707D02*
X155820180Y-110159759D01*
X155820180Y-110159759D02*
X155851747Y-110296551D01*
X155851747Y-110296551D02*
X155846486Y-110385991D01*
X155846486Y-110385991D02*
X155799135Y-110517522D01*
X155799135Y-110517522D02*
X155462417Y-110854239D01*
X156604100Y-109628377D02*
X156767198Y-109549459D01*
X156767198Y-109549459D02*
X156846116Y-109554720D01*
X156846116Y-109554720D02*
X156961862Y-109607332D01*
X156961862Y-109607332D02*
X157072348Y-109749385D01*
X157072348Y-109749385D02*
X157103915Y-109886176D01*
X157103915Y-109886176D02*
X157098654Y-109975617D01*
X157098654Y-109975617D02*
X157051303Y-110107147D01*
X157051303Y-110107147D02*
X156714585Y-110443865D01*
X156714585Y-110443865D02*
X155941187Y-109449496D01*
X155941187Y-109449496D02*
X156235815Y-109154868D01*
X156235815Y-109154868D02*
X156356823Y-109118039D01*
X156356823Y-109118039D02*
X156435741Y-109123301D01*
X156435741Y-109123301D02*
X156551488Y-109175913D01*
X156551488Y-109175913D02*
X156625145Y-109270615D01*
X156625145Y-109270615D02*
X156656712Y-109407406D01*
X156656712Y-109407406D02*
X156651451Y-109496847D01*
X156651451Y-109496847D02*
X156604100Y-109628377D01*
X156604100Y-109628377D02*
X156309472Y-109923005D01*
X158061456Y-109096995D02*
X157556379Y-109602071D01*
X157808917Y-109349533D02*
X157035519Y-108355164D01*
X157035519Y-108355164D02*
X157061825Y-108581396D01*
X157061825Y-108581396D02*
X157051303Y-108760277D01*
X157051303Y-108760277D02*
X157003952Y-108891807D01*
D12*
X164177214Y-108105046D02*
X164227722Y-108108413D01*
X164227722Y-108108413D02*
X164224355Y-108165655D01*
X164224355Y-108165655D02*
X164173847Y-108162288D01*
X164173847Y-108162288D02*
X164177214Y-108105046D01*
X164177214Y-108105046D02*
X164224355Y-108165655D01*
X164443221Y-107892914D02*
X164547603Y-107842406D01*
X164547603Y-107842406D02*
X164682290Y-107707719D01*
X164682290Y-107707719D02*
X164712595Y-107623540D01*
X164712595Y-107623540D02*
X164715962Y-107566298D01*
X164715962Y-107566298D02*
X164695759Y-107478752D01*
X164695759Y-107478752D02*
X164648619Y-107418142D01*
X164648619Y-107418142D02*
X164574541Y-107384471D01*
X164574541Y-107384471D02*
X164524033Y-107381103D01*
X164524033Y-107381103D02*
X164446588Y-107404674D01*
X164446588Y-107404674D02*
X164315268Y-107482119D01*
X164315268Y-107482119D02*
X164237823Y-107505689D01*
X164237823Y-107505689D02*
X164187316Y-107502322D01*
X164187316Y-107502322D02*
X164113238Y-107468650D01*
X164113238Y-107468650D02*
X164066097Y-107408041D01*
X164066097Y-107408041D02*
X164045894Y-107320494D01*
X164045894Y-107320494D02*
X164049262Y-107263252D01*
X164049262Y-107263252D02*
X164079566Y-107179073D01*
X164079566Y-107179073D02*
X164214253Y-107044386D01*
X164214253Y-107044386D02*
X164318636Y-106993878D01*
X165308585Y-106973675D02*
X165305218Y-107030917D01*
X165305218Y-107030917D02*
X165247976Y-107142034D01*
X165247976Y-107142034D02*
X165194101Y-107195909D01*
X165194101Y-107195909D02*
X165089719Y-107246416D01*
X165089719Y-107246416D02*
X164988704Y-107239682D01*
X164988704Y-107239682D02*
X164914626Y-107206010D01*
X164914626Y-107206010D02*
X164793407Y-107111729D01*
X164793407Y-107111729D02*
X164722697Y-107020816D01*
X164722697Y-107020816D02*
X164655353Y-106872660D01*
X164655353Y-106872660D02*
X164635150Y-106785113D01*
X164635150Y-106785113D02*
X164641885Y-106670629D01*
X164641885Y-106670629D02*
X164699126Y-106559513D01*
X164699126Y-106559513D02*
X164753001Y-106505638D01*
X164753001Y-106505638D02*
X164857384Y-106455130D01*
X164857384Y-106455130D02*
X164907891Y-106458497D01*
X165867536Y-106522474D02*
X165598162Y-106791848D01*
X165598162Y-106791848D02*
X165103188Y-106155452D01*
X165581326Y-105785062D02*
X165584694Y-105727820D01*
X165584694Y-105727820D02*
X165614998Y-105643641D01*
X165614998Y-105643641D02*
X165749685Y-105508954D01*
X165749685Y-105508954D02*
X165827130Y-105485384D01*
X165827130Y-105485384D02*
X165877638Y-105488751D01*
X165877638Y-105488751D02*
X165951716Y-105522423D01*
X165951716Y-105522423D02*
X165998856Y-105583032D01*
X165998856Y-105583032D02*
X166042629Y-105700883D01*
X166042629Y-105700883D02*
X166002223Y-106387787D01*
X166002223Y-106387787D02*
X166352409Y-106037600D01*
D13*
X168249756Y-111368123D02*
X168406006Y-110118123D01*
X168406006Y-110118123D02*
X168882197Y-110118123D01*
X168882197Y-110118123D02*
X168993804Y-110177647D01*
X168993804Y-110177647D02*
X169045887Y-110237171D01*
X169045887Y-110237171D02*
X169090530Y-110356219D01*
X169090530Y-110356219D02*
X169068208Y-110534790D01*
X169068208Y-110534790D02*
X168993804Y-110653838D01*
X168993804Y-110653838D02*
X168926839Y-110713361D01*
X168926839Y-110713361D02*
X168800351Y-110772885D01*
X168800351Y-110772885D02*
X168324161Y-110772885D01*
X169536958Y-110118123D02*
X169678328Y-111368123D01*
X169678328Y-111368123D02*
X170028030Y-110475266D01*
X170028030Y-110475266D02*
X170154518Y-111368123D01*
X170154518Y-111368123D02*
X170608387Y-110118123D01*
X171642613Y-111368123D02*
X171300351Y-110772885D01*
X170928327Y-111368123D02*
X171084577Y-110118123D01*
X171084577Y-110118123D02*
X171560768Y-110118123D01*
X171560768Y-110118123D02*
X171672375Y-110177647D01*
X171672375Y-110177647D02*
X171724458Y-110237171D01*
X171724458Y-110237171D02*
X171769101Y-110356219D01*
X171769101Y-110356219D02*
X171746779Y-110534790D01*
X171746779Y-110534790D02*
X171672375Y-110653838D01*
X171672375Y-110653838D02*
X171605410Y-110713361D01*
X171605410Y-110713361D02*
X171478922Y-110772885D01*
X171478922Y-110772885D02*
X171002732Y-110772885D01*
D12*
%TO.C,C8*%
X135758933Y-105214680D02*
X135711314Y-105262300D01*
X135711314Y-105262300D02*
X135568457Y-105309919D01*
X135568457Y-105309919D02*
X135473219Y-105309919D01*
X135473219Y-105309919D02*
X135330362Y-105262300D01*
X135330362Y-105262300D02*
X135235124Y-105167061D01*
X135235124Y-105167061D02*
X135187505Y-105071823D01*
X135187505Y-105071823D02*
X135139886Y-104881347D01*
X135139886Y-104881347D02*
X135139886Y-104738490D01*
X135139886Y-104738490D02*
X135187505Y-104548014D01*
X135187505Y-104548014D02*
X135235124Y-104452776D01*
X135235124Y-104452776D02*
X135330362Y-104357538D01*
X135330362Y-104357538D02*
X135473219Y-104309919D01*
X135473219Y-104309919D02*
X135568457Y-104309919D01*
X135568457Y-104309919D02*
X135711314Y-104357538D01*
X135711314Y-104357538D02*
X135758933Y-104405157D01*
X136330362Y-104738490D02*
X136235124Y-104690871D01*
X136235124Y-104690871D02*
X136187505Y-104643252D01*
X136187505Y-104643252D02*
X136139886Y-104548014D01*
X136139886Y-104548014D02*
X136139886Y-104500395D01*
X136139886Y-104500395D02*
X136187505Y-104405157D01*
X136187505Y-104405157D02*
X136235124Y-104357538D01*
X136235124Y-104357538D02*
X136330362Y-104309919D01*
X136330362Y-104309919D02*
X136520838Y-104309919D01*
X136520838Y-104309919D02*
X136616076Y-104357538D01*
X136616076Y-104357538D02*
X136663695Y-104405157D01*
X136663695Y-104405157D02*
X136711314Y-104500395D01*
X136711314Y-104500395D02*
X136711314Y-104548014D01*
X136711314Y-104548014D02*
X136663695Y-104643252D01*
X136663695Y-104643252D02*
X136616076Y-104690871D01*
X136616076Y-104690871D02*
X136520838Y-104738490D01*
X136520838Y-104738490D02*
X136330362Y-104738490D01*
X136330362Y-104738490D02*
X136235124Y-104786109D01*
X136235124Y-104786109D02*
X136187505Y-104833728D01*
X136187505Y-104833728D02*
X136139886Y-104928966D01*
X136139886Y-104928966D02*
X136139886Y-105119442D01*
X136139886Y-105119442D02*
X136187505Y-105214680D01*
X136187505Y-105214680D02*
X136235124Y-105262300D01*
X136235124Y-105262300D02*
X136330362Y-105309919D01*
X136330362Y-105309919D02*
X136520838Y-105309919D01*
X136520838Y-105309919D02*
X136616076Y-105262300D01*
X136616076Y-105262300D02*
X136663695Y-105214680D01*
X136663695Y-105214680D02*
X136711314Y-105119442D01*
X136711314Y-105119442D02*
X136711314Y-104928966D01*
X136711314Y-104928966D02*
X136663695Y-104833728D01*
X136663695Y-104833728D02*
X136616076Y-104786109D01*
X136616076Y-104786109D02*
X136520838Y-104738490D01*
%TO.C,R11*%
X157007142Y-102796319D02*
X156673809Y-102320128D01*
X156435714Y-102796319D02*
X156435714Y-101796319D01*
X156435714Y-101796319D02*
X156816666Y-101796319D01*
X156816666Y-101796319D02*
X156911904Y-101843938D01*
X156911904Y-101843938D02*
X156959523Y-101891557D01*
X156959523Y-101891557D02*
X157007142Y-101986795D01*
X157007142Y-101986795D02*
X157007142Y-102129652D01*
X157007142Y-102129652D02*
X156959523Y-102224890D01*
X156959523Y-102224890D02*
X156911904Y-102272509D01*
X156911904Y-102272509D02*
X156816666Y-102320128D01*
X156816666Y-102320128D02*
X156435714Y-102320128D01*
X157959523Y-102796319D02*
X157388095Y-102796319D01*
X157673809Y-102796319D02*
X157673809Y-101796319D01*
X157673809Y-101796319D02*
X157578571Y-101939176D01*
X157578571Y-101939176D02*
X157483333Y-102034414D01*
X157483333Y-102034414D02*
X157388095Y-102082033D01*
X158911904Y-102796319D02*
X158340476Y-102796319D01*
X158626190Y-102796319D02*
X158626190Y-101796319D01*
X158626190Y-101796319D02*
X158530952Y-101939176D01*
X158530952Y-101939176D02*
X158435714Y-102034414D01*
X158435714Y-102034414D02*
X158340476Y-102082033D01*
%TO.C,R12*%
X117704819Y-106702857D02*
X117228628Y-107036190D01*
X117704819Y-107274285D02*
X116704819Y-107274285D01*
X116704819Y-107274285D02*
X116704819Y-106893333D01*
X116704819Y-106893333D02*
X116752438Y-106798095D01*
X116752438Y-106798095D02*
X116800057Y-106750476D01*
X116800057Y-106750476D02*
X116895295Y-106702857D01*
X116895295Y-106702857D02*
X117038152Y-106702857D01*
X117038152Y-106702857D02*
X117133390Y-106750476D01*
X117133390Y-106750476D02*
X117181009Y-106798095D01*
X117181009Y-106798095D02*
X117228628Y-106893333D01*
X117228628Y-106893333D02*
X117228628Y-107274285D01*
X117704819Y-105750476D02*
X117704819Y-106321904D01*
X117704819Y-106036190D02*
X116704819Y-106036190D01*
X116704819Y-106036190D02*
X116847676Y-106131428D01*
X116847676Y-106131428D02*
X116942914Y-106226666D01*
X116942914Y-106226666D02*
X116990533Y-106321904D01*
X116800057Y-105369523D02*
X116752438Y-105321904D01*
X116752438Y-105321904D02*
X116704819Y-105226666D01*
X116704819Y-105226666D02*
X116704819Y-104988571D01*
X116704819Y-104988571D02*
X116752438Y-104893333D01*
X116752438Y-104893333D02*
X116800057Y-104845714D01*
X116800057Y-104845714D02*
X116895295Y-104798095D01*
X116895295Y-104798095D02*
X116990533Y-104798095D01*
X116990533Y-104798095D02*
X117133390Y-104845714D01*
X117133390Y-104845714D02*
X117704819Y-105417142D01*
X117704819Y-105417142D02*
X117704819Y-104798095D01*
%TO.C,C5*%
X143053333Y-91709580D02*
X143005714Y-91757200D01*
X143005714Y-91757200D02*
X142862857Y-91804819D01*
X142862857Y-91804819D02*
X142767619Y-91804819D01*
X142767619Y-91804819D02*
X142624762Y-91757200D01*
X142624762Y-91757200D02*
X142529524Y-91661961D01*
X142529524Y-91661961D02*
X142481905Y-91566723D01*
X142481905Y-91566723D02*
X142434286Y-91376247D01*
X142434286Y-91376247D02*
X142434286Y-91233390D01*
X142434286Y-91233390D02*
X142481905Y-91042914D01*
X142481905Y-91042914D02*
X142529524Y-90947676D01*
X142529524Y-90947676D02*
X142624762Y-90852438D01*
X142624762Y-90852438D02*
X142767619Y-90804819D01*
X142767619Y-90804819D02*
X142862857Y-90804819D01*
X142862857Y-90804819D02*
X143005714Y-90852438D01*
X143005714Y-90852438D02*
X143053333Y-90900057D01*
X143958095Y-90804819D02*
X143481905Y-90804819D01*
X143481905Y-90804819D02*
X143434286Y-91281009D01*
X143434286Y-91281009D02*
X143481905Y-91233390D01*
X143481905Y-91233390D02*
X143577143Y-91185771D01*
X143577143Y-91185771D02*
X143815238Y-91185771D01*
X143815238Y-91185771D02*
X143910476Y-91233390D01*
X143910476Y-91233390D02*
X143958095Y-91281009D01*
X143958095Y-91281009D02*
X144005714Y-91376247D01*
X144005714Y-91376247D02*
X144005714Y-91614342D01*
X144005714Y-91614342D02*
X143958095Y-91709580D01*
X143958095Y-91709580D02*
X143910476Y-91757200D01*
X143910476Y-91757200D02*
X143815238Y-91804819D01*
X143815238Y-91804819D02*
X143577143Y-91804819D01*
X143577143Y-91804819D02*
X143481905Y-91757200D01*
X143481905Y-91757200D02*
X143434286Y-91709580D01*
%TO.C,R7*%
X119079333Y-95011319D02*
X118746000Y-94535128D01*
X118507905Y-95011319D02*
X118507905Y-94011319D01*
X118507905Y-94011319D02*
X118888857Y-94011319D01*
X118888857Y-94011319D02*
X118984095Y-94058938D01*
X118984095Y-94058938D02*
X119031714Y-94106557D01*
X119031714Y-94106557D02*
X119079333Y-94201795D01*
X119079333Y-94201795D02*
X119079333Y-94344652D01*
X119079333Y-94344652D02*
X119031714Y-94439890D01*
X119031714Y-94439890D02*
X118984095Y-94487509D01*
X118984095Y-94487509D02*
X118888857Y-94535128D01*
X118888857Y-94535128D02*
X118507905Y-94535128D01*
X119412667Y-94011319D02*
X120079333Y-94011319D01*
X120079333Y-94011319D02*
X119650762Y-95011319D01*
%TO.C,SW1*%
X118530200Y-84424832D02*
X118577819Y-84281975D01*
X118577819Y-84281975D02*
X118577819Y-84043880D01*
X118577819Y-84043880D02*
X118530200Y-83948642D01*
X118530200Y-83948642D02*
X118482580Y-83901023D01*
X118482580Y-83901023D02*
X118387342Y-83853404D01*
X118387342Y-83853404D02*
X118292104Y-83853404D01*
X118292104Y-83853404D02*
X118196866Y-83901023D01*
X118196866Y-83901023D02*
X118149247Y-83948642D01*
X118149247Y-83948642D02*
X118101628Y-84043880D01*
X118101628Y-84043880D02*
X118054009Y-84234356D01*
X118054009Y-84234356D02*
X118006390Y-84329594D01*
X118006390Y-84329594D02*
X117958771Y-84377213D01*
X117958771Y-84377213D02*
X117863533Y-84424832D01*
X117863533Y-84424832D02*
X117768295Y-84424832D01*
X117768295Y-84424832D02*
X117673057Y-84377213D01*
X117673057Y-84377213D02*
X117625438Y-84329594D01*
X117625438Y-84329594D02*
X117577819Y-84234356D01*
X117577819Y-84234356D02*
X117577819Y-83996261D01*
X117577819Y-83996261D02*
X117625438Y-83853404D01*
X117577819Y-83520070D02*
X118577819Y-83281975D01*
X118577819Y-83281975D02*
X117863533Y-83091499D01*
X117863533Y-83091499D02*
X118577819Y-82901023D01*
X118577819Y-82901023D02*
X117577819Y-82662928D01*
X118577819Y-81758166D02*
X118577819Y-82329594D01*
X118577819Y-82043880D02*
X117577819Y-82043880D01*
X117577819Y-82043880D02*
X117720676Y-82139118D01*
X117720676Y-82139118D02*
X117815914Y-82234356D01*
X117815914Y-82234356D02*
X117863533Y-82329594D01*
%TO.C,C15*%
X127582580Y-97734357D02*
X127630200Y-97781976D01*
X127630200Y-97781976D02*
X127677819Y-97924833D01*
X127677819Y-97924833D02*
X127677819Y-98020071D01*
X127677819Y-98020071D02*
X127630200Y-98162928D01*
X127630200Y-98162928D02*
X127534961Y-98258166D01*
X127534961Y-98258166D02*
X127439723Y-98305785D01*
X127439723Y-98305785D02*
X127249247Y-98353404D01*
X127249247Y-98353404D02*
X127106390Y-98353404D01*
X127106390Y-98353404D02*
X126915914Y-98305785D01*
X126915914Y-98305785D02*
X126820676Y-98258166D01*
X126820676Y-98258166D02*
X126725438Y-98162928D01*
X126725438Y-98162928D02*
X126677819Y-98020071D01*
X126677819Y-98020071D02*
X126677819Y-97924833D01*
X126677819Y-97924833D02*
X126725438Y-97781976D01*
X126725438Y-97781976D02*
X126773057Y-97734357D01*
X127677819Y-96781976D02*
X127677819Y-97353404D01*
X127677819Y-97067690D02*
X126677819Y-97067690D01*
X126677819Y-97067690D02*
X126820676Y-97162928D01*
X126820676Y-97162928D02*
X126915914Y-97258166D01*
X126915914Y-97258166D02*
X126963533Y-97353404D01*
X126677819Y-95877214D02*
X126677819Y-96353404D01*
X126677819Y-96353404D02*
X127154009Y-96401023D01*
X127154009Y-96401023D02*
X127106390Y-96353404D01*
X127106390Y-96353404D02*
X127058771Y-96258166D01*
X127058771Y-96258166D02*
X127058771Y-96020071D01*
X127058771Y-96020071D02*
X127106390Y-95924833D01*
X127106390Y-95924833D02*
X127154009Y-95877214D01*
X127154009Y-95877214D02*
X127249247Y-95829595D01*
X127249247Y-95829595D02*
X127487342Y-95829595D01*
X127487342Y-95829595D02*
X127582580Y-95877214D01*
X127582580Y-95877214D02*
X127630200Y-95924833D01*
X127630200Y-95924833D02*
X127677819Y-96020071D01*
X127677819Y-96020071D02*
X127677819Y-96258166D01*
X127677819Y-96258166D02*
X127630200Y-96353404D01*
X127630200Y-96353404D02*
X127582580Y-96401023D01*
%TO.C,J1*%
X171176819Y-93291833D02*
X171891104Y-93291833D01*
X171891104Y-93291833D02*
X172033961Y-93339452D01*
X172033961Y-93339452D02*
X172129200Y-93434690D01*
X172129200Y-93434690D02*
X172176819Y-93577547D01*
X172176819Y-93577547D02*
X172176819Y-93672785D01*
X172176819Y-92291833D02*
X172176819Y-92863261D01*
X172176819Y-92577547D02*
X171176819Y-92577547D01*
X171176819Y-92577547D02*
X171319676Y-92672785D01*
X171319676Y-92672785D02*
X171414914Y-92768023D01*
X171414914Y-92768023D02*
X171462533Y-92863261D01*
%TO.C,C11*%
X135855142Y-100201080D02*
X135807523Y-100248700D01*
X135807523Y-100248700D02*
X135664666Y-100296319D01*
X135664666Y-100296319D02*
X135569428Y-100296319D01*
X135569428Y-100296319D02*
X135426571Y-100248700D01*
X135426571Y-100248700D02*
X135331333Y-100153461D01*
X135331333Y-100153461D02*
X135283714Y-100058223D01*
X135283714Y-100058223D02*
X135236095Y-99867747D01*
X135236095Y-99867747D02*
X135236095Y-99724890D01*
X135236095Y-99724890D02*
X135283714Y-99534414D01*
X135283714Y-99534414D02*
X135331333Y-99439176D01*
X135331333Y-99439176D02*
X135426571Y-99343938D01*
X135426571Y-99343938D02*
X135569428Y-99296319D01*
X135569428Y-99296319D02*
X135664666Y-99296319D01*
X135664666Y-99296319D02*
X135807523Y-99343938D01*
X135807523Y-99343938D02*
X135855142Y-99391557D01*
X136807523Y-100296319D02*
X136236095Y-100296319D01*
X136521809Y-100296319D02*
X136521809Y-99296319D01*
X136521809Y-99296319D02*
X136426571Y-99439176D01*
X136426571Y-99439176D02*
X136331333Y-99534414D01*
X136331333Y-99534414D02*
X136236095Y-99582033D01*
X137759904Y-100296319D02*
X137188476Y-100296319D01*
X137474190Y-100296319D02*
X137474190Y-99296319D01*
X137474190Y-99296319D02*
X137378952Y-99439176D01*
X137378952Y-99439176D02*
X137283714Y-99534414D01*
X137283714Y-99534414D02*
X137188476Y-99582033D01*
%TO.C,R5*%
X171031333Y-87496319D02*
X170698000Y-87020128D01*
X170459905Y-87496319D02*
X170459905Y-86496319D01*
X170459905Y-86496319D02*
X170840857Y-86496319D01*
X170840857Y-86496319D02*
X170936095Y-86543938D01*
X170936095Y-86543938D02*
X170983714Y-86591557D01*
X170983714Y-86591557D02*
X171031333Y-86686795D01*
X171031333Y-86686795D02*
X171031333Y-86829652D01*
X171031333Y-86829652D02*
X170983714Y-86924890D01*
X170983714Y-86924890D02*
X170936095Y-86972509D01*
X170936095Y-86972509D02*
X170840857Y-87020128D01*
X170840857Y-87020128D02*
X170459905Y-87020128D01*
X171936095Y-86496319D02*
X171459905Y-86496319D01*
X171459905Y-86496319D02*
X171412286Y-86972509D01*
X171412286Y-86972509D02*
X171459905Y-86924890D01*
X171459905Y-86924890D02*
X171555143Y-86877271D01*
X171555143Y-86877271D02*
X171793238Y-86877271D01*
X171793238Y-86877271D02*
X171888476Y-86924890D01*
X171888476Y-86924890D02*
X171936095Y-86972509D01*
X171936095Y-86972509D02*
X171983714Y-87067747D01*
X171983714Y-87067747D02*
X171983714Y-87305842D01*
X171983714Y-87305842D02*
X171936095Y-87401080D01*
X171936095Y-87401080D02*
X171888476Y-87448700D01*
X171888476Y-87448700D02*
X171793238Y-87496319D01*
X171793238Y-87496319D02*
X171555143Y-87496319D01*
X171555143Y-87496319D02*
X171459905Y-87448700D01*
X171459905Y-87448700D02*
X171412286Y-87401080D01*
%TO.C,R2*%
X158352819Y-96568666D02*
X157876628Y-96901999D01*
X158352819Y-97140094D02*
X157352819Y-97140094D01*
X157352819Y-97140094D02*
X157352819Y-96759142D01*
X157352819Y-96759142D02*
X157400438Y-96663904D01*
X157400438Y-96663904D02*
X157448057Y-96616285D01*
X157448057Y-96616285D02*
X157543295Y-96568666D01*
X157543295Y-96568666D02*
X157686152Y-96568666D01*
X157686152Y-96568666D02*
X157781390Y-96616285D01*
X157781390Y-96616285D02*
X157829009Y-96663904D01*
X157829009Y-96663904D02*
X157876628Y-96759142D01*
X157876628Y-96759142D02*
X157876628Y-97140094D01*
X157448057Y-96187713D02*
X157400438Y-96140094D01*
X157400438Y-96140094D02*
X157352819Y-96044856D01*
X157352819Y-96044856D02*
X157352819Y-95806761D01*
X157352819Y-95806761D02*
X157400438Y-95711523D01*
X157400438Y-95711523D02*
X157448057Y-95663904D01*
X157448057Y-95663904D02*
X157543295Y-95616285D01*
X157543295Y-95616285D02*
X157638533Y-95616285D01*
X157638533Y-95616285D02*
X157781390Y-95663904D01*
X157781390Y-95663904D02*
X158352819Y-96235332D01*
X158352819Y-96235332D02*
X158352819Y-95616285D01*
%TO.C,C3*%
X150964933Y-104401880D02*
X150917314Y-104449500D01*
X150917314Y-104449500D02*
X150774457Y-104497119D01*
X150774457Y-104497119D02*
X150679219Y-104497119D01*
X150679219Y-104497119D02*
X150536362Y-104449500D01*
X150536362Y-104449500D02*
X150441124Y-104354261D01*
X150441124Y-104354261D02*
X150393505Y-104259023D01*
X150393505Y-104259023D02*
X150345886Y-104068547D01*
X150345886Y-104068547D02*
X150345886Y-103925690D01*
X150345886Y-103925690D02*
X150393505Y-103735214D01*
X150393505Y-103735214D02*
X150441124Y-103639976D01*
X150441124Y-103639976D02*
X150536362Y-103544738D01*
X150536362Y-103544738D02*
X150679219Y-103497119D01*
X150679219Y-103497119D02*
X150774457Y-103497119D01*
X150774457Y-103497119D02*
X150917314Y-103544738D01*
X150917314Y-103544738D02*
X150964933Y-103592357D01*
X151298267Y-103497119D02*
X151917314Y-103497119D01*
X151917314Y-103497119D02*
X151583981Y-103878071D01*
X151583981Y-103878071D02*
X151726838Y-103878071D01*
X151726838Y-103878071D02*
X151822076Y-103925690D01*
X151822076Y-103925690D02*
X151869695Y-103973309D01*
X151869695Y-103973309D02*
X151917314Y-104068547D01*
X151917314Y-104068547D02*
X151917314Y-104306642D01*
X151917314Y-104306642D02*
X151869695Y-104401880D01*
X151869695Y-104401880D02*
X151822076Y-104449500D01*
X151822076Y-104449500D02*
X151726838Y-104497119D01*
X151726838Y-104497119D02*
X151441124Y-104497119D01*
X151441124Y-104497119D02*
X151345886Y-104449500D01*
X151345886Y-104449500D02*
X151298267Y-104401880D01*
%TO.C,U2*%
X165024819Y-98461904D02*
X165834342Y-98461904D01*
X165834342Y-98461904D02*
X165929580Y-98414285D01*
X165929580Y-98414285D02*
X165977200Y-98366666D01*
X165977200Y-98366666D02*
X166024819Y-98271428D01*
X166024819Y-98271428D02*
X166024819Y-98080952D01*
X166024819Y-98080952D02*
X165977200Y-97985714D01*
X165977200Y-97985714D02*
X165929580Y-97938095D01*
X165929580Y-97938095D02*
X165834342Y-97890476D01*
X165834342Y-97890476D02*
X165024819Y-97890476D01*
X165120057Y-97461904D02*
X165072438Y-97414285D01*
X165072438Y-97414285D02*
X165024819Y-97319047D01*
X165024819Y-97319047D02*
X165024819Y-97080952D01*
X165024819Y-97080952D02*
X165072438Y-96985714D01*
X165072438Y-96985714D02*
X165120057Y-96938095D01*
X165120057Y-96938095D02*
X165215295Y-96890476D01*
X165215295Y-96890476D02*
X165310533Y-96890476D01*
X165310533Y-96890476D02*
X165453390Y-96938095D01*
X165453390Y-96938095D02*
X166024819Y-97509523D01*
X166024819Y-97509523D02*
X166024819Y-96890476D01*
%TO.C,D1*%
X170459905Y-88946319D02*
X170459905Y-87946319D01*
X170459905Y-87946319D02*
X170698000Y-87946319D01*
X170698000Y-87946319D02*
X170840857Y-87993938D01*
X170840857Y-87993938D02*
X170936095Y-88089176D01*
X170936095Y-88089176D02*
X170983714Y-88184414D01*
X170983714Y-88184414D02*
X171031333Y-88374890D01*
X171031333Y-88374890D02*
X171031333Y-88517747D01*
X171031333Y-88517747D02*
X170983714Y-88708223D01*
X170983714Y-88708223D02*
X170936095Y-88803461D01*
X170936095Y-88803461D02*
X170840857Y-88898700D01*
X170840857Y-88898700D02*
X170698000Y-88946319D01*
X170698000Y-88946319D02*
X170459905Y-88946319D01*
X171983714Y-88946319D02*
X171412286Y-88946319D01*
X171698000Y-88946319D02*
X171698000Y-87946319D01*
X171698000Y-87946319D02*
X171602762Y-88089176D01*
X171602762Y-88089176D02*
X171507524Y-88184414D01*
X171507524Y-88184414D02*
X171412286Y-88232033D01*
%TO.C,D2*%
X154009905Y-102796319D02*
X154009905Y-101796319D01*
X154009905Y-101796319D02*
X154248000Y-101796319D01*
X154248000Y-101796319D02*
X154390857Y-101843938D01*
X154390857Y-101843938D02*
X154486095Y-101939176D01*
X154486095Y-101939176D02*
X154533714Y-102034414D01*
X154533714Y-102034414D02*
X154581333Y-102224890D01*
X154581333Y-102224890D02*
X154581333Y-102367747D01*
X154581333Y-102367747D02*
X154533714Y-102558223D01*
X154533714Y-102558223D02*
X154486095Y-102653461D01*
X154486095Y-102653461D02*
X154390857Y-102748700D01*
X154390857Y-102748700D02*
X154248000Y-102796319D01*
X154248000Y-102796319D02*
X154009905Y-102796319D01*
X154962286Y-101891557D02*
X155009905Y-101843938D01*
X155009905Y-101843938D02*
X155105143Y-101796319D01*
X155105143Y-101796319D02*
X155343238Y-101796319D01*
X155343238Y-101796319D02*
X155438476Y-101843938D01*
X155438476Y-101843938D02*
X155486095Y-101891557D01*
X155486095Y-101891557D02*
X155533714Y-101986795D01*
X155533714Y-101986795D02*
X155533714Y-102082033D01*
X155533714Y-102082033D02*
X155486095Y-102224890D01*
X155486095Y-102224890D02*
X154914667Y-102796319D01*
X154914667Y-102796319D02*
X155533714Y-102796319D01*
%TO.C,R10*%
X122954819Y-108442857D02*
X122478628Y-108776190D01*
X122954819Y-109014285D02*
X121954819Y-109014285D01*
X121954819Y-109014285D02*
X121954819Y-108633333D01*
X121954819Y-108633333D02*
X122002438Y-108538095D01*
X122002438Y-108538095D02*
X122050057Y-108490476D01*
X122050057Y-108490476D02*
X122145295Y-108442857D01*
X122145295Y-108442857D02*
X122288152Y-108442857D01*
X122288152Y-108442857D02*
X122383390Y-108490476D01*
X122383390Y-108490476D02*
X122431009Y-108538095D01*
X122431009Y-108538095D02*
X122478628Y-108633333D01*
X122478628Y-108633333D02*
X122478628Y-109014285D01*
X122954819Y-107490476D02*
X122954819Y-108061904D01*
X122954819Y-107776190D02*
X121954819Y-107776190D01*
X121954819Y-107776190D02*
X122097676Y-107871428D01*
X122097676Y-107871428D02*
X122192914Y-107966666D01*
X122192914Y-107966666D02*
X122240533Y-108061904D01*
X121954819Y-106871428D02*
X121954819Y-106776190D01*
X121954819Y-106776190D02*
X122002438Y-106680952D01*
X122002438Y-106680952D02*
X122050057Y-106633333D01*
X122050057Y-106633333D02*
X122145295Y-106585714D01*
X122145295Y-106585714D02*
X122335771Y-106538095D01*
X122335771Y-106538095D02*
X122573866Y-106538095D01*
X122573866Y-106538095D02*
X122764342Y-106585714D01*
X122764342Y-106585714D02*
X122859580Y-106633333D01*
X122859580Y-106633333D02*
X122907200Y-106680952D01*
X122907200Y-106680952D02*
X122954819Y-106776190D01*
X122954819Y-106776190D02*
X122954819Y-106871428D01*
X122954819Y-106871428D02*
X122907200Y-106966666D01*
X122907200Y-106966666D02*
X122859580Y-107014285D01*
X122859580Y-107014285D02*
X122764342Y-107061904D01*
X122764342Y-107061904D02*
X122573866Y-107109523D01*
X122573866Y-107109523D02*
X122335771Y-107109523D01*
X122335771Y-107109523D02*
X122145295Y-107061904D01*
X122145295Y-107061904D02*
X122050057Y-107014285D01*
X122050057Y-107014285D02*
X122002438Y-106966666D01*
X122002438Y-106966666D02*
X121954819Y-106871428D01*
%TO.C,Y1*%
X133621809Y-94206128D02*
X133621809Y-94682319D01*
X133288476Y-93682319D02*
X133621809Y-94206128D01*
X133621809Y-94206128D02*
X133955142Y-93682319D01*
X134812285Y-94682319D02*
X134240857Y-94682319D01*
X134526571Y-94682319D02*
X134526571Y-93682319D01*
X134526571Y-93682319D02*
X134431333Y-93825176D01*
X134431333Y-93825176D02*
X134336095Y-93920414D01*
X134336095Y-93920414D02*
X134240857Y-93968033D01*
%TO.C,R8*%
X154619118Y-104650666D02*
X154142927Y-104983999D01*
X154619118Y-105222094D02*
X153619118Y-105222094D01*
X153619118Y-105222094D02*
X153619118Y-104841142D01*
X153619118Y-104841142D02*
X153666737Y-104745904D01*
X153666737Y-104745904D02*
X153714356Y-104698285D01*
X153714356Y-104698285D02*
X153809594Y-104650666D01*
X153809594Y-104650666D02*
X153952451Y-104650666D01*
X153952451Y-104650666D02*
X154047689Y-104698285D01*
X154047689Y-104698285D02*
X154095308Y-104745904D01*
X154095308Y-104745904D02*
X154142927Y-104841142D01*
X154142927Y-104841142D02*
X154142927Y-105222094D01*
X154047689Y-104079237D02*
X154000070Y-104174475D01*
X154000070Y-104174475D02*
X153952451Y-104222094D01*
X153952451Y-104222094D02*
X153857213Y-104269713D01*
X153857213Y-104269713D02*
X153809594Y-104269713D01*
X153809594Y-104269713D02*
X153714356Y-104222094D01*
X153714356Y-104222094D02*
X153666737Y-104174475D01*
X153666737Y-104174475D02*
X153619118Y-104079237D01*
X153619118Y-104079237D02*
X153619118Y-103888761D01*
X153619118Y-103888761D02*
X153666737Y-103793523D01*
X153666737Y-103793523D02*
X153714356Y-103745904D01*
X153714356Y-103745904D02*
X153809594Y-103698285D01*
X153809594Y-103698285D02*
X153857213Y-103698285D01*
X153857213Y-103698285D02*
X153952451Y-103745904D01*
X153952451Y-103745904D02*
X154000070Y-103793523D01*
X154000070Y-103793523D02*
X154047689Y-103888761D01*
X154047689Y-103888761D02*
X154047689Y-104079237D01*
X154047689Y-104079237D02*
X154095308Y-104174475D01*
X154095308Y-104174475D02*
X154142927Y-104222094D01*
X154142927Y-104222094D02*
X154238165Y-104269713D01*
X154238165Y-104269713D02*
X154428641Y-104269713D01*
X154428641Y-104269713D02*
X154523879Y-104222094D01*
X154523879Y-104222094D02*
X154571499Y-104174475D01*
X154571499Y-104174475D02*
X154619118Y-104079237D01*
X154619118Y-104079237D02*
X154619118Y-103888761D01*
X154619118Y-103888761D02*
X154571499Y-103793523D01*
X154571499Y-103793523D02*
X154523879Y-103745904D01*
X154523879Y-103745904D02*
X154428641Y-103698285D01*
X154428641Y-103698285D02*
X154238165Y-103698285D01*
X154238165Y-103698285D02*
X154142927Y-103745904D01*
X154142927Y-103745904D02*
X154095308Y-103793523D01*
X154095308Y-103793523D02*
X154047689Y-103888761D01*
%TO.C,U3*%
X166274095Y-86402319D02*
X166274095Y-87211842D01*
X166274095Y-87211842D02*
X166321714Y-87307080D01*
X166321714Y-87307080D02*
X166369333Y-87354700D01*
X166369333Y-87354700D02*
X166464571Y-87402319D01*
X166464571Y-87402319D02*
X166655047Y-87402319D01*
X166655047Y-87402319D02*
X166750285Y-87354700D01*
X166750285Y-87354700D02*
X166797904Y-87307080D01*
X166797904Y-87307080D02*
X166845523Y-87211842D01*
X166845523Y-87211842D02*
X166845523Y-86402319D01*
X167226476Y-86402319D02*
X167845523Y-86402319D01*
X167845523Y-86402319D02*
X167512190Y-86783271D01*
X167512190Y-86783271D02*
X167655047Y-86783271D01*
X167655047Y-86783271D02*
X167750285Y-86830890D01*
X167750285Y-86830890D02*
X167797904Y-86878509D01*
X167797904Y-86878509D02*
X167845523Y-86973747D01*
X167845523Y-86973747D02*
X167845523Y-87211842D01*
X167845523Y-87211842D02*
X167797904Y-87307080D01*
X167797904Y-87307080D02*
X167750285Y-87354700D01*
X167750285Y-87354700D02*
X167655047Y-87402319D01*
X167655047Y-87402319D02*
X167369333Y-87402319D01*
X167369333Y-87402319D02*
X167274095Y-87354700D01*
X167274095Y-87354700D02*
X167226476Y-87307080D01*
%TO.C,U1*%
X147636095Y-91650319D02*
X147636095Y-92459842D01*
X147636095Y-92459842D02*
X147683714Y-92555080D01*
X147683714Y-92555080D02*
X147731333Y-92602700D01*
X147731333Y-92602700D02*
X147826571Y-92650319D01*
X147826571Y-92650319D02*
X148017047Y-92650319D01*
X148017047Y-92650319D02*
X148112285Y-92602700D01*
X148112285Y-92602700D02*
X148159904Y-92555080D01*
X148159904Y-92555080D02*
X148207523Y-92459842D01*
X148207523Y-92459842D02*
X148207523Y-91650319D01*
X149207523Y-92650319D02*
X148636095Y-92650319D01*
X148921809Y-92650319D02*
X148921809Y-91650319D01*
X148921809Y-91650319D02*
X148826571Y-91793176D01*
X148826571Y-91793176D02*
X148731333Y-91888414D01*
X148731333Y-91888414D02*
X148636095Y-91936033D01*
%TO.C,R3*%
X176653333Y-92054819D02*
X176320000Y-91578628D01*
X176081905Y-92054819D02*
X176081905Y-91054819D01*
X176081905Y-91054819D02*
X176462857Y-91054819D01*
X176462857Y-91054819D02*
X176558095Y-91102438D01*
X176558095Y-91102438D02*
X176605714Y-91150057D01*
X176605714Y-91150057D02*
X176653333Y-91245295D01*
X176653333Y-91245295D02*
X176653333Y-91388152D01*
X176653333Y-91388152D02*
X176605714Y-91483390D01*
X176605714Y-91483390D02*
X176558095Y-91531009D01*
X176558095Y-91531009D02*
X176462857Y-91578628D01*
X176462857Y-91578628D02*
X176081905Y-91578628D01*
X176986667Y-91054819D02*
X177605714Y-91054819D01*
X177605714Y-91054819D02*
X177272381Y-91435771D01*
X177272381Y-91435771D02*
X177415238Y-91435771D01*
X177415238Y-91435771D02*
X177510476Y-91483390D01*
X177510476Y-91483390D02*
X177558095Y-91531009D01*
X177558095Y-91531009D02*
X177605714Y-91626247D01*
X177605714Y-91626247D02*
X177605714Y-91864342D01*
X177605714Y-91864342D02*
X177558095Y-91959580D01*
X177558095Y-91959580D02*
X177510476Y-92007200D01*
X177510476Y-92007200D02*
X177415238Y-92054819D01*
X177415238Y-92054819D02*
X177129524Y-92054819D01*
X177129524Y-92054819D02*
X177034286Y-92007200D01*
X177034286Y-92007200D02*
X176986667Y-91959580D01*
%TO.C,R9*%
X157054819Y-105566666D02*
X156578628Y-105899999D01*
X157054819Y-106138094D02*
X156054819Y-106138094D01*
X156054819Y-106138094D02*
X156054819Y-105757142D01*
X156054819Y-105757142D02*
X156102438Y-105661904D01*
X156102438Y-105661904D02*
X156150057Y-105614285D01*
X156150057Y-105614285D02*
X156245295Y-105566666D01*
X156245295Y-105566666D02*
X156388152Y-105566666D01*
X156388152Y-105566666D02*
X156483390Y-105614285D01*
X156483390Y-105614285D02*
X156531009Y-105661904D01*
X156531009Y-105661904D02*
X156578628Y-105757142D01*
X156578628Y-105757142D02*
X156578628Y-106138094D01*
X157054819Y-105090475D02*
X157054819Y-104899999D01*
X157054819Y-104899999D02*
X157007200Y-104804761D01*
X157007200Y-104804761D02*
X156959580Y-104757142D01*
X156959580Y-104757142D02*
X156816723Y-104661904D01*
X156816723Y-104661904D02*
X156626247Y-104614285D01*
X156626247Y-104614285D02*
X156245295Y-104614285D01*
X156245295Y-104614285D02*
X156150057Y-104661904D01*
X156150057Y-104661904D02*
X156102438Y-104709523D01*
X156102438Y-104709523D02*
X156054819Y-104804761D01*
X156054819Y-104804761D02*
X156054819Y-104995237D01*
X156054819Y-104995237D02*
X156102438Y-105090475D01*
X156102438Y-105090475D02*
X156150057Y-105138094D01*
X156150057Y-105138094D02*
X156245295Y-105185713D01*
X156245295Y-105185713D02*
X156483390Y-105185713D01*
X156483390Y-105185713D02*
X156578628Y-105138094D01*
X156578628Y-105138094D02*
X156626247Y-105090475D01*
X156626247Y-105090475D02*
X156673866Y-104995237D01*
X156673866Y-104995237D02*
X156673866Y-104804761D01*
X156673866Y-104804761D02*
X156626247Y-104709523D01*
X156626247Y-104709523D02*
X156578628Y-104661904D01*
X156578628Y-104661904D02*
X156483390Y-104614285D01*
%TO.C,R0*%
X119533333Y-113304819D02*
X119200000Y-112828628D01*
X118961905Y-113304819D02*
X118961905Y-112304819D01*
X118961905Y-112304819D02*
X119342857Y-112304819D01*
X119342857Y-112304819D02*
X119438095Y-112352438D01*
X119438095Y-112352438D02*
X119485714Y-112400057D01*
X119485714Y-112400057D02*
X119533333Y-112495295D01*
X119533333Y-112495295D02*
X119533333Y-112638152D01*
X119533333Y-112638152D02*
X119485714Y-112733390D01*
X119485714Y-112733390D02*
X119438095Y-112781009D01*
X119438095Y-112781009D02*
X119342857Y-112828628D01*
X119342857Y-112828628D02*
X118961905Y-112828628D01*
X120152381Y-112304819D02*
X120247619Y-112304819D01*
X120247619Y-112304819D02*
X120342857Y-112352438D01*
X120342857Y-112352438D02*
X120390476Y-112400057D01*
X120390476Y-112400057D02*
X120438095Y-112495295D01*
X120438095Y-112495295D02*
X120485714Y-112685771D01*
X120485714Y-112685771D02*
X120485714Y-112923866D01*
X120485714Y-112923866D02*
X120438095Y-113114342D01*
X120438095Y-113114342D02*
X120390476Y-113209580D01*
X120390476Y-113209580D02*
X120342857Y-113257200D01*
X120342857Y-113257200D02*
X120247619Y-113304819D01*
X120247619Y-113304819D02*
X120152381Y-113304819D01*
X120152381Y-113304819D02*
X120057143Y-113257200D01*
X120057143Y-113257200D02*
X120009524Y-113209580D01*
X120009524Y-113209580D02*
X119961905Y-113114342D01*
X119961905Y-113114342D02*
X119914286Y-112923866D01*
X119914286Y-112923866D02*
X119914286Y-112685771D01*
X119914286Y-112685771D02*
X119961905Y-112495295D01*
X119961905Y-112495295D02*
X120009524Y-112400057D01*
X120009524Y-112400057D02*
X120057143Y-112352438D01*
X120057143Y-112352438D02*
X120152381Y-112304819D01*
%TO.C,R4*%
X176618333Y-104204819D02*
X176285000Y-103728628D01*
X176046905Y-104204819D02*
X176046905Y-103204819D01*
X176046905Y-103204819D02*
X176427857Y-103204819D01*
X176427857Y-103204819D02*
X176523095Y-103252438D01*
X176523095Y-103252438D02*
X176570714Y-103300057D01*
X176570714Y-103300057D02*
X176618333Y-103395295D01*
X176618333Y-103395295D02*
X176618333Y-103538152D01*
X176618333Y-103538152D02*
X176570714Y-103633390D01*
X176570714Y-103633390D02*
X176523095Y-103681009D01*
X176523095Y-103681009D02*
X176427857Y-103728628D01*
X176427857Y-103728628D02*
X176046905Y-103728628D01*
X177475476Y-103538152D02*
X177475476Y-104204819D01*
X177237381Y-103157200D02*
X176999286Y-103871485D01*
X176999286Y-103871485D02*
X177618333Y-103871485D01*
%TO.C,C14*%
X124980142Y-95076080D02*
X124932523Y-95123700D01*
X124932523Y-95123700D02*
X124789666Y-95171319D01*
X124789666Y-95171319D02*
X124694428Y-95171319D01*
X124694428Y-95171319D02*
X124551571Y-95123700D01*
X124551571Y-95123700D02*
X124456333Y-95028461D01*
X124456333Y-95028461D02*
X124408714Y-94933223D01*
X124408714Y-94933223D02*
X124361095Y-94742747D01*
X124361095Y-94742747D02*
X124361095Y-94599890D01*
X124361095Y-94599890D02*
X124408714Y-94409414D01*
X124408714Y-94409414D02*
X124456333Y-94314176D01*
X124456333Y-94314176D02*
X124551571Y-94218938D01*
X124551571Y-94218938D02*
X124694428Y-94171319D01*
X124694428Y-94171319D02*
X124789666Y-94171319D01*
X124789666Y-94171319D02*
X124932523Y-94218938D01*
X124932523Y-94218938D02*
X124980142Y-94266557D01*
X125932523Y-95171319D02*
X125361095Y-95171319D01*
X125646809Y-95171319D02*
X125646809Y-94171319D01*
X125646809Y-94171319D02*
X125551571Y-94314176D01*
X125551571Y-94314176D02*
X125456333Y-94409414D01*
X125456333Y-94409414D02*
X125361095Y-94457033D01*
X126789666Y-94504652D02*
X126789666Y-95171319D01*
X126551571Y-94123700D02*
X126313476Y-94837985D01*
X126313476Y-94837985D02*
X126932523Y-94837985D01*
%TO.C,D5*%
X113434905Y-99996319D02*
X113434905Y-98996319D01*
X113434905Y-98996319D02*
X113673000Y-98996319D01*
X113673000Y-98996319D02*
X113815857Y-99043938D01*
X113815857Y-99043938D02*
X113911095Y-99139176D01*
X113911095Y-99139176D02*
X113958714Y-99234414D01*
X113958714Y-99234414D02*
X114006333Y-99424890D01*
X114006333Y-99424890D02*
X114006333Y-99567747D01*
X114006333Y-99567747D02*
X113958714Y-99758223D01*
X113958714Y-99758223D02*
X113911095Y-99853461D01*
X113911095Y-99853461D02*
X113815857Y-99948700D01*
X113815857Y-99948700D02*
X113673000Y-99996319D01*
X113673000Y-99996319D02*
X113434905Y-99996319D01*
X114911095Y-98996319D02*
X114434905Y-98996319D01*
X114434905Y-98996319D02*
X114387286Y-99472509D01*
X114387286Y-99472509D02*
X114434905Y-99424890D01*
X114434905Y-99424890D02*
X114530143Y-99377271D01*
X114530143Y-99377271D02*
X114768238Y-99377271D01*
X114768238Y-99377271D02*
X114863476Y-99424890D01*
X114863476Y-99424890D02*
X114911095Y-99472509D01*
X114911095Y-99472509D02*
X114958714Y-99567747D01*
X114958714Y-99567747D02*
X114958714Y-99805842D01*
X114958714Y-99805842D02*
X114911095Y-99901080D01*
X114911095Y-99901080D02*
X114863476Y-99948700D01*
X114863476Y-99948700D02*
X114768238Y-99996319D01*
X114768238Y-99996319D02*
X114530143Y-99996319D01*
X114530143Y-99996319D02*
X114434905Y-99948700D01*
X114434905Y-99948700D02*
X114387286Y-99901080D01*
%TO.C,TP2*%
X172836095Y-106996319D02*
X173407523Y-106996319D01*
X173121809Y-107996319D02*
X173121809Y-106996319D01*
X173740857Y-107996319D02*
X173740857Y-106996319D01*
X173740857Y-106996319D02*
X174121809Y-106996319D01*
X174121809Y-106996319D02*
X174217047Y-107043938D01*
X174217047Y-107043938D02*
X174264666Y-107091557D01*
X174264666Y-107091557D02*
X174312285Y-107186795D01*
X174312285Y-107186795D02*
X174312285Y-107329652D01*
X174312285Y-107329652D02*
X174264666Y-107424890D01*
X174264666Y-107424890D02*
X174217047Y-107472509D01*
X174217047Y-107472509D02*
X174121809Y-107520128D01*
X174121809Y-107520128D02*
X173740857Y-107520128D01*
X174693238Y-107091557D02*
X174740857Y-107043938D01*
X174740857Y-107043938D02*
X174836095Y-106996319D01*
X174836095Y-106996319D02*
X175074190Y-106996319D01*
X175074190Y-106996319D02*
X175169428Y-107043938D01*
X175169428Y-107043938D02*
X175217047Y-107091557D01*
X175217047Y-107091557D02*
X175264666Y-107186795D01*
X175264666Y-107186795D02*
X175264666Y-107282033D01*
X175264666Y-107282033D02*
X175217047Y-107424890D01*
X175217047Y-107424890D02*
X174645619Y-107996319D01*
X174645619Y-107996319D02*
X175264666Y-107996319D01*
%TO.C,C9*%
X135833333Y-101509580D02*
X135785714Y-101557200D01*
X135785714Y-101557200D02*
X135642857Y-101604819D01*
X135642857Y-101604819D02*
X135547619Y-101604819D01*
X135547619Y-101604819D02*
X135404762Y-101557200D01*
X135404762Y-101557200D02*
X135309524Y-101461961D01*
X135309524Y-101461961D02*
X135261905Y-101366723D01*
X135261905Y-101366723D02*
X135214286Y-101176247D01*
X135214286Y-101176247D02*
X135214286Y-101033390D01*
X135214286Y-101033390D02*
X135261905Y-100842914D01*
X135261905Y-100842914D02*
X135309524Y-100747676D01*
X135309524Y-100747676D02*
X135404762Y-100652438D01*
X135404762Y-100652438D02*
X135547619Y-100604819D01*
X135547619Y-100604819D02*
X135642857Y-100604819D01*
X135642857Y-100604819D02*
X135785714Y-100652438D01*
X135785714Y-100652438D02*
X135833333Y-100700057D01*
X136309524Y-101604819D02*
X136500000Y-101604819D01*
X136500000Y-101604819D02*
X136595238Y-101557200D01*
X136595238Y-101557200D02*
X136642857Y-101509580D01*
X136642857Y-101509580D02*
X136738095Y-101366723D01*
X136738095Y-101366723D02*
X136785714Y-101176247D01*
X136785714Y-101176247D02*
X136785714Y-100795295D01*
X136785714Y-100795295D02*
X136738095Y-100700057D01*
X136738095Y-100700057D02*
X136690476Y-100652438D01*
X136690476Y-100652438D02*
X136595238Y-100604819D01*
X136595238Y-100604819D02*
X136404762Y-100604819D01*
X136404762Y-100604819D02*
X136309524Y-100652438D01*
X136309524Y-100652438D02*
X136261905Y-100700057D01*
X136261905Y-100700057D02*
X136214286Y-100795295D01*
X136214286Y-100795295D02*
X136214286Y-101033390D01*
X136214286Y-101033390D02*
X136261905Y-101128628D01*
X136261905Y-101128628D02*
X136309524Y-101176247D01*
X136309524Y-101176247D02*
X136404762Y-101223866D01*
X136404762Y-101223866D02*
X136595238Y-101223866D01*
X136595238Y-101223866D02*
X136690476Y-101176247D01*
X136690476Y-101176247D02*
X136738095Y-101128628D01*
X136738095Y-101128628D02*
X136785714Y-101033390D01*
%TO.C,C12*%
X169427580Y-90384357D02*
X169475200Y-90431976D01*
X169475200Y-90431976D02*
X169522819Y-90574833D01*
X169522819Y-90574833D02*
X169522819Y-90670071D01*
X169522819Y-90670071D02*
X169475200Y-90812928D01*
X169475200Y-90812928D02*
X169379961Y-90908166D01*
X169379961Y-90908166D02*
X169284723Y-90955785D01*
X169284723Y-90955785D02*
X169094247Y-91003404D01*
X169094247Y-91003404D02*
X168951390Y-91003404D01*
X168951390Y-91003404D02*
X168760914Y-90955785D01*
X168760914Y-90955785D02*
X168665676Y-90908166D01*
X168665676Y-90908166D02*
X168570438Y-90812928D01*
X168570438Y-90812928D02*
X168522819Y-90670071D01*
X168522819Y-90670071D02*
X168522819Y-90574833D01*
X168522819Y-90574833D02*
X168570438Y-90431976D01*
X168570438Y-90431976D02*
X168618057Y-90384357D01*
X169522819Y-89431976D02*
X169522819Y-90003404D01*
X169522819Y-89717690D02*
X168522819Y-89717690D01*
X168522819Y-89717690D02*
X168665676Y-89812928D01*
X168665676Y-89812928D02*
X168760914Y-89908166D01*
X168760914Y-89908166D02*
X168808533Y-90003404D01*
X168618057Y-89051023D02*
X168570438Y-89003404D01*
X168570438Y-89003404D02*
X168522819Y-88908166D01*
X168522819Y-88908166D02*
X168522819Y-88670071D01*
X168522819Y-88670071D02*
X168570438Y-88574833D01*
X168570438Y-88574833D02*
X168618057Y-88527214D01*
X168618057Y-88527214D02*
X168713295Y-88479595D01*
X168713295Y-88479595D02*
X168808533Y-88479595D01*
X168808533Y-88479595D02*
X168951390Y-88527214D01*
X168951390Y-88527214D02*
X169522819Y-89098642D01*
X169522819Y-89098642D02*
X169522819Y-88479595D01*
%TO.C,C1*%
X154107580Y-92958166D02*
X154155200Y-93005785D01*
X154155200Y-93005785D02*
X154202819Y-93148642D01*
X154202819Y-93148642D02*
X154202819Y-93243880D01*
X154202819Y-93243880D02*
X154155200Y-93386737D01*
X154155200Y-93386737D02*
X154059961Y-93481975D01*
X154059961Y-93481975D02*
X153964723Y-93529594D01*
X153964723Y-93529594D02*
X153774247Y-93577213D01*
X153774247Y-93577213D02*
X153631390Y-93577213D01*
X153631390Y-93577213D02*
X153440914Y-93529594D01*
X153440914Y-93529594D02*
X153345676Y-93481975D01*
X153345676Y-93481975D02*
X153250438Y-93386737D01*
X153250438Y-93386737D02*
X153202819Y-93243880D01*
X153202819Y-93243880D02*
X153202819Y-93148642D01*
X153202819Y-93148642D02*
X153250438Y-93005785D01*
X153250438Y-93005785D02*
X153298057Y-92958166D01*
X154202819Y-92005785D02*
X154202819Y-92577213D01*
X154202819Y-92291499D02*
X153202819Y-92291499D01*
X153202819Y-92291499D02*
X153345676Y-92386737D01*
X153345676Y-92386737D02*
X153440914Y-92481975D01*
X153440914Y-92481975D02*
X153488533Y-92577213D01*
%TO.C,C6*%
X140657580Y-101658166D02*
X140705200Y-101705785D01*
X140705200Y-101705785D02*
X140752819Y-101848642D01*
X140752819Y-101848642D02*
X140752819Y-101943880D01*
X140752819Y-101943880D02*
X140705200Y-102086737D01*
X140705200Y-102086737D02*
X140609961Y-102181975D01*
X140609961Y-102181975D02*
X140514723Y-102229594D01*
X140514723Y-102229594D02*
X140324247Y-102277213D01*
X140324247Y-102277213D02*
X140181390Y-102277213D01*
X140181390Y-102277213D02*
X139990914Y-102229594D01*
X139990914Y-102229594D02*
X139895676Y-102181975D01*
X139895676Y-102181975D02*
X139800438Y-102086737D01*
X139800438Y-102086737D02*
X139752819Y-101943880D01*
X139752819Y-101943880D02*
X139752819Y-101848642D01*
X139752819Y-101848642D02*
X139800438Y-101705785D01*
X139800438Y-101705785D02*
X139848057Y-101658166D01*
X139752819Y-100801023D02*
X139752819Y-100991499D01*
X139752819Y-100991499D02*
X139800438Y-101086737D01*
X139800438Y-101086737D02*
X139848057Y-101134356D01*
X139848057Y-101134356D02*
X139990914Y-101229594D01*
X139990914Y-101229594D02*
X140181390Y-101277213D01*
X140181390Y-101277213D02*
X140562342Y-101277213D01*
X140562342Y-101277213D02*
X140657580Y-101229594D01*
X140657580Y-101229594D02*
X140705200Y-101181975D01*
X140705200Y-101181975D02*
X140752819Y-101086737D01*
X140752819Y-101086737D02*
X140752819Y-100896261D01*
X140752819Y-100896261D02*
X140705200Y-100801023D01*
X140705200Y-100801023D02*
X140657580Y-100753404D01*
X140657580Y-100753404D02*
X140562342Y-100705785D01*
X140562342Y-100705785D02*
X140324247Y-100705785D01*
X140324247Y-100705785D02*
X140229009Y-100753404D01*
X140229009Y-100753404D02*
X140181390Y-100801023D01*
X140181390Y-100801023D02*
X140133771Y-100896261D01*
X140133771Y-100896261D02*
X140133771Y-101086737D01*
X140133771Y-101086737D02*
X140181390Y-101181975D01*
X140181390Y-101181975D02*
X140229009Y-101229594D01*
X140229009Y-101229594D02*
X140324247Y-101277213D01*
%TO.C,D4*%
X169061905Y-94254819D02*
X169061905Y-93254819D01*
X169061905Y-93254819D02*
X169300000Y-93254819D01*
X169300000Y-93254819D02*
X169442857Y-93302438D01*
X169442857Y-93302438D02*
X169538095Y-93397676D01*
X169538095Y-93397676D02*
X169585714Y-93492914D01*
X169585714Y-93492914D02*
X169633333Y-93683390D01*
X169633333Y-93683390D02*
X169633333Y-93826247D01*
X169633333Y-93826247D02*
X169585714Y-94016723D01*
X169585714Y-94016723D02*
X169538095Y-94111961D01*
X169538095Y-94111961D02*
X169442857Y-94207200D01*
X169442857Y-94207200D02*
X169300000Y-94254819D01*
X169300000Y-94254819D02*
X169061905Y-94254819D01*
X170490476Y-93588152D02*
X170490476Y-94254819D01*
X170252381Y-93207200D02*
X170014286Y-93921485D01*
X170014286Y-93921485D02*
X170633333Y-93921485D01*
%TO.C,C16*%
X117957580Y-99534357D02*
X118005200Y-99581976D01*
X118005200Y-99581976D02*
X118052819Y-99724833D01*
X118052819Y-99724833D02*
X118052819Y-99820071D01*
X118052819Y-99820071D02*
X118005200Y-99962928D01*
X118005200Y-99962928D02*
X117909961Y-100058166D01*
X117909961Y-100058166D02*
X117814723Y-100105785D01*
X117814723Y-100105785D02*
X117624247Y-100153404D01*
X117624247Y-100153404D02*
X117481390Y-100153404D01*
X117481390Y-100153404D02*
X117290914Y-100105785D01*
X117290914Y-100105785D02*
X117195676Y-100058166D01*
X117195676Y-100058166D02*
X117100438Y-99962928D01*
X117100438Y-99962928D02*
X117052819Y-99820071D01*
X117052819Y-99820071D02*
X117052819Y-99724833D01*
X117052819Y-99724833D02*
X117100438Y-99581976D01*
X117100438Y-99581976D02*
X117148057Y-99534357D01*
X118052819Y-98581976D02*
X118052819Y-99153404D01*
X118052819Y-98867690D02*
X117052819Y-98867690D01*
X117052819Y-98867690D02*
X117195676Y-98962928D01*
X117195676Y-98962928D02*
X117290914Y-99058166D01*
X117290914Y-99058166D02*
X117338533Y-99153404D01*
X117052819Y-97724833D02*
X117052819Y-97915309D01*
X117052819Y-97915309D02*
X117100438Y-98010547D01*
X117100438Y-98010547D02*
X117148057Y-98058166D01*
X117148057Y-98058166D02*
X117290914Y-98153404D01*
X117290914Y-98153404D02*
X117481390Y-98201023D01*
X117481390Y-98201023D02*
X117862342Y-98201023D01*
X117862342Y-98201023D02*
X117957580Y-98153404D01*
X117957580Y-98153404D02*
X118005200Y-98105785D01*
X118005200Y-98105785D02*
X118052819Y-98010547D01*
X118052819Y-98010547D02*
X118052819Y-97820071D01*
X118052819Y-97820071D02*
X118005200Y-97724833D01*
X118005200Y-97724833D02*
X117957580Y-97677214D01*
X117957580Y-97677214D02*
X117862342Y-97629595D01*
X117862342Y-97629595D02*
X117624247Y-97629595D01*
X117624247Y-97629595D02*
X117529009Y-97677214D01*
X117529009Y-97677214D02*
X117481390Y-97724833D01*
X117481390Y-97724833D02*
X117433771Y-97820071D01*
X117433771Y-97820071D02*
X117433771Y-98010547D01*
X117433771Y-98010547D02*
X117481390Y-98105785D01*
X117481390Y-98105785D02*
X117529009Y-98153404D01*
X117529009Y-98153404D02*
X117624247Y-98201023D01*
%TO.C,R1*%
X140931333Y-89304819D02*
X140598000Y-88828628D01*
X140359905Y-89304819D02*
X140359905Y-88304819D01*
X140359905Y-88304819D02*
X140740857Y-88304819D01*
X140740857Y-88304819D02*
X140836095Y-88352438D01*
X140836095Y-88352438D02*
X140883714Y-88400057D01*
X140883714Y-88400057D02*
X140931333Y-88495295D01*
X140931333Y-88495295D02*
X140931333Y-88638152D01*
X140931333Y-88638152D02*
X140883714Y-88733390D01*
X140883714Y-88733390D02*
X140836095Y-88781009D01*
X140836095Y-88781009D02*
X140740857Y-88828628D01*
X140740857Y-88828628D02*
X140359905Y-88828628D01*
X141883714Y-89304819D02*
X141312286Y-89304819D01*
X141598000Y-89304819D02*
X141598000Y-88304819D01*
X141598000Y-88304819D02*
X141502762Y-88447676D01*
X141502762Y-88447676D02*
X141407524Y-88542914D01*
X141407524Y-88542914D02*
X141312286Y-88590533D01*
%TO.C,J7*%
X127404819Y-86333333D02*
X128119104Y-86333333D01*
X128119104Y-86333333D02*
X128261961Y-86380952D01*
X128261961Y-86380952D02*
X128357200Y-86476190D01*
X128357200Y-86476190D02*
X128404819Y-86619047D01*
X128404819Y-86619047D02*
X128404819Y-86714285D01*
X127404819Y-85952380D02*
X127404819Y-85285714D01*
X127404819Y-85285714D02*
X128404819Y-85714285D01*
%TO.C,C13*%
X157855142Y-94726080D02*
X157807523Y-94773700D01*
X157807523Y-94773700D02*
X157664666Y-94821319D01*
X157664666Y-94821319D02*
X157569428Y-94821319D01*
X157569428Y-94821319D02*
X157426571Y-94773700D01*
X157426571Y-94773700D02*
X157331333Y-94678461D01*
X157331333Y-94678461D02*
X157283714Y-94583223D01*
X157283714Y-94583223D02*
X157236095Y-94392747D01*
X157236095Y-94392747D02*
X157236095Y-94249890D01*
X157236095Y-94249890D02*
X157283714Y-94059414D01*
X157283714Y-94059414D02*
X157331333Y-93964176D01*
X157331333Y-93964176D02*
X157426571Y-93868938D01*
X157426571Y-93868938D02*
X157569428Y-93821319D01*
X157569428Y-93821319D02*
X157664666Y-93821319D01*
X157664666Y-93821319D02*
X157807523Y-93868938D01*
X157807523Y-93868938D02*
X157855142Y-93916557D01*
X158807523Y-94821319D02*
X158236095Y-94821319D01*
X158521809Y-94821319D02*
X158521809Y-93821319D01*
X158521809Y-93821319D02*
X158426571Y-93964176D01*
X158426571Y-93964176D02*
X158331333Y-94059414D01*
X158331333Y-94059414D02*
X158236095Y-94107033D01*
X159140857Y-93821319D02*
X159759904Y-93821319D01*
X159759904Y-93821319D02*
X159426571Y-94202271D01*
X159426571Y-94202271D02*
X159569428Y-94202271D01*
X159569428Y-94202271D02*
X159664666Y-94249890D01*
X159664666Y-94249890D02*
X159712285Y-94297509D01*
X159712285Y-94297509D02*
X159759904Y-94392747D01*
X159759904Y-94392747D02*
X159759904Y-94630842D01*
X159759904Y-94630842D02*
X159712285Y-94726080D01*
X159712285Y-94726080D02*
X159664666Y-94773700D01*
X159664666Y-94773700D02*
X159569428Y-94821319D01*
X159569428Y-94821319D02*
X159283714Y-94821319D01*
X159283714Y-94821319D02*
X159188476Y-94773700D01*
X159188476Y-94773700D02*
X159140857Y-94726080D01*
%TO.C,U5*%
X114238095Y-101154819D02*
X114238095Y-101964342D01*
X114238095Y-101964342D02*
X114285714Y-102059580D01*
X114285714Y-102059580D02*
X114333333Y-102107200D01*
X114333333Y-102107200D02*
X114428571Y-102154819D01*
X114428571Y-102154819D02*
X114619047Y-102154819D01*
X114619047Y-102154819D02*
X114714285Y-102107200D01*
X114714285Y-102107200D02*
X114761904Y-102059580D01*
X114761904Y-102059580D02*
X114809523Y-101964342D01*
X114809523Y-101964342D02*
X114809523Y-101154819D01*
X115761904Y-101154819D02*
X115285714Y-101154819D01*
X115285714Y-101154819D02*
X115238095Y-101631009D01*
X115238095Y-101631009D02*
X115285714Y-101583390D01*
X115285714Y-101583390D02*
X115380952Y-101535771D01*
X115380952Y-101535771D02*
X115619047Y-101535771D01*
X115619047Y-101535771D02*
X115714285Y-101583390D01*
X115714285Y-101583390D02*
X115761904Y-101631009D01*
X115761904Y-101631009D02*
X115809523Y-101726247D01*
X115809523Y-101726247D02*
X115809523Y-101964342D01*
X115809523Y-101964342D02*
X115761904Y-102059580D01*
X115761904Y-102059580D02*
X115714285Y-102107200D01*
X115714285Y-102107200D02*
X115619047Y-102154819D01*
X115619047Y-102154819D02*
X115380952Y-102154819D01*
X115380952Y-102154819D02*
X115285714Y-102107200D01*
X115285714Y-102107200D02*
X115238095Y-102059580D01*
%TO.C,C2*%
X152557580Y-93883166D02*
X152605200Y-93930785D01*
X152605200Y-93930785D02*
X152652819Y-94073642D01*
X152652819Y-94073642D02*
X152652819Y-94168880D01*
X152652819Y-94168880D02*
X152605200Y-94311737D01*
X152605200Y-94311737D02*
X152509961Y-94406975D01*
X152509961Y-94406975D02*
X152414723Y-94454594D01*
X152414723Y-94454594D02*
X152224247Y-94502213D01*
X152224247Y-94502213D02*
X152081390Y-94502213D01*
X152081390Y-94502213D02*
X151890914Y-94454594D01*
X151890914Y-94454594D02*
X151795676Y-94406975D01*
X151795676Y-94406975D02*
X151700438Y-94311737D01*
X151700438Y-94311737D02*
X151652819Y-94168880D01*
X151652819Y-94168880D02*
X151652819Y-94073642D01*
X151652819Y-94073642D02*
X151700438Y-93930785D01*
X151700438Y-93930785D02*
X151748057Y-93883166D01*
X151748057Y-93502213D02*
X151700438Y-93454594D01*
X151700438Y-93454594D02*
X151652819Y-93359356D01*
X151652819Y-93359356D02*
X151652819Y-93121261D01*
X151652819Y-93121261D02*
X151700438Y-93026023D01*
X151700438Y-93026023D02*
X151748057Y-92978404D01*
X151748057Y-92978404D02*
X151843295Y-92930785D01*
X151843295Y-92930785D02*
X151938533Y-92930785D01*
X151938533Y-92930785D02*
X152081390Y-92978404D01*
X152081390Y-92978404D02*
X152652819Y-93549832D01*
X152652819Y-93549832D02*
X152652819Y-92930785D01*
%TO.C,U4*%
X121936095Y-98921319D02*
X121936095Y-99730842D01*
X121936095Y-99730842D02*
X121983714Y-99826080D01*
X121983714Y-99826080D02*
X122031333Y-99873700D01*
X122031333Y-99873700D02*
X122126571Y-99921319D01*
X122126571Y-99921319D02*
X122317047Y-99921319D01*
X122317047Y-99921319D02*
X122412285Y-99873700D01*
X122412285Y-99873700D02*
X122459904Y-99826080D01*
X122459904Y-99826080D02*
X122507523Y-99730842D01*
X122507523Y-99730842D02*
X122507523Y-98921319D01*
X123412285Y-99254652D02*
X123412285Y-99921319D01*
X123174190Y-98873700D02*
X122936095Y-99587985D01*
X122936095Y-99587985D02*
X123555142Y-99587985D01*
%TO.C,C4*%
X140608380Y-96908166D02*
X140656000Y-96955785D01*
X140656000Y-96955785D02*
X140703619Y-97098642D01*
X140703619Y-97098642D02*
X140703619Y-97193880D01*
X140703619Y-97193880D02*
X140656000Y-97336737D01*
X140656000Y-97336737D02*
X140560761Y-97431975D01*
X140560761Y-97431975D02*
X140465523Y-97479594D01*
X140465523Y-97479594D02*
X140275047Y-97527213D01*
X140275047Y-97527213D02*
X140132190Y-97527213D01*
X140132190Y-97527213D02*
X139941714Y-97479594D01*
X139941714Y-97479594D02*
X139846476Y-97431975D01*
X139846476Y-97431975D02*
X139751238Y-97336737D01*
X139751238Y-97336737D02*
X139703619Y-97193880D01*
X139703619Y-97193880D02*
X139703619Y-97098642D01*
X139703619Y-97098642D02*
X139751238Y-96955785D01*
X139751238Y-96955785D02*
X139798857Y-96908166D01*
X140036952Y-96051023D02*
X140703619Y-96051023D01*
X139656000Y-96289118D02*
X140370285Y-96527213D01*
X140370285Y-96527213D02*
X140370285Y-95908166D01*
%TO.C,C7*%
X135809733Y-103589080D02*
X135762114Y-103636700D01*
X135762114Y-103636700D02*
X135619257Y-103684319D01*
X135619257Y-103684319D02*
X135524019Y-103684319D01*
X135524019Y-103684319D02*
X135381162Y-103636700D01*
X135381162Y-103636700D02*
X135285924Y-103541461D01*
X135285924Y-103541461D02*
X135238305Y-103446223D01*
X135238305Y-103446223D02*
X135190686Y-103255747D01*
X135190686Y-103255747D02*
X135190686Y-103112890D01*
X135190686Y-103112890D02*
X135238305Y-102922414D01*
X135238305Y-102922414D02*
X135285924Y-102827176D01*
X135285924Y-102827176D02*
X135381162Y-102731938D01*
X135381162Y-102731938D02*
X135524019Y-102684319D01*
X135524019Y-102684319D02*
X135619257Y-102684319D01*
X135619257Y-102684319D02*
X135762114Y-102731938D01*
X135762114Y-102731938D02*
X135809733Y-102779557D01*
X136143067Y-102684319D02*
X136809733Y-102684319D01*
X136809733Y-102684319D02*
X136381162Y-103684319D01*
%TO.C,J4*%
X104614666Y-88746319D02*
X104614666Y-89460604D01*
X104614666Y-89460604D02*
X104567047Y-89603461D01*
X104567047Y-89603461D02*
X104471809Y-89698700D01*
X104471809Y-89698700D02*
X104328952Y-89746319D01*
X104328952Y-89746319D02*
X104233714Y-89746319D01*
X105519428Y-89079652D02*
X105519428Y-89746319D01*
X105281333Y-88698700D02*
X105043238Y-89412985D01*
X105043238Y-89412985D02*
X105662285Y-89412985D01*
%TO.C,D3*%
X169061905Y-102024819D02*
X169061905Y-101024819D01*
X169061905Y-101024819D02*
X169300000Y-101024819D01*
X169300000Y-101024819D02*
X169442857Y-101072438D01*
X169442857Y-101072438D02*
X169538095Y-101167676D01*
X169538095Y-101167676D02*
X169585714Y-101262914D01*
X169585714Y-101262914D02*
X169633333Y-101453390D01*
X169633333Y-101453390D02*
X169633333Y-101596247D01*
X169633333Y-101596247D02*
X169585714Y-101786723D01*
X169585714Y-101786723D02*
X169538095Y-101881961D01*
X169538095Y-101881961D02*
X169442857Y-101977200D01*
X169442857Y-101977200D02*
X169300000Y-102024819D01*
X169300000Y-102024819D02*
X169061905Y-102024819D01*
X169966667Y-101024819D02*
X170585714Y-101024819D01*
X170585714Y-101024819D02*
X170252381Y-101405771D01*
X170252381Y-101405771D02*
X170395238Y-101405771D01*
X170395238Y-101405771D02*
X170490476Y-101453390D01*
X170490476Y-101453390D02*
X170538095Y-101501009D01*
X170538095Y-101501009D02*
X170585714Y-101596247D01*
X170585714Y-101596247D02*
X170585714Y-101834342D01*
X170585714Y-101834342D02*
X170538095Y-101929580D01*
X170538095Y-101929580D02*
X170490476Y-101977200D01*
X170490476Y-101977200D02*
X170395238Y-102024819D01*
X170395238Y-102024819D02*
X170109524Y-102024819D01*
X170109524Y-102024819D02*
X170014286Y-101977200D01*
X170014286Y-101977200D02*
X169966667Y-101929580D01*
%TO.C,FB1*%
X141529009Y-104874833D02*
X141529009Y-105208166D01*
X142052819Y-105208166D02*
X141052819Y-105208166D01*
X141052819Y-105208166D02*
X141052819Y-104731976D01*
X141529009Y-104017690D02*
X141576628Y-103874833D01*
X141576628Y-103874833D02*
X141624247Y-103827214D01*
X141624247Y-103827214D02*
X141719485Y-103779595D01*
X141719485Y-103779595D02*
X141862342Y-103779595D01*
X141862342Y-103779595D02*
X141957580Y-103827214D01*
X141957580Y-103827214D02*
X142005200Y-103874833D01*
X142005200Y-103874833D02*
X142052819Y-103970071D01*
X142052819Y-103970071D02*
X142052819Y-104351023D01*
X142052819Y-104351023D02*
X141052819Y-104351023D01*
X141052819Y-104351023D02*
X141052819Y-104017690D01*
X141052819Y-104017690D02*
X141100438Y-103922452D01*
X141100438Y-103922452D02*
X141148057Y-103874833D01*
X141148057Y-103874833D02*
X141243295Y-103827214D01*
X141243295Y-103827214D02*
X141338533Y-103827214D01*
X141338533Y-103827214D02*
X141433771Y-103874833D01*
X141433771Y-103874833D02*
X141481390Y-103922452D01*
X141481390Y-103922452D02*
X141529009Y-104017690D01*
X141529009Y-104017690D02*
X141529009Y-104351023D01*
X142052819Y-102827214D02*
X142052819Y-103398642D01*
X142052819Y-103112928D02*
X141052819Y-103112928D01*
X141052819Y-103112928D02*
X141195676Y-103208166D01*
X141195676Y-103208166D02*
X141290914Y-103303404D01*
X141290914Y-103303404D02*
X141338533Y-103398642D01*
%TO.C,TP3*%
X172936095Y-104596319D02*
X173507523Y-104596319D01*
X173221809Y-105596319D02*
X173221809Y-104596319D01*
X173840857Y-105596319D02*
X173840857Y-104596319D01*
X173840857Y-104596319D02*
X174221809Y-104596319D01*
X174221809Y-104596319D02*
X174317047Y-104643938D01*
X174317047Y-104643938D02*
X174364666Y-104691557D01*
X174364666Y-104691557D02*
X174412285Y-104786795D01*
X174412285Y-104786795D02*
X174412285Y-104929652D01*
X174412285Y-104929652D02*
X174364666Y-105024890D01*
X174364666Y-105024890D02*
X174317047Y-105072509D01*
X174317047Y-105072509D02*
X174221809Y-105120128D01*
X174221809Y-105120128D02*
X173840857Y-105120128D01*
X174745619Y-104596319D02*
X175364666Y-104596319D01*
X175364666Y-104596319D02*
X175031333Y-104977271D01*
X175031333Y-104977271D02*
X175174190Y-104977271D01*
X175174190Y-104977271D02*
X175269428Y-105024890D01*
X175269428Y-105024890D02*
X175317047Y-105072509D01*
X175317047Y-105072509D02*
X175364666Y-105167747D01*
X175364666Y-105167747D02*
X175364666Y-105405842D01*
X175364666Y-105405842D02*
X175317047Y-105501080D01*
X175317047Y-105501080D02*
X175269428Y-105548700D01*
X175269428Y-105548700D02*
X175174190Y-105596319D01*
X175174190Y-105596319D02*
X174888476Y-105596319D01*
X174888476Y-105596319D02*
X174793238Y-105548700D01*
X174793238Y-105548700D02*
X174745619Y-105501080D01*
%TO.C,SW2*%
X108157200Y-110183332D02*
X108204819Y-110040475D01*
X108204819Y-110040475D02*
X108204819Y-109802380D01*
X108204819Y-109802380D02*
X108157200Y-109707142D01*
X108157200Y-109707142D02*
X108109580Y-109659523D01*
X108109580Y-109659523D02*
X108014342Y-109611904D01*
X108014342Y-109611904D02*
X107919104Y-109611904D01*
X107919104Y-109611904D02*
X107823866Y-109659523D01*
X107823866Y-109659523D02*
X107776247Y-109707142D01*
X107776247Y-109707142D02*
X107728628Y-109802380D01*
X107728628Y-109802380D02*
X107681009Y-109992856D01*
X107681009Y-109992856D02*
X107633390Y-110088094D01*
X107633390Y-110088094D02*
X107585771Y-110135713D01*
X107585771Y-110135713D02*
X107490533Y-110183332D01*
X107490533Y-110183332D02*
X107395295Y-110183332D01*
X107395295Y-110183332D02*
X107300057Y-110135713D01*
X107300057Y-110135713D02*
X107252438Y-110088094D01*
X107252438Y-110088094D02*
X107204819Y-109992856D01*
X107204819Y-109992856D02*
X107204819Y-109754761D01*
X107204819Y-109754761D02*
X107252438Y-109611904D01*
X107204819Y-109278570D02*
X108204819Y-109040475D01*
X108204819Y-109040475D02*
X107490533Y-108849999D01*
X107490533Y-108849999D02*
X108204819Y-108659523D01*
X108204819Y-108659523D02*
X107204819Y-108421428D01*
X107300057Y-108088094D02*
X107252438Y-108040475D01*
X107252438Y-108040475D02*
X107204819Y-107945237D01*
X107204819Y-107945237D02*
X107204819Y-107707142D01*
X107204819Y-107707142D02*
X107252438Y-107611904D01*
X107252438Y-107611904D02*
X107300057Y-107564285D01*
X107300057Y-107564285D02*
X107395295Y-107516666D01*
X107395295Y-107516666D02*
X107490533Y-107516666D01*
X107490533Y-107516666D02*
X107633390Y-107564285D01*
X107633390Y-107564285D02*
X108204819Y-108135713D01*
X108204819Y-108135713D02*
X108204819Y-107516666D01*
%TO.C,R6*%
X119079333Y-99921319D02*
X118746000Y-99445128D01*
X118507905Y-99921319D02*
X118507905Y-98921319D01*
X118507905Y-98921319D02*
X118888857Y-98921319D01*
X118888857Y-98921319D02*
X118984095Y-98968938D01*
X118984095Y-98968938D02*
X119031714Y-99016557D01*
X119031714Y-99016557D02*
X119079333Y-99111795D01*
X119079333Y-99111795D02*
X119079333Y-99254652D01*
X119079333Y-99254652D02*
X119031714Y-99349890D01*
X119031714Y-99349890D02*
X118984095Y-99397509D01*
X118984095Y-99397509D02*
X118888857Y-99445128D01*
X118888857Y-99445128D02*
X118507905Y-99445128D01*
X119936476Y-98921319D02*
X119746000Y-98921319D01*
X119746000Y-98921319D02*
X119650762Y-98968938D01*
X119650762Y-98968938D02*
X119603143Y-99016557D01*
X119603143Y-99016557D02*
X119507905Y-99159414D01*
X119507905Y-99159414D02*
X119460286Y-99349890D01*
X119460286Y-99349890D02*
X119460286Y-99730842D01*
X119460286Y-99730842D02*
X119507905Y-99826080D01*
X119507905Y-99826080D02*
X119555524Y-99873700D01*
X119555524Y-99873700D02*
X119650762Y-99921319D01*
X119650762Y-99921319D02*
X119841238Y-99921319D01*
X119841238Y-99921319D02*
X119936476Y-99873700D01*
X119936476Y-99873700D02*
X119984095Y-99826080D01*
X119984095Y-99826080D02*
X120031714Y-99730842D01*
X120031714Y-99730842D02*
X120031714Y-99492747D01*
X120031714Y-99492747D02*
X119984095Y-99397509D01*
X119984095Y-99397509D02*
X119936476Y-99349890D01*
X119936476Y-99349890D02*
X119841238Y-99302271D01*
X119841238Y-99302271D02*
X119650762Y-99302271D01*
X119650762Y-99302271D02*
X119555524Y-99349890D01*
X119555524Y-99349890D02*
X119507905Y-99397509D01*
X119507905Y-99397509D02*
X119460286Y-99492747D01*
%TO.C,TP1*%
X172886095Y-109296319D02*
X173457523Y-109296319D01*
X173171809Y-110296319D02*
X173171809Y-109296319D01*
X173790857Y-110296319D02*
X173790857Y-109296319D01*
X173790857Y-109296319D02*
X174171809Y-109296319D01*
X174171809Y-109296319D02*
X174267047Y-109343938D01*
X174267047Y-109343938D02*
X174314666Y-109391557D01*
X174314666Y-109391557D02*
X174362285Y-109486795D01*
X174362285Y-109486795D02*
X174362285Y-109629652D01*
X174362285Y-109629652D02*
X174314666Y-109724890D01*
X174314666Y-109724890D02*
X174267047Y-109772509D01*
X174267047Y-109772509D02*
X174171809Y-109820128D01*
X174171809Y-109820128D02*
X173790857Y-109820128D01*
X175314666Y-110296319D02*
X174743238Y-110296319D01*
X175028952Y-110296319D02*
X175028952Y-109296319D01*
X175028952Y-109296319D02*
X174933714Y-109439176D01*
X174933714Y-109439176D02*
X174838476Y-109534414D01*
X174838476Y-109534414D02*
X174743238Y-109582033D01*
%TO.C,C10*%
X138559580Y-94142857D02*
X138607200Y-94190476D01*
X138607200Y-94190476D02*
X138654819Y-94333333D01*
X138654819Y-94333333D02*
X138654819Y-94428571D01*
X138654819Y-94428571D02*
X138607200Y-94571428D01*
X138607200Y-94571428D02*
X138511961Y-94666666D01*
X138511961Y-94666666D02*
X138416723Y-94714285D01*
X138416723Y-94714285D02*
X138226247Y-94761904D01*
X138226247Y-94761904D02*
X138083390Y-94761904D01*
X138083390Y-94761904D02*
X137892914Y-94714285D01*
X137892914Y-94714285D02*
X137797676Y-94666666D01*
X137797676Y-94666666D02*
X137702438Y-94571428D01*
X137702438Y-94571428D02*
X137654819Y-94428571D01*
X137654819Y-94428571D02*
X137654819Y-94333333D01*
X137654819Y-94333333D02*
X137702438Y-94190476D01*
X137702438Y-94190476D02*
X137750057Y-94142857D01*
X138654819Y-93190476D02*
X138654819Y-93761904D01*
X138654819Y-93476190D02*
X137654819Y-93476190D01*
X137654819Y-93476190D02*
X137797676Y-93571428D01*
X137797676Y-93571428D02*
X137892914Y-93666666D01*
X137892914Y-93666666D02*
X137940533Y-93761904D01*
X137654819Y-92571428D02*
X137654819Y-92476190D01*
X137654819Y-92476190D02*
X137702438Y-92380952D01*
X137702438Y-92380952D02*
X137750057Y-92333333D01*
X137750057Y-92333333D02*
X137845295Y-92285714D01*
X137845295Y-92285714D02*
X138035771Y-92238095D01*
X138035771Y-92238095D02*
X138273866Y-92238095D01*
X138273866Y-92238095D02*
X138464342Y-92285714D01*
X138464342Y-92285714D02*
X138559580Y-92333333D01*
X138559580Y-92333333D02*
X138607200Y-92380952D01*
X138607200Y-92380952D02*
X138654819Y-92476190D01*
X138654819Y-92476190D02*
X138654819Y-92571428D01*
X138654819Y-92571428D02*
X138607200Y-92666666D01*
X138607200Y-92666666D02*
X138559580Y-92714285D01*
X138559580Y-92714285D02*
X138464342Y-92761904D01*
X138464342Y-92761904D02*
X138273866Y-92809523D01*
X138273866Y-92809523D02*
X138035771Y-92809523D01*
X138035771Y-92809523D02*
X137845295Y-92761904D01*
X137845295Y-92761904D02*
X137750057Y-92714285D01*
X137750057Y-92714285D02*
X137702438Y-92666666D01*
X137702438Y-92666666D02*
X137654819Y-92571428D01*
D14*
%TO.C,C8*%
X138319436Y-105164300D02*
X138103764Y-105164300D01*
X138319436Y-104444300D02*
X138103764Y-104444300D01*
%TO.C,R11*%
X157551641Y-101171500D02*
X157244359Y-101171500D01*
X157551641Y-100411500D02*
X157244359Y-100411500D01*
%TO.C,R12*%
X115670000Y-106263641D02*
X115670000Y-105956359D01*
X116430000Y-106263641D02*
X116430000Y-105956359D01*
%TO.C,C5*%
X143292164Y-92040000D02*
X143507836Y-92040000D01*
X143292164Y-92760000D02*
X143507836Y-92760000D01*
%TO.C,R7*%
X119092359Y-95346500D02*
X119399641Y-95346500D01*
X119092359Y-96106500D02*
X119399641Y-96106500D01*
%TO.C,SW1*%
X116423000Y-83516500D02*
X116423000Y-82726500D01*
X115823000Y-81716500D02*
X110123000Y-81716500D01*
X114573000Y-84566500D02*
X112873000Y-84566500D01*
X111573000Y-84566500D02*
X111373000Y-84566500D01*
X109523000Y-82726500D02*
X109523000Y-83516500D01*
%TO.C,C15*%
X125808000Y-96888664D02*
X125808000Y-97104336D01*
X125088000Y-96888664D02*
X125088000Y-97104336D01*
%TO.C,J1*%
X174945000Y-102350000D02*
X176945000Y-102350000D01*
X174945000Y-92950000D02*
X176945000Y-92950000D01*
%TO.C,C11*%
X138506400Y-98521664D02*
X138506400Y-98737336D01*
X137786400Y-98521664D02*
X137786400Y-98737336D01*
%TO.C,R5*%
X174451641Y-87347500D02*
X174144359Y-87347500D01*
X174451641Y-86587500D02*
X174144359Y-86587500D01*
%TO.C,J5*%
X121512000Y-114607500D02*
X121512000Y-113277500D01*
X122842000Y-114607500D02*
X121512000Y-114607500D01*
X124112000Y-114607500D02*
X172432000Y-114607500D01*
X124112000Y-114607500D02*
X124112000Y-111947500D01*
X172432000Y-114607500D02*
X172432000Y-111947500D01*
X124112000Y-111947500D02*
X172432000Y-111947500D01*
%TO.C,R2*%
X156878000Y-96246359D02*
X156878000Y-96553641D01*
X156118000Y-96246359D02*
X156118000Y-96553641D01*
%TO.C,C3*%
X149105836Y-104351500D02*
X148890164Y-104351500D01*
X149105836Y-103631500D02*
X148890164Y-103631500D01*
%TO.C,U2*%
X168295000Y-99210000D02*
X170095000Y-99210000D01*
X168295000Y-99210000D02*
X167495000Y-99210000D01*
X168295000Y-96090000D02*
X169095000Y-96090000D01*
X168295000Y-96090000D02*
X167495000Y-96090000D01*
%TO.C,D1*%
X175583000Y-89226500D02*
X175583000Y-87756500D01*
X175583000Y-87756500D02*
X173298000Y-87756500D01*
X173298000Y-89226500D02*
X175583000Y-89226500D01*
%TO.C,D2*%
X156183000Y-101526500D02*
X156183000Y-100056500D01*
X156183000Y-100056500D02*
X153898000Y-100056500D01*
X153898000Y-101526500D02*
X156183000Y-101526500D01*
%TO.C,R10*%
X121568000Y-102471500D02*
X121568000Y-109011500D01*
X121238000Y-102471500D02*
X121568000Y-102471500D01*
X119158000Y-102471500D02*
X118828000Y-102471500D01*
X118828000Y-102471500D02*
X118828000Y-109011500D01*
X121568000Y-109011500D02*
X121238000Y-109011500D01*
X118828000Y-109011500D02*
X119158000Y-109011500D01*
%TO.C,Y1*%
X137358000Y-95054700D02*
X134058000Y-95054700D01*
X134058000Y-95054700D02*
X134058000Y-99054700D01*
%TO.C,R8*%
X153782299Y-106469141D02*
X153782299Y-106161859D01*
X154542299Y-106469141D02*
X154542299Y-106161859D01*
%TO.C,U3*%
X165548000Y-93151500D02*
X159538000Y-93151500D01*
X163298000Y-86331500D02*
X159538000Y-86331500D01*
X159538000Y-93151500D02*
X159538000Y-91891500D01*
X159538000Y-86331500D02*
X159538000Y-87591500D01*
%TO.C,U1*%
X142600000Y-94427500D02*
X142600000Y-94877500D01*
X142600000Y-94877500D02*
X141310000Y-94877500D01*
X142600000Y-101647500D02*
X142600000Y-101197500D01*
X143050000Y-94427500D02*
X142600000Y-94427500D01*
X143050000Y-101647500D02*
X142600000Y-101647500D01*
X149370000Y-94427500D02*
X149820000Y-94427500D01*
X149370000Y-101647500D02*
X149820000Y-101647500D01*
X149820000Y-94427500D02*
X149820000Y-94877500D01*
X149820000Y-101647500D02*
X149820000Y-101197500D01*
%TO.C,R3*%
X174966641Y-91934000D02*
X174659359Y-91934000D01*
X174966641Y-91174000D02*
X174659359Y-91174000D01*
%TO.C,R9*%
X155742299Y-105171859D02*
X155742299Y-105479141D01*
X154982299Y-105171859D02*
X154982299Y-105479141D01*
%TO.C,R0*%
X119496359Y-111370000D02*
X119803641Y-111370000D01*
X119496359Y-112130000D02*
X119803641Y-112130000D01*
%TO.C,R4*%
X174938641Y-104126000D02*
X174631359Y-104126000D01*
X174938641Y-103366000D02*
X174631359Y-103366000D01*
%TO.C,C14*%
X123085164Y-94356500D02*
X123300836Y-94356500D01*
X123085164Y-95076500D02*
X123300836Y-95076500D01*
%TO.C,D5*%
X114198000Y-95431500D02*
X112523000Y-95431500D01*
X114198000Y-95431500D02*
X114848000Y-95431500D01*
X114198000Y-98551500D02*
X113548000Y-98551500D01*
X114198000Y-98551500D02*
X114848000Y-98551500D01*
%TO.C,TP2*%
X177898000Y-107491500D02*
G75*
G03*
X177898000Y-107491500I-700000J0D01*
G01*
%TO.C,C9*%
X138307836Y-101460000D02*
X138092164Y-101460000D01*
X138307836Y-100740000D02*
X138092164Y-100740000D01*
%TO.C,C12*%
X167771000Y-89480248D02*
X167771000Y-90002752D01*
X166301000Y-89480248D02*
X166301000Y-90002752D01*
%TO.C,C1*%
X154208000Y-95000920D02*
X154208000Y-95282080D01*
X153188000Y-95000920D02*
X153188000Y-95282080D01*
%TO.C,C6*%
X139838000Y-99669336D02*
X139838000Y-99453664D01*
X140558000Y-99669336D02*
X140558000Y-99453664D01*
%TO.C,D4*%
X168810000Y-94550000D02*
X168810000Y-95750000D01*
X170770000Y-94550000D02*
X168810000Y-94550000D01*
X170770000Y-95750000D02*
X168810000Y-95750000D01*
%TO.C,C16*%
X118355836Y-97356500D02*
X118140164Y-97356500D01*
X118355836Y-96636500D02*
X118140164Y-96636500D01*
%TO.C,R1*%
X142844359Y-88470000D02*
X143151641Y-88470000D01*
X142844359Y-89230000D02*
X143151641Y-89230000D01*
D15*
%TO.C,J7*%
X120450000Y-82750000D02*
X120450000Y-83250000D01*
X120450000Y-86350000D02*
X120450000Y-85750000D01*
X120650000Y-82750000D02*
X120450000Y-82750000D01*
X120650000Y-86350000D02*
X120450000Y-86350000D01*
X120650000Y-86350000D02*
X120647755Y-87935691D01*
X126850000Y-82750000D02*
X127050000Y-82750000D01*
X126850000Y-86350000D02*
X127050000Y-86350000D01*
X127050000Y-82750000D02*
X127050000Y-83250000D01*
X127050000Y-86350000D02*
X127050000Y-85850000D01*
D14*
%TO.C,C13*%
X161440748Y-93832500D02*
X161963252Y-93832500D01*
X161440748Y-95302500D02*
X161963252Y-95302500D01*
%TO.C,C2*%
X152558000Y-95389664D02*
X152558000Y-95605336D01*
X151838000Y-95389664D02*
X151838000Y-95605336D01*
%TO.C,U4*%
X122698000Y-98551500D02*
X124498000Y-98551500D01*
X122698000Y-98551500D02*
X121898000Y-98551500D01*
X122698000Y-95431500D02*
X123498000Y-95431500D01*
X122698000Y-95431500D02*
X121898000Y-95431500D01*
%TO.C,C4*%
X139838000Y-94894136D02*
X139838000Y-94678464D01*
X140558000Y-94894136D02*
X140558000Y-94678464D01*
%TO.C,C7*%
X138319436Y-103589500D02*
X138103764Y-103589500D01*
X138319436Y-102869500D02*
X138103764Y-102869500D01*
D16*
%TO.C,J4*%
X104486000Y-104325500D02*
X104486000Y-90225500D01*
X111786000Y-104325500D02*
X104486000Y-104325500D01*
X104486000Y-90225500D02*
X111786000Y-90225500D01*
X111786000Y-90225500D02*
X111786000Y-104325500D01*
D14*
%TO.C,D3*%
X168810000Y-99550000D02*
X168810000Y-100750000D01*
X170770000Y-99550000D02*
X168810000Y-99550000D01*
X170770000Y-100750000D02*
X168810000Y-100750000D01*
%TO.C,J6*%
X131670000Y-83880000D02*
X131670000Y-82550000D01*
X133000000Y-83880000D02*
X131670000Y-83880000D01*
X134270000Y-83880000D02*
X172430000Y-83880000D01*
X134270000Y-83880000D02*
X134270000Y-81220000D01*
X172430000Y-83880000D02*
X172430000Y-81220000D01*
X134270000Y-81220000D02*
X172430000Y-81220000D01*
%TO.C,FB1*%
X140624000Y-103828721D02*
X140624000Y-104154279D01*
X139604000Y-103828721D02*
X139604000Y-104154279D01*
%TO.C,TP3*%
X177898000Y-105191500D02*
G75*
G03*
X177898000Y-105191500I-700000J0D01*
G01*
%TO.C,SW2*%
X116600001Y-112000000D02*
X116600001Y-110500000D01*
X115350001Y-108000000D02*
X110850001Y-108000000D01*
X110850001Y-114500000D02*
X115350001Y-114500000D01*
X109600001Y-110500000D02*
X109600001Y-112000000D01*
%TO.C,R6*%
X119399641Y-98646500D02*
X119092359Y-98646500D01*
X119399641Y-97886500D02*
X119092359Y-97886500D01*
%TO.C,TP1*%
X177898000Y-109791500D02*
G75*
G03*
X177898000Y-109791500I-700000J0D01*
G01*
%TO.C,C10*%
X137786400Y-96654536D02*
X137786400Y-96438864D01*
X138506400Y-96654536D02*
X138506400Y-96438864D01*
%TD*%
M02*
