%TF.GenerationSoftware,KiCad,Pcbnew,7.0.5-0*%
%TF.CreationDate,2024-02-18T02:25:47-06:00*%
%TF.ProjectId,STM32_BluePill,53544d33-325f-4426-9c75-6550696c6c2e,1*%
%TF.SameCoordinates,Original*%
%TF.FileFunction,Legend,Bot*%
%TF.FilePolarity,Positive*%
%FSLAX46Y46*%
G04 Gerber Fmt 4.6, Leading zero omitted, Abs format (unit mm)*
G04 Created by KiCad (PCBNEW 7.0.5-0) date 2024-02-18 02:25:47*
%MOMM*%
%LPD*%
G01*
G04 APERTURE LIST*
%ADD10C,0.150000*%
%ADD11C,0.200000*%
G04 APERTURE END LIST*
D10*
X115898000Y-102531500D02*
X115598000Y-102831500D01*
X114598000Y-102531500D02*
X115898000Y-102531500D01*
X115898000Y-102531500D02*
X115598000Y-102231500D01*
X114598000Y-102531500D02*
X114898000Y-102231500D01*
X114598000Y-102531500D02*
X114898000Y-102831500D01*
D11*
X113876243Y-103128123D02*
X113719993Y-101878123D01*
X113719993Y-101878123D02*
X113243802Y-101878123D01*
X113243802Y-101878123D02*
X113132195Y-101937647D01*
X113132195Y-101937647D02*
X113080112Y-101997171D01*
X113080112Y-101997171D02*
X113035469Y-102116219D01*
X113035469Y-102116219D02*
X113057791Y-102294790D01*
X113057791Y-102294790D02*
X113132195Y-102413838D01*
X113132195Y-102413838D02*
X113199160Y-102473361D01*
X113199160Y-102473361D02*
X113325648Y-102532885D01*
X113325648Y-102532885D02*
X113801838Y-102532885D01*
X112589041Y-101878123D02*
X112447672Y-103128123D01*
X112447672Y-103128123D02*
X112097969Y-102235266D01*
X112097969Y-102235266D02*
X111971481Y-103128123D01*
X111971481Y-103128123D02*
X111517612Y-101878123D01*
X110483386Y-103128123D02*
X110825648Y-102532885D01*
X111197672Y-103128123D02*
X111041422Y-101878123D01*
X111041422Y-101878123D02*
X110565231Y-101878123D01*
X110565231Y-101878123D02*
X110453624Y-101937647D01*
X110453624Y-101937647D02*
X110401541Y-101997171D01*
X110401541Y-101997171D02*
X110356898Y-102116219D01*
X110356898Y-102116219D02*
X110379220Y-102294790D01*
X110379220Y-102294790D02*
X110453624Y-102413838D01*
X110453624Y-102413838D02*
X110520589Y-102473361D01*
X110520589Y-102473361D02*
X110647077Y-102532885D01*
X110647077Y-102532885D02*
X111123267Y-102532885D01*
D10*
X167358458Y-101093152D02*
X167120363Y-101759819D01*
X166882268Y-101093152D02*
X167120363Y-101759819D01*
X167120363Y-101759819D02*
X167215601Y-101997914D01*
X167215601Y-101997914D02*
X167263220Y-102045533D01*
X167263220Y-102045533D02*
X167358458Y-102093152D01*
X166072744Y-101759819D02*
X166072744Y-101236009D01*
X166072744Y-101236009D02*
X166120363Y-101140771D01*
X166120363Y-101140771D02*
X166215601Y-101093152D01*
X166215601Y-101093152D02*
X166406077Y-101093152D01*
X166406077Y-101093152D02*
X166501315Y-101140771D01*
X166072744Y-101712200D02*
X166167982Y-101759819D01*
X166167982Y-101759819D02*
X166406077Y-101759819D01*
X166406077Y-101759819D02*
X166501315Y-101712200D01*
X166501315Y-101712200D02*
X166548934Y-101616961D01*
X166548934Y-101616961D02*
X166548934Y-101521723D01*
X166548934Y-101521723D02*
X166501315Y-101426485D01*
X166501315Y-101426485D02*
X166406077Y-101378866D01*
X166406077Y-101378866D02*
X166167982Y-101378866D01*
X166167982Y-101378866D02*
X166072744Y-101331247D01*
X165596553Y-101759819D02*
X165596553Y-101093152D01*
X165596553Y-101283628D02*
X165548934Y-101188390D01*
X165548934Y-101188390D02*
X165501315Y-101140771D01*
X165501315Y-101140771D02*
X165406077Y-101093152D01*
X165406077Y-101093152D02*
X165310839Y-101093152D01*
X164977505Y-101093152D02*
X164977505Y-101759819D01*
X164977505Y-101188390D02*
X164929886Y-101140771D01*
X164929886Y-101140771D02*
X164834648Y-101093152D01*
X164834648Y-101093152D02*
X164691791Y-101093152D01*
X164691791Y-101093152D02*
X164596553Y-101140771D01*
X164596553Y-101140771D02*
X164548934Y-101236009D01*
X164548934Y-101236009D02*
X164548934Y-101759819D01*
X164215600Y-101093152D02*
X163834648Y-101093152D01*
X164072743Y-100759819D02*
X164072743Y-101616961D01*
X164072743Y-101616961D02*
X164025124Y-101712200D01*
X164025124Y-101712200D02*
X163929886Y-101759819D01*
X163929886Y-101759819D02*
X163834648Y-101759819D01*
X163501314Y-101759819D02*
X163501314Y-100759819D01*
X163072743Y-101759819D02*
X163072743Y-101236009D01*
X163072743Y-101236009D02*
X163120362Y-101140771D01*
X163120362Y-101140771D02*
X163215600Y-101093152D01*
X163215600Y-101093152D02*
X163358457Y-101093152D01*
X163358457Y-101093152D02*
X163453695Y-101140771D01*
X163453695Y-101140771D02*
X163501314Y-101188390D01*
X162215600Y-101712200D02*
X162310838Y-101759819D01*
X162310838Y-101759819D02*
X162501314Y-101759819D01*
X162501314Y-101759819D02*
X162596552Y-101712200D01*
X162596552Y-101712200D02*
X162644171Y-101616961D01*
X162644171Y-101616961D02*
X162644171Y-101236009D01*
X162644171Y-101236009D02*
X162596552Y-101140771D01*
X162596552Y-101140771D02*
X162501314Y-101093152D01*
X162501314Y-101093152D02*
X162310838Y-101093152D01*
X162310838Y-101093152D02*
X162215600Y-101140771D01*
X162215600Y-101140771D02*
X162167981Y-101236009D01*
X162167981Y-101236009D02*
X162167981Y-101331247D01*
X162167981Y-101331247D02*
X162644171Y-101426485D01*
X161596552Y-101759819D02*
X161691790Y-101712200D01*
X161691790Y-101712200D02*
X161739409Y-101664580D01*
X161739409Y-101664580D02*
X161787028Y-101569342D01*
X161787028Y-101569342D02*
X161787028Y-101283628D01*
X161787028Y-101283628D02*
X161739409Y-101188390D01*
X161739409Y-101188390D02*
X161691790Y-101140771D01*
X161691790Y-101140771D02*
X161596552Y-101093152D01*
X161596552Y-101093152D02*
X161453695Y-101093152D01*
X161453695Y-101093152D02*
X161358457Y-101140771D01*
X161358457Y-101140771D02*
X161310838Y-101188390D01*
X161310838Y-101188390D02*
X161263219Y-101283628D01*
X161263219Y-101283628D02*
X161263219Y-101569342D01*
X161263219Y-101569342D02*
X161310838Y-101664580D01*
X161310838Y-101664580D02*
X161358457Y-101712200D01*
X161358457Y-101712200D02*
X161453695Y-101759819D01*
X161453695Y-101759819D02*
X161596552Y-101759819D01*
X160834647Y-101759819D02*
X160834647Y-101093152D01*
X160834647Y-101283628D02*
X160787028Y-101188390D01*
X160787028Y-101188390D02*
X160739409Y-101140771D01*
X160739409Y-101140771D02*
X160644171Y-101093152D01*
X160644171Y-101093152D02*
X160548933Y-101093152D01*
X160310837Y-101093152D02*
X160072742Y-101759819D01*
X159834647Y-101093152D02*
X160072742Y-101759819D01*
X160072742Y-101759819D02*
X160167980Y-101997914D01*
X160167980Y-101997914D02*
X160215599Y-102045533D01*
X160215599Y-102045533D02*
X160310837Y-102093152D01*
X167310839Y-102465057D02*
X167263220Y-102417438D01*
X167263220Y-102417438D02*
X167167982Y-102369819D01*
X167167982Y-102369819D02*
X166929887Y-102369819D01*
X166929887Y-102369819D02*
X166834649Y-102417438D01*
X166834649Y-102417438D02*
X166787030Y-102465057D01*
X166787030Y-102465057D02*
X166739411Y-102560295D01*
X166739411Y-102560295D02*
X166739411Y-102655533D01*
X166739411Y-102655533D02*
X166787030Y-102798390D01*
X166787030Y-102798390D02*
X167358458Y-103369819D01*
X167358458Y-103369819D02*
X166739411Y-103369819D01*
X166120363Y-102369819D02*
X166025125Y-102369819D01*
X166025125Y-102369819D02*
X165929887Y-102417438D01*
X165929887Y-102417438D02*
X165882268Y-102465057D01*
X165882268Y-102465057D02*
X165834649Y-102560295D01*
X165834649Y-102560295D02*
X165787030Y-102750771D01*
X165787030Y-102750771D02*
X165787030Y-102988866D01*
X165787030Y-102988866D02*
X165834649Y-103179342D01*
X165834649Y-103179342D02*
X165882268Y-103274580D01*
X165882268Y-103274580D02*
X165929887Y-103322200D01*
X165929887Y-103322200D02*
X166025125Y-103369819D01*
X166025125Y-103369819D02*
X166120363Y-103369819D01*
X166120363Y-103369819D02*
X166215601Y-103322200D01*
X166215601Y-103322200D02*
X166263220Y-103274580D01*
X166263220Y-103274580D02*
X166310839Y-103179342D01*
X166310839Y-103179342D02*
X166358458Y-102988866D01*
X166358458Y-102988866D02*
X166358458Y-102750771D01*
X166358458Y-102750771D02*
X166310839Y-102560295D01*
X166310839Y-102560295D02*
X166263220Y-102465057D01*
X166263220Y-102465057D02*
X166215601Y-102417438D01*
X166215601Y-102417438D02*
X166120363Y-102369819D01*
X165406077Y-102465057D02*
X165358458Y-102417438D01*
X165358458Y-102417438D02*
X165263220Y-102369819D01*
X165263220Y-102369819D02*
X165025125Y-102369819D01*
X165025125Y-102369819D02*
X164929887Y-102417438D01*
X164929887Y-102417438D02*
X164882268Y-102465057D01*
X164882268Y-102465057D02*
X164834649Y-102560295D01*
X164834649Y-102560295D02*
X164834649Y-102655533D01*
X164834649Y-102655533D02*
X164882268Y-102798390D01*
X164882268Y-102798390D02*
X165453696Y-103369819D01*
X165453696Y-103369819D02*
X164834649Y-103369819D01*
X163977506Y-102703152D02*
X163977506Y-103369819D01*
X164215601Y-102322200D02*
X164453696Y-103036485D01*
X164453696Y-103036485D02*
X163834649Y-103036485D01*
D11*
X113297076Y-99559076D02*
X113364041Y-99618600D01*
X113364041Y-99618600D02*
X113550052Y-99678123D01*
X113550052Y-99678123D02*
X113669100Y-99678123D01*
X113669100Y-99678123D02*
X113840231Y-99618600D01*
X113840231Y-99618600D02*
X113944398Y-99499552D01*
X113944398Y-99499552D02*
X113989041Y-99380504D01*
X113989041Y-99380504D02*
X114018802Y-99142409D01*
X114018802Y-99142409D02*
X113996481Y-98963838D01*
X113996481Y-98963838D02*
X113907195Y-98725742D01*
X113907195Y-98725742D02*
X113832791Y-98606695D01*
X113832791Y-98606695D02*
X113698862Y-98487647D01*
X113698862Y-98487647D02*
X113512850Y-98428123D01*
X113512850Y-98428123D02*
X113393802Y-98428123D01*
X113393802Y-98428123D02*
X113222672Y-98487647D01*
X113222672Y-98487647D02*
X113170588Y-98547171D01*
X112791124Y-99320980D02*
X112195886Y-99320980D01*
X112954814Y-99678123D02*
X112381898Y-98428123D01*
X112381898Y-98428123D02*
X112121481Y-99678123D01*
X111704814Y-99678123D02*
X111548564Y-98428123D01*
X111548564Y-98428123D02*
X110990528Y-99678123D01*
X110990528Y-99678123D02*
X110834278Y-98428123D01*
X110395290Y-99678123D02*
X110239040Y-98428123D01*
X110313445Y-99023361D02*
X109599159Y-99023361D01*
X109681004Y-99678123D02*
X109524754Y-98428123D01*
X113297076Y-96009076D02*
X113364041Y-96068600D01*
X113364041Y-96068600D02*
X113550052Y-96128123D01*
X113550052Y-96128123D02*
X113669100Y-96128123D01*
X113669100Y-96128123D02*
X113840231Y-96068600D01*
X113840231Y-96068600D02*
X113944398Y-95949552D01*
X113944398Y-95949552D02*
X113989041Y-95830504D01*
X113989041Y-95830504D02*
X114018802Y-95592409D01*
X114018802Y-95592409D02*
X113996481Y-95413838D01*
X113996481Y-95413838D02*
X113907195Y-95175742D01*
X113907195Y-95175742D02*
X113832791Y-95056695D01*
X113832791Y-95056695D02*
X113698862Y-94937647D01*
X113698862Y-94937647D02*
X113512850Y-94878123D01*
X113512850Y-94878123D02*
X113393802Y-94878123D01*
X113393802Y-94878123D02*
X113222672Y-94937647D01*
X113222672Y-94937647D02*
X113170588Y-94997171D01*
X112791124Y-95770980D02*
X112195886Y-95770980D01*
X112954814Y-96128123D02*
X112381898Y-94878123D01*
X112381898Y-94878123D02*
X112121481Y-96128123D01*
X111704814Y-96128123D02*
X111548564Y-94878123D01*
X111548564Y-94878123D02*
X110990528Y-96128123D01*
X110990528Y-96128123D02*
X110834278Y-94878123D01*
X109800052Y-96128123D02*
X110395290Y-96128123D01*
X110395290Y-96128123D02*
X110239040Y-94878123D01*
D10*
X115470268Y-105040557D02*
X115508363Y-105002461D01*
X115508363Y-105002461D02*
X115584554Y-104888176D01*
X115584554Y-104888176D02*
X115622649Y-104811985D01*
X115622649Y-104811985D02*
X115660744Y-104697700D01*
X115660744Y-104697700D02*
X115698839Y-104507223D01*
X115698839Y-104507223D02*
X115698839Y-104354842D01*
X115698839Y-104354842D02*
X115660744Y-104164366D01*
X115660744Y-104164366D02*
X115622649Y-104050080D01*
X115622649Y-104050080D02*
X115584554Y-103973890D01*
X115584554Y-103973890D02*
X115508363Y-103859604D01*
X115508363Y-103859604D02*
X115470268Y-103821509D01*
X115165506Y-104735795D02*
X115165506Y-103935795D01*
X115165506Y-103935795D02*
X114898840Y-104507223D01*
X114898840Y-104507223D02*
X114632173Y-103935795D01*
X114632173Y-103935795D02*
X114632173Y-104735795D01*
X113908363Y-104735795D02*
X113908363Y-104316747D01*
X113908363Y-104316747D02*
X113946458Y-104240557D01*
X113946458Y-104240557D02*
X114022649Y-104202461D01*
X114022649Y-104202461D02*
X114175030Y-104202461D01*
X114175030Y-104202461D02*
X114251220Y-104240557D01*
X113908363Y-104697700D02*
X113984554Y-104735795D01*
X113984554Y-104735795D02*
X114175030Y-104735795D01*
X114175030Y-104735795D02*
X114251220Y-104697700D01*
X114251220Y-104697700D02*
X114289316Y-104621509D01*
X114289316Y-104621509D02*
X114289316Y-104545319D01*
X114289316Y-104545319D02*
X114251220Y-104469128D01*
X114251220Y-104469128D02*
X114175030Y-104431033D01*
X114175030Y-104431033D02*
X113984554Y-104431033D01*
X113984554Y-104431033D02*
X113908363Y-104392938D01*
X113603601Y-104735795D02*
X113184553Y-104202461D01*
X113603601Y-104202461D02*
X113184553Y-104735795D01*
X111851220Y-104735795D02*
X112308363Y-104735795D01*
X112079791Y-104735795D02*
X112079791Y-103935795D01*
X112079791Y-103935795D02*
X112155982Y-104050080D01*
X112155982Y-104050080D02*
X112232172Y-104126271D01*
X112232172Y-104126271D02*
X112308363Y-104164366D01*
X111394077Y-104278652D02*
X111470267Y-104240557D01*
X111470267Y-104240557D02*
X111508362Y-104202461D01*
X111508362Y-104202461D02*
X111546458Y-104126271D01*
X111546458Y-104126271D02*
X111546458Y-104088176D01*
X111546458Y-104088176D02*
X111508362Y-104011985D01*
X111508362Y-104011985D02*
X111470267Y-103973890D01*
X111470267Y-103973890D02*
X111394077Y-103935795D01*
X111394077Y-103935795D02*
X111241696Y-103935795D01*
X111241696Y-103935795D02*
X111165505Y-103973890D01*
X111165505Y-103973890D02*
X111127410Y-104011985D01*
X111127410Y-104011985D02*
X111089315Y-104088176D01*
X111089315Y-104088176D02*
X111089315Y-104126271D01*
X111089315Y-104126271D02*
X111127410Y-104202461D01*
X111127410Y-104202461D02*
X111165505Y-104240557D01*
X111165505Y-104240557D02*
X111241696Y-104278652D01*
X111241696Y-104278652D02*
X111394077Y-104278652D01*
X111394077Y-104278652D02*
X111470267Y-104316747D01*
X111470267Y-104316747D02*
X111508362Y-104354842D01*
X111508362Y-104354842D02*
X111546458Y-104431033D01*
X111546458Y-104431033D02*
X111546458Y-104583414D01*
X111546458Y-104583414D02*
X111508362Y-104659604D01*
X111508362Y-104659604D02*
X111470267Y-104697700D01*
X111470267Y-104697700D02*
X111394077Y-104735795D01*
X111394077Y-104735795D02*
X111241696Y-104735795D01*
X111241696Y-104735795D02*
X111165505Y-104697700D01*
X111165505Y-104697700D02*
X111127410Y-104659604D01*
X111127410Y-104659604D02*
X111089315Y-104583414D01*
X111089315Y-104583414D02*
X111089315Y-104431033D01*
X111089315Y-104431033D02*
X111127410Y-104354842D01*
X111127410Y-104354842D02*
X111165505Y-104316747D01*
X111165505Y-104316747D02*
X111241696Y-104278652D01*
X110860743Y-103935795D02*
X110594076Y-104735795D01*
X110594076Y-104735795D02*
X110327410Y-103935795D01*
X110136934Y-105040557D02*
X110098839Y-105002461D01*
X110098839Y-105002461D02*
X110022648Y-104888176D01*
X110022648Y-104888176D02*
X109984553Y-104811985D01*
X109984553Y-104811985D02*
X109946458Y-104697700D01*
X109946458Y-104697700D02*
X109908362Y-104507223D01*
X109908362Y-104507223D02*
X109908362Y-104354842D01*
X109908362Y-104354842D02*
X109946458Y-104164366D01*
X109946458Y-104164366D02*
X109984553Y-104050080D01*
X109984553Y-104050080D02*
X110022648Y-103973890D01*
X110022648Y-103973890D02*
X110098839Y-103859604D01*
X110098839Y-103859604D02*
X110136934Y-103821509D01*
D11*
X113222672Y-91487647D02*
X113334279Y-91428123D01*
X113334279Y-91428123D02*
X113512850Y-91428123D01*
X113512850Y-91428123D02*
X113698862Y-91487647D01*
X113698862Y-91487647D02*
X113832791Y-91606695D01*
X113832791Y-91606695D02*
X113907195Y-91725742D01*
X113907195Y-91725742D02*
X113996481Y-91963838D01*
X113996481Y-91963838D02*
X114018802Y-92142409D01*
X114018802Y-92142409D02*
X113989041Y-92380504D01*
X113989041Y-92380504D02*
X113944398Y-92499552D01*
X113944398Y-92499552D02*
X113840231Y-92618600D01*
X113840231Y-92618600D02*
X113669100Y-92678123D01*
X113669100Y-92678123D02*
X113550052Y-92678123D01*
X113550052Y-92678123D02*
X113364041Y-92618600D01*
X113364041Y-92618600D02*
X113297076Y-92559076D01*
X113297076Y-92559076D02*
X113244993Y-92142409D01*
X113244993Y-92142409D02*
X113483088Y-92142409D01*
X112776243Y-92678123D02*
X112619993Y-91428123D01*
X112619993Y-91428123D02*
X112061957Y-92678123D01*
X112061957Y-92678123D02*
X111905707Y-91428123D01*
X111466719Y-92678123D02*
X111310469Y-91428123D01*
X111310469Y-91428123D02*
X111012850Y-91428123D01*
X111012850Y-91428123D02*
X110841719Y-91487647D01*
X110841719Y-91487647D02*
X110737552Y-91606695D01*
X110737552Y-91606695D02*
X110692909Y-91725742D01*
X110692909Y-91725742D02*
X110663148Y-91963838D01*
X110663148Y-91963838D02*
X110685469Y-92142409D01*
X110685469Y-92142409D02*
X110774755Y-92380504D01*
X110774755Y-92380504D02*
X110849159Y-92499552D01*
X110849159Y-92499552D02*
X110983088Y-92618600D01*
X110983088Y-92618600D02*
X111169100Y-92678123D01*
X111169100Y-92678123D02*
X111466719Y-92678123D01*
M02*
