M48
; DRILL file {KiCad 7.0.5-0} date 2024 February 18, Sunday 02:25:41
; FORMAT={-:-/ absolute / metric / decimal}
; #@! TF.CreationDate,2024-02-18T02:25:41-06:00
; #@! TF.GenerationSoftware,Kicad,Pcbnew,7.0.5-0
; #@! TF.FileFunction,MixedPlating,1,2
FMAT,2
METRIC
; #@! TA.AperFunction,Plated,PTH,ViaDrill
T1C0.300
; #@! TA.AperFunction,Plated,PTH,ViaDrill
T2C0.400
; #@! TA.AperFunction,Plated,PTH,ComponentDrill
T3C0.600
; #@! TA.AperFunction,Plated,PTH,ComponentDrill
T4C0.800
; #@! TA.AperFunction,Plated,PTH,ComponentDrill
T5C1.000
; #@! TA.AperFunction,Plated,PTH,ComponentDrill
T6C1.100
; #@! TA.AperFunction,Plated,PTH,ComponentDrill
T7C2.200
; #@! TA.AperFunction,NonPlated,NPTH,ComponentDrill
T8C0.650
; #@! TA.AperFunction,NonPlated,NPTH,ComponentDrill
T9C0.900
%
G90
G05
T1
X126.338Y-97.471
X140.998Y-94.341
T2
X114.05Y-105.1
X115.148Y-96.091
X115.148Y-97.891
X116.097Y-85.225
X116.448Y-96.091
X116.448Y-97.891
X116.848Y-96.992
X117.748Y-96.0
X120.3Y-89.65
X122.1Y-89.65
X122.48Y-84.58
X123.64Y-84.56
X123.673Y-93.591
X127.5Y-89.75
X127.5Y-91.499
X128.348Y-95.391
X128.5Y-83.4
X129.408Y-96.451
X129.65Y-84.55
X129.65Y-87.2
X129.65Y-88.8
X130.3Y-92.1
X130.498Y-105.242
X131.578Y-106.321
X131.7Y-90.7
X133.298Y-96.141
X133.298Y-97.941
X133.298Y-99.742
X133.298Y-101.541
X133.968Y-104.712
X134.498Y-99.742
X134.498Y-101.541
X135.028Y-105.771
X135.498Y-94.441
X136.798Y-94.441
X136.998Y-104.791
X137.028Y-103.771
X137.898Y-95.141
X138.298Y-100.041
X139.398Y-91.242
X139.398Y-92.841
X141.511Y-90.563
X141.998Y-92.041
X143.398Y-98.787
X143.7Y-91.5
X148.46Y-100.841
X149.005Y-90.685
X150.045Y-91.895
X150.1Y-89.0
X151.54Y-90.42
X153.498Y-91.492
X154.898Y-95.916
X157.636Y-103.941
X157.636Y-105.416
X158.7Y-100.791
X162.648Y-95.841
X162.698Y-93.242
X162.998Y-92.041
X166.198Y-92.641
X167.098Y-91.742
X170.82Y-97.65
X171.32Y-94.15
X171.32Y-101.25
X172.878Y-86.968
X173.47Y-91.55
X173.47Y-103.746
X173.748Y-106.341
X173.748Y-108.541
X178.798Y-109.791
T4
X120.198Y-101.931
X120.198Y-109.551
T5
X122.842Y-113.277
X125.382Y-113.277
X127.922Y-113.277
X130.462Y-113.277
X133.0Y-82.55
X133.002Y-113.277
X135.54Y-82.55
X135.542Y-113.277
X138.08Y-82.55
X138.082Y-113.277
X140.62Y-82.55
X140.622Y-113.277
X143.16Y-82.55
X143.162Y-113.277
X145.7Y-82.55
X145.702Y-113.277
X148.24Y-82.55
X148.242Y-113.277
X150.78Y-82.55
X150.782Y-113.277
X153.32Y-82.55
X153.322Y-113.277
X155.86Y-82.55
X155.862Y-113.277
X158.4Y-82.55
X158.402Y-113.277
X160.94Y-82.55
X160.942Y-113.277
X163.48Y-82.55
X163.482Y-113.277
X166.02Y-82.55
X166.022Y-113.277
X168.56Y-82.55
X168.562Y-113.277
X171.1Y-82.55
X171.102Y-113.277
T6
X107.936Y-92.025
X107.936Y-95.525
X107.936Y-99.025
X107.936Y-102.525
X109.85Y-109.0
X109.85Y-113.5
X116.35Y-109.0
X116.35Y-113.5
T7
X105.198Y-82.492
X105.198Y-113.491
X177.198Y-82.492
X177.198Y-113.491
T8
X174.245Y-94.76
X174.245Y-100.54
T9
X111.473Y-83.117
X114.473Y-83.117
T3
G00X173.165Y-93.33
M15
G01X174.265Y-93.33
M16
G05
G00X173.165Y-101.97
M15
G01X174.265Y-101.97
M16
G05
G00X177.595Y-93.33
M15
G01X178.195Y-93.33
M16
G05
G00X177.595Y-101.97
M15
G01X178.195Y-101.97
M16
G05
T0
M30
